<?xml version="1.0" encoding="utf-8"?>
<!-- Generator: Adobe Illustrator 24.0.0, SVG Export Plug-In . SVG Version: 6.00 Build 0)  -->
<svg version="1.1" id="Layer_1" xmlns="http://www.w3.org/2000/svg" xmlns:xlink="http://www.w3.org/1999/xlink" x="0px" y="0px"
	 viewBox="0 0 952 160" style="enable-background:new 0 0 952 160;" xml:space="preserve">
<style type="text/css">
	.st0{fill:url(#SVGID_1_);}
	.st1{fill:url(#SVGID_2_);}
	.st2{enable-background:new    ;}
</style>
<linearGradient id="SVGID_1_" gradientUnits="userSpaceOnUse" x1="52.1" y1="9.9" x2="52.1" y2="129.9" gradientTransform="matrix(1 0 0 -1 0 162)">
	<stop  offset="0" style="stop-color:#F30100"/>
	<stop  offset="0.376" style="stop-color:#F10102"/>
	<stop  offset="0.5114" style="stop-color:#EB0109"/>
	<stop  offset="0.6079" style="stop-color:#E00114"/>
	<stop  offset="0.686" style="stop-color:#D10125"/>
	<stop  offset="0.7529" style="stop-color:#BD013B"/>
	<stop  offset="0.8121" style="stop-color:#A40157"/>
	<stop  offset="0.8658" style="stop-color:#870177"/>
	<stop  offset="0.915" style="stop-color:#64009D"/>
	<stop  offset="0.9588" style="stop-color:#3F00C6"/>
	<stop  offset="1" style="stop-color:#1500F4"/>
</linearGradient>
<rect x="8.1" y="32.1" class="st0" width="88" height="120"/>
<linearGradient id="SVGID_2_" gradientUnits="userSpaceOnUse" x1="520.1" y1="129.9" x2="520.1" y2="153.9" gradientTransform="matrix(1 0 0 -1 0 162)">
	<stop  offset="0" style="stop-color:#F30100"/>
	<stop  offset="4.118037e-02" style="stop-color:#C9012E"/>
	<stop  offset="8.495975e-02" style="stop-color:#A40157"/>
	<stop  offset="0.1342" style="stop-color:#81007D"/>
	<stop  offset="0.1879" style="stop-color:#64009D"/>
	<stop  offset="0.2471" style="stop-color:#4B00B9"/>
	<stop  offset="0.314" style="stop-color:#3700CF"/>
	<stop  offset="0.3921" style="stop-color:#2800E0"/>
	<stop  offset="0.4886" style="stop-color:#1D00EB"/>
	<stop  offset="0.624" style="stop-color:#1700F2"/>
	<stop  offset="1" style="stop-color:#1500F4"/>
</linearGradient>
<rect x="96.1" y="8.1" class="st1" width="848" height="24"/>
<g>
	<g class="st2">
		<path d="M186.5,117.3l-0.2-3.2H139l-12.8,16.6c-8,10.4-5.9,15.2,1.4,16.2l2.6,0.3l-1.6,4.6H96l1.4-4.3c5.8-1.4,11.8-5.4,17.9-13.4
			L191,34.6h0.6l7,100.8c0.5,7,3.2,10.6,9.4,12.2l-1.4,4.3h-38.2l1.6-4.6l2.7-0.3c6.1-0.6,9.8-4.5,9.3-11.4l-1.1-18.2H186.5z
			 M143.3,108.5h37.3L177.7,62L143.3,108.5z"/>
	</g>
	<g class="st2">
		<path d="M282.3,143.4c4.5,0,10.2-4.8,17.4-12.3l1.3,0.8c-10.6,13.9-19,21-27.7,21c-8.2,0-11.8-6.7-6.7-19.2l16-39.2
			c3-7.4,0.2-10.1-4.5-10.1c-8.5,0-20,10.1-32.6,28.6l-15,38.9h-14.2L239,93.5c2.2-5.8,1.4-8.2-2.9-10.4l-5.3-2.7l30.1-5.9L254.5,90
			l-5.9,7.5l-3.5,9h0.3c13.8-19.7,27.5-31.2,38.4-31.2c13.6,0,17.9,8.8,12,22.7l-15.2,36.2C277.5,141.5,279.3,143.4,282.3,143.4z"/>
		<path d="M326.3,132.4c-2.4,6.2,0.6,9.1,5,9.1c4.3,0,9.4-3,16.8-11l0.6,0.3c-6.9,12-15.5,21.9-25.9,21.9
			c-10.1,0-16.2-7.7-10.6-22.2l18.2-47.5h-14.9c9.9-5.1,28.8-17.6,41.9-33l-9.9,26.7h21.1l-2.4,6.2h-26.1l-1,2.9h5L326.3,132.4z"/>
		<path d="M377.4,134.1c-3,7.4-1.3,9.3,1.8,9.3c4.5,0,10.2-4.8,17.4-12.3l1.3,0.8c-10.6,14.1-19.2,21-28,21
			c-8.2,0-11.8-6.6-6.7-19.2l16.3-40.2c2.4-5.8,1.4-8.2-2.9-10.4l-5.3-2.7l30.1-5.9L377.4,134.1z M398.5,42.9l16.2-1l-6.7,15.8
			l-16.2,1L398.5,42.9z"/>
		<path d="M440.6,90l-5.9,7.5l-3.5,9h0.5c13.6-19.5,26.9-31.2,37.6-31.2c10.2,0,14.6,5.6,13.1,15.2l-5.1,6.7l-3.8,9.6h0.5
			c13.8-19.7,27.2-31.5,37.9-31.5c12.6,0,17,9,11.2,22.7l-15.2,36.2c-3,7.4-1.3,9.3,1.8,9.3c4.5,0,10.2-4.8,17.4-12.3l1.3,0.8
			c-10.6,13.9-19,21-27.7,21c-8.2,0-11.8-6.7-6.7-19.2l16-39.2c2.9-7.2,0.2-10.1-3.7-10.1c-8.2,0-19.4,9.9-31.7,28.3l-15.2,39.2
			h-14.1l22.1-57.4c2.7-7.2,0.2-10.1-3.7-10.1c-8.2,0-19.5,10.1-32,28.8l-15,38.7h-14.2l22.7-58.4c2.2-5.8,1.4-8.2-2.9-10.4
			l-5.3-2.7l30.1-5.9L440.6,90z"/>
		<path d="M587.5,124.2H587c-12.8,18.9-24.8,29-34.1,29c-11.4,0-18.2-9.1-18.2-24.8c0-21,21.6-53,51.4-53c6.1,0,12,1.9,16.3,5.1
			l14.2-4.5l-22.7,58.1c-2.6,6.4-2.1,9.3,1.9,9.3s9.1-3.7,17.4-12.3l1.3,0.8c-11.2,14.7-19.8,21-28,21c-6.7,0-10.1-4.2-9-10.7
			l6.1-8.2L587.5,124.2z M559.3,143.4c6.6,0,16-8.5,25.9-23.7l12-30.4c-3.2-5.3-7.5-7.7-13.1-7.7c-18.2,0-34.4,28-34.4,46.4
			C549.7,138.4,553.1,143.4,559.3,143.4z"/>
		<path d="M684.4,143.4c4.5,0,10.2-4.8,17.4-12.3l1.3,0.8c-10.6,13.9-19,21-27.7,21c-8.2,0-11.8-6.7-6.7-19.2l16-39.2
			c3-7.4,0.2-10.1-4.5-10.1c-8.5,0-20,10.1-32.6,28.6l-15,38.9h-14.2l22.7-58.4c2.2-5.8,1.4-8.2-2.9-10.4l-5.3-2.7l30.1-5.9
			L656.6,90l-5.9,7.5l-3.5,9h0.3c13.8-19.7,27.5-31.2,38.4-31.2c13.6,0,17.9,8.8,12,22.7l-15.2,36.2
			C679.6,141.5,681.4,143.4,684.4,143.4z"/>
		<path d="M785.2,45l-5.3-2.7l29.6-5.1l-38.1,97c-2.6,6.4-2.1,9.3,1.9,9.3s9.1-3.7,17.4-12.3l1.3,0.8c-11.2,14.7-19.8,21-28,21
			c-6.7,0-10.1-4.2-9-10.7l6.1-8l4.2-10.6h-0.5c-13,19.5-25.4,29.6-35.4,29.6c-12.3,0-19.8-9.3-19.8-24.5
			c0-21.3,19.8-53.4,49.8-53.4c7,0,13.6,2.6,18.1,6.7l10.6-26.6C790.3,49.6,789.5,47.2,785.2,45z M735.9,143.4
			c6.9,0,16.8-8.6,27-24.5l11-27.7c-3.4-6.6-8-9.6-14.2-9.6c-19.4,0-35,29.9-35,47.2C724.7,138.8,728.7,143.4,735.9,143.4z"/>
		<path d="M827,153.3c-15.8,0-26.2-12-26.2-28.6c0-24,21-49.6,44.8-49.6c13.4,0,20.2,6.7,20.2,14.4c0,11.4-18.6,24.5-52.6,24.5
			l-0.5,3h4.2c-0.2,1.6-0.3,3-0.3,4.5c0,13,8,21.8,18.6,21.8c7.5,0,14.6-4,21.1-11.2l0.8,0.3C849.7,145.8,838.8,153.3,827,153.3z
			 M818.5,109.2c28.8-2.9,34.1-11.8,34.1-20c0-5.1-3.2-8.6-9-8.6C833.1,80.5,823.5,93,818.5,109.2z"/>
		<path d="M902.3,88.4l-7.4,9.8l-3.7,9.4h0.5c13-19.5,24.8-31.7,34.7-31.7c7.8,0,11.7,4.5,11.7,10.6c0,5.8-4.2,10.9-9.8,10.9
			c-4.5,0-7.7-2.7-7.7-6.7c0-2.1,1.1-4,1.6-4.3h2.7l1-2.6h-3.4c-7.8,0-17.8,10.2-29.6,28.6l-15.4,39.5h-14.2l22.7-58.4
			c2.2-5.8,1.4-8.2-2.9-10.4l-5.3-2.7l30.1-5.9L902.3,88.4z"/>
	</g>
</g>
</svg>
