<svg version="1.1" viewBox="0.0 0.0 304.1653543307087 303.38320209973756" fill="none" stroke="none" stroke-linecap="square" stroke-miterlimit="10" xmlns:xlink="http://www.w3.org/1999/xlink" xmlns="http://www.w3.org/2000/svg"><clipPath id="p.0"><path d="m0 0l304.16534 0l0 303.3832l-304.16534 0l0 -303.3832z" clip-rule="nonzero"/></clipPath><g clip-path="url(#p.0)"><path fill="#000000" fill-opacity="0.0" d="m0 0l304.16534 0l0 303.3832l-304.16534 0z" fill-rule="evenodd"/><defs><radialGradient id="p.1" gradientUnits="userSpaceOnUse" gradientTransform="matrix(6.533720170148936 0.0 0.0 6.533720170148936 0.0 0.0)" spreadMethod="pad" cx="30.26797322835041" cy="41.92524540212526" fx="30.26797322835041" fy="41.92524540212526" r="6.533720016479492"><stop offset="0.0" stop-color="#dbd4eb"/><stop offset="1.0" stop-color="#9180bb"/></radialGradient></defs><path fill="url(#p.1)" d="m185.26772 296.937l-23.427826 -17.178467l32.797913 -28.895035l39.04724 11.713913l-8.493439 34.414703z" fill-rule="evenodd"/><path stroke="#000000" stroke-width="1.0" stroke-linejoin="round" stroke-linecap="butt" d="m185.26772 296.937l-23.427826 -17.178467l32.797913 -28.895035l39.04724 11.713913l-8.493439 34.414703z" fill-rule="evenodd"/><defs><radialGradient id="p.2" gradientUnits="userSpaceOnUse" gradientTransform="matrix(7.9458075442038965 0.0 0.0 7.9458075442038965 0.0 0.0)" spreadMethod="pad" cx="34.00429717769356" cy="19.778171373119015" fx="34.00429717769356" fy="19.778171373119015" r="7.945807456970215"><stop offset="0.0" stop-color="#dbd4eb"/><stop offset="1.0" stop-color="#9180bb"/></radialGradient></defs><path fill="url(#p.2)" d="m297.3281 129.13911l-30.845154 -28.992134l-18.742783 28.895012l-4.6850433 46.073486l27.333344 39.044632l26.745392 -12.396332z" fill-rule="evenodd"/><path stroke="#000000" stroke-width="1.0" stroke-linejoin="round" stroke-linecap="butt" d="m297.3281 129.13911l-30.845154 -28.992134l-18.742783 28.895012l-4.6850433 46.073486l27.333344 39.044632l26.745392 -12.396332z" fill-rule="evenodd"/><path fill="#000000" fill-opacity="0.0" d="m8.0 8.0l288.9449 0l0 288.9449l-288.9449 0z" fill-rule="evenodd"/><path stroke="#000000" stroke-width="2.0" stroke-linejoin="round" stroke-linecap="butt" d="m8.0 8.0l288.9449 0l0 288.9449l-288.9449 0z" fill-rule="evenodd"/><defs><radialGradient id="p.3" gradientUnits="userSpaceOnUse" gradientTransform="matrix(10.409608008679141 0.0 0.0 10.409608008679141 0.0 0.0)" spreadMethod="pad" cx="7.257705448986508" cy="8.907957569524182" fx="7.257705448986508" fy="8.907957569524182" r="10.409607887268066"><stop offset="0.0" stop-color="#dbd4eb"/><stop offset="1.0" stop-color="#9180bb"/></radialGradient></defs><path fill="url(#p.3)" d="m90.7769 8.0l52.32283 34.35958l-24.989494 31.236221l-23.427826 58.569557l-35.921257 -1.5616913l-3.1233597 46.853027l-46.855644 -24.986877l-0.7821522 -144.46982z" fill-rule="evenodd"/><path stroke="#000000" stroke-width="1.0" stroke-linejoin="round" stroke-linecap="butt" d="m90.7769 8.0l52.32283 34.35958l-24.989494 31.236221l-23.427826 58.569557l-35.921257 -1.5616913l-3.1233597 46.853027l-46.855644 -24.986877l-0.7821522 -144.46982z" fill-rule="evenodd"/><path fill="#000000" fill-opacity="0.0" d="m13.666667 15.629921l30.456692 0l0 34.362206l-30.456692 0z" fill-rule="evenodd"/><path fill="#000000" d="m24.635416 47.66992l0 -17.1875l11.593752 0l0 2.03125l-9.312502 0l0 5.328125l8.062502 0l0 2.015625l-8.062502 0l0 7.8125l-2.28125 0z" fill-rule="nonzero"/><path fill="#000000" fill-opacity="0.0" d="m263.94226 126.25197l30.456696 0l0 34.362198l-30.456696 0z" fill-rule="evenodd"/><path fill="#000000" d="m274.911 158.29198l0 -17.1875l11.59375 0l0 2.03125l-9.3125 0l0 5.328125l8.0625 0l0 2.015625l-8.0625 0l0 7.8125l-2.28125 0z" fill-rule="nonzero"/><path fill="#000000" fill-opacity="0.0" d="m193.65889 260.9134l32.81891 0l0 36.031494l-32.81891 0z" fill-rule="evenodd"/><path fill="#000000" d="m204.62764 292.9534l0 -17.1875l11.59375 0l0 2.03125l-9.3125 0l0 5.328125l8.0625 0l0 2.015625l-8.0625 0l0 7.8125l-2.28125 0z" fill-rule="nonzero"/><defs><linearGradient id="p.4" gradientUnits="userSpaceOnUse" gradientTransform="matrix(3.199414129054667 -3.199414129511117 3.199414129511117 3.199414129054667 0.0 0.0)" spreadMethod="pad" x1="-13.731680692854894" y1="33.2700072531766" x2="-13.731693155559238" y2="36.46942138266345"><stop offset="0.0" stop-color="#dcecd5"/><stop offset="1.0" stop-color="#93bc81"/></linearGradient></defs><path fill="url(#p.4)" d="m66.52698 154.39365l0 -8.031494l8.031494 0l-2.0078735 2.0078735l6.2204742 6.2204742l-4.0157547 4.015747l-6.2204666 -6.2204742z" fill-rule="evenodd"/><path stroke="#434343" stroke-width="1.0" stroke-linejoin="round" stroke-linecap="butt" d="m66.52698 154.39365l0 -8.031494l8.031494 0l-2.0078735 2.0078735l6.2204742 6.2204742l-4.0157547 4.015747l-6.2204666 -6.2204742z" fill-rule="evenodd"/><path fill="#000000" fill-opacity="0.0" d="m246.56955 13.858268l32.81891 0l0 26.236221l-32.81891 0z" fill-rule="evenodd"/><path fill="#000000" d="m257.80392 45.89827l0 -17.187502l2.28125 0l0 17.187502l-2.28125 0z" fill-rule="nonzero"/><defs><linearGradient id="p.5" gradientUnits="userSpaceOnUse" gradientTransform="matrix(3.57637586450956 -1.9006525823072833 1.9006525823072833 3.57637586450956 0.0 0.0)" spreadMethod="pad" x1="1.4334949609564627" y1="40.71022607333858" x2="1.433481987131922" y2="44.286601937824614"><stop offset="0.0" stop-color="#dcecd5"/><stop offset="1.0" stop-color="#93bc81"/></linearGradient></defs><path fill="url(#p.5)" d="m85.16415 147.8784l2.344223 -7.668106l7.671524 2.3452759l-2.5039368 1.3307037l4.139496 7.780716l-5.0078735 2.6614227l-4.139496 -7.780716z" fill-rule="evenodd"/><path stroke="#434343" stroke-width="1.0" stroke-linejoin="round" stroke-linecap="butt" d="m85.16415 147.8784l2.344223 -7.668106l7.671524 2.3452759l-2.5039368 1.3307037l4.139496 7.780716l-5.0078735 2.6614227l-4.139496 -7.780716z" fill-rule="evenodd"/><defs><linearGradient id="p.6" gradientUnits="userSpaceOnUse" gradientTransform="matrix(1.8751502298423501 -3.5818737925048127 3.5818737925048127 1.8751502298423501 0.0 0.0)" spreadMethod="pad" x1="-31.35147835470636" y1="32.51014862911712" x2="-31.351493570004003" y2="36.09202242158961"><stop offset="0.0" stop-color="#dcecd5"/><stop offset="1.0" stop-color="#93bc81"/></linearGradient></defs><path fill="url(#p.6)" d="m62.68215 175.88838l-2.4017487 -7.6381073l7.6615906 -2.409134l-1.3149643 2.5118103l7.8187256 4.062668l-2.629921 5.023636l-7.818722 -4.062683z" fill-rule="evenodd"/><path stroke="#434343" stroke-width="1.0" stroke-linejoin="round" stroke-linecap="butt" d="m62.68215 175.88838l-2.4017487 -7.6381073l7.6615906 -2.409134l-1.3149643 2.5118103l7.8187256 4.062668l-2.629921 5.023636l-7.818722 -4.062683z" fill-rule="evenodd"/><defs><linearGradient id="p.7" gradientUnits="userSpaceOnUse" gradientTransform="matrix(0.0 3.8063407607526853 -3.8063407607526853 0.0 0.0 0.0)" spreadMethod="pad" x1="39.79821403969791" y1="-37.8829791835569" x2="39.798200571874986" y2="-34.07663842282804"><stop offset="0.0" stop-color="#fdecdb"/><stop offset="1.0" stop-color="#f0a963"/></linearGradient></defs><path fill="url(#p.7)" d="m138.5262 151.48557l5.669281 5.6692963l-5.669281 5.669281l0 -2.8346405l-8.818909 0l0 -5.6692963l8.818909 0z" fill-rule="evenodd"/><path stroke="#434343" stroke-width="1.0" stroke-linejoin="round" stroke-linecap="butt" d="m138.5262 151.48557l5.669281 5.6692963l-5.669281 5.669281l0 -2.8346405l-8.818909 0l0 -5.6692963l8.818909 0z" fill-rule="evenodd"/><defs><linearGradient id="p.8" gradientUnits="userSpaceOnUse" gradientTransform="matrix(-3.7140083368023027 1.2054237587338708 -1.2054237587338708 -3.7140083368023027 0.0 0.0)" spreadMethod="pad" x1="-7.04918473013842" y1="-60.02383679740966" x2="-7.04919785861172" y2="-56.30982846063056"><stop offset="0.0" stop-color="#fdecdb"/><stop offset="1.0" stop-color="#f0a963"/></linearGradient></defs><path fill="url(#p.8)" d="m96.78684 209.04591l-3.6395493 7.13443l-7.132103 -3.6383667l2.6929169 -0.87402344l-2.7261658 -8.4088745l5.385826 -1.7480316l2.7261658 8.4088745z" fill-rule="evenodd"/><path stroke="#434343" stroke-width="1.0" stroke-linejoin="round" stroke-linecap="butt" d="m96.78684 209.04591l-3.6395493 7.13443l-7.132103 -3.6383667l2.6929169 -0.87402344l-2.7261658 -8.4088745l5.385826 -1.7480316l2.7261658 8.4088745z" fill-rule="evenodd"/><defs><linearGradient id="p.9" gradientUnits="userSpaceOnUse" gradientTransform="matrix(-3.199415262367815 3.199415262367822 -3.199415262367822 -3.199415262367815 0.0 0.0)" spreadMethod="pad" x1="9.085821485896352" y1="-52.43319350818752" x2="9.085810156169144" y2="-49.23377824583976"><stop offset="0.0" stop-color="#fdecdb"/><stop offset="1.0" stop-color="#f0a963"/></linearGradient></defs><path fill="url(#p.9)" d="m134.67046 192.8091l0 8.031494l-8.031494 0l2.0078735 -2.0078735l-6.2204666 -6.2204742l4.015747 -4.015747l6.2204666 6.2204742z" fill-rule="evenodd"/><path stroke="#434343" stroke-width="1.0" stroke-linejoin="round" stroke-linecap="butt" d="m134.67046 192.8091l0 8.031494l-8.031494 0l2.0078735 -2.0078735l-6.2204666 -6.2204742l4.015747 -4.015747l6.2204666 6.2204742z" fill-rule="evenodd"/></g></svg>