<svg version="1.1" viewBox="0.0 0.0 304.1653543307087 303.38320209973756" fill="none" stroke="none" stroke-linecap="square" stroke-miterlimit="10" xmlns:xlink="http://www.w3.org/1999/xlink" xmlns="http://www.w3.org/2000/svg"><clipPath id="p.0"><path d="m0 0l304.16534 0l0 303.3832l-304.16534 0l0 -303.3832z" clip-rule="nonzero"/></clipPath><g clip-path="url(#p.0)"><path fill="#000000" fill-opacity="0.0" d="m0 0l304.16534 0l0 303.3832l-304.16534 0z" fill-rule="evenodd"/><path fill="#ffffff" d="m8.0 8.0l288.9449 0l0 288.9449l-288.9449 0z" fill-rule="evenodd"/><path stroke="#000000" stroke-width="2.0" stroke-linejoin="round" stroke-linecap="butt" d="m8.0 8.0l288.9449 0l0 288.9449l-288.9449 0z" fill-rule="evenodd"/><defs><radialGradient id="p.1" gradientUnits="userSpaceOnUse" gradientTransform="matrix(6.533720170148936 0.0 0.0 6.533720170148936 0.0 0.0)" spreadMethod="pad" cx="30.26797322835041" cy="41.92524540212526" fx="30.26797322835041" fy="41.92524540212526" r="6.533720016479492"><stop offset="0.0" stop-color="#dbd4eb"/><stop offset="1.0" stop-color="#9180bb"/></radialGradient></defs><path fill="url(#p.1)" d="m185.26772 296.937l-23.427826 -17.178467l32.797913 -28.895035l39.04724 11.713913l-8.493439 34.414703z" fill-rule="evenodd"/><path stroke="#000000" stroke-width="1.0" stroke-linejoin="round" stroke-linecap="butt" d="m185.26772 296.937l-23.427826 -17.178467l32.797913 -28.895035l39.04724 11.713913l-8.493439 34.414703z" fill-rule="evenodd"/><defs><radialGradient id="p.2" gradientUnits="userSpaceOnUse" gradientTransform="matrix(7.9458075442038965 0.0 0.0 7.9458075442038965 0.0 0.0)" spreadMethod="pad" cx="34.00429717769356" cy="19.778171373119015" fx="34.00429717769356" fy="19.778171373119015" r="7.945807456970215"><stop offset="0.0" stop-color="#dbd4eb"/><stop offset="1.0" stop-color="#9180bb"/></radialGradient></defs><path fill="url(#p.2)" d="m297.3281 129.13911l-30.845154 -28.992134l-18.742783 28.895012l-4.6850433 46.073486l27.333344 39.044632l26.745392 -12.396332z" fill-rule="evenodd"/><path stroke="#000000" stroke-width="1.0" stroke-linejoin="round" stroke-linecap="butt" d="m297.3281 129.13911l-30.845154 -28.992134l-18.742783 28.895012l-4.6850433 46.073486l27.333344 39.044632l26.745392 -12.396332z" fill-rule="evenodd"/><defs><radialGradient id="p.3" gradientUnits="userSpaceOnUse" gradientTransform="matrix(10.409608008679141 0.0 0.0 10.409608008679141 0.0 0.0)" spreadMethod="pad" cx="7.257705448986508" cy="8.907957569524182" fx="7.257705448986508" fy="8.907957569524182" r="10.409607887268066"><stop offset="0.0" stop-color="#dbd4eb"/><stop offset="1.0" stop-color="#9180bb"/></radialGradient></defs><path fill="url(#p.3)" d="m90.7769 8.0l52.32283 34.35958l-24.989494 31.236221l-23.427826 58.569557l-35.921257 -1.5616913l-3.1233597 46.853027l-46.855644 -24.986877l-0.7821522 -144.46982z" fill-rule="evenodd"/><path stroke="#000000" stroke-width="1.0" stroke-linejoin="round" stroke-linecap="butt" d="m90.7769 8.0l52.32283 34.35958l-24.989494 31.236221l-23.427826 58.569557l-35.921257 -1.5616913l-3.1233597 46.853027l-46.855644 -24.986877l-0.7821522 -144.46982z" fill-rule="evenodd"/><path fill="#000000" fill-opacity="0.0" d="m13.666667 15.629921l30.456692 0l0 34.362206l-30.456692 0z" fill-rule="evenodd"/><path fill="#000000" d="m24.635416 47.66992l0 -17.1875l11.593752 0l0 2.03125l-9.312502 0l0 5.328125l8.062502 0l0 2.015625l-8.062502 0l0 7.8125l-2.28125 0z" fill-rule="nonzero"/><path fill="#000000" fill-opacity="0.0" d="m263.94226 126.25197l30.456696 0l0 34.362198l-30.456696 0z" fill-rule="evenodd"/><path fill="#000000" d="m274.911 158.29198l0 -17.1875l11.59375 0l0 2.03125l-9.3125 0l0 5.328125l8.0625 0l0 2.015625l-8.0625 0l0 7.8125l-2.28125 0z" fill-rule="nonzero"/><path fill="#000000" fill-opacity="0.0" d="m193.65889 260.9134l32.81891 0l0 36.031494l-32.81891 0z" fill-rule="evenodd"/><path fill="#000000" d="m204.62764 292.9534l0 -17.1875l11.59375 0l0 2.03125l-9.3125 0l0 5.328125l8.0625 0l0 2.015625l-8.0625 0l0 7.8125l-2.28125 0z" fill-rule="nonzero"/><path fill="#000000" fill-opacity="0.0" d="m246.56955 13.858268l32.81891 0l0 26.236221l-32.81891 0z" fill-rule="evenodd"/><path fill="#000000" d="m257.80392 45.89827l0 -17.187502l2.28125 0l0 17.187502l-2.28125 0z" fill-rule="nonzero"/><path fill="#f2a100" d="m114.070816 128.29666l3.3791351 -12.4843445l12.494888 3.3819885l-3.9685135 2.275589l7.095665 12.350296l-7.937004 4.551178l-7.095665 -12.350296z" fill-rule="evenodd"/><path fill="#f2a100" d="m97.18728 179.58333l-12.509239 -3.347763l3.3438873 -12.494751l2.291336 3.9606323l12.325401 -7.1115417l4.5826797 7.9212494l-12.325401 7.111557z" fill-rule="evenodd"/><path fill="#f2a100" d="m121.1192 209.79323l-12.923676 0.87290955l-0.8716049 -12.904404l3.448822 3.0078735l9.375542 -10.717651l6.8976364 6.015747l-9.375542 10.717651z" fill-rule="evenodd"/><path fill="#f2a100" d="m175.3645 193.92696l-2.296524 12.749222l-12.727112 -2.2925262l3.7559052 -2.6141815l-8.107529 -11.691711l7.5118103 -5.228348l8.107544 11.691711z" fill-rule="evenodd"/><path fill="#f2a100" d="m169.81265 134.06876l12.146698 4.467453l-4.46167 12.130966l-1.9212494 -4.149597l-12.924164 5.963516l-3.842514 -8.29921l12.924149 -5.9635315z" fill-rule="evenodd"/><path fill="#008100" d="m70.60957 29.144411l-5.833267 11.540266l-11.552559 -5.8394775l4.3464584 -1.4251976l-4.447441 -13.514853l8.692913 -2.8503933l4.4474373 13.514851z" fill-rule="evenodd"/><path fill="#008100" d="m16.1447 105.83491l12.840868 -1.4564056l1.4583454 12.857979l-3.5748043 -2.8503876l-8.859919 11.142021l-7.1496077 -5.7007904l8.859921 -11.142021z" fill-rule="evenodd"/><path fill="#008100" d="m112.64804 56.392696l-12.235405 -4.203068l4.203911 -12.237877l2.0078735 4.1102333l12.788216 -6.250309l4.015747 8.22047l-12.788216 6.250313z" fill-rule="evenodd"/></g></svg>