<svg version="1.1" viewBox="0.0 0.0 420.40157480314963 335.03412073490813" fill="none" stroke="none" stroke-linecap="square" stroke-miterlimit="10" xmlns:xlink="http://www.w3.org/1999/xlink" xmlns="http://www.w3.org/2000/svg"><clipPath id="p.0"><path d="m0 0l420.40158 0l0 335.03412l-420.40158 0l0 -335.03412z" clip-rule="nonzero"/></clipPath><g clip-path="url(#p.0)"><path fill="#000000" fill-opacity="0.0" d="m0 0l420.40158 0l0 335.03412l-420.40158 0z" fill-rule="evenodd"/><defs><linearGradient id="p.1" gradientUnits="userSpaceOnUse" gradientTransform="matrix(7.664058936164201 0.0 0.0 7.664058936164201 0.0 0.0)" spreadMethod="pad" x1="28.13658163952388" y1="17.80780256638992" x2="28.136554884446035" y2="25.47186150250742"><stop offset="0.0" stop-color="#fff6db"/><stop offset="1.0" stop-color="#fad25c"/></linearGradient></defs><path fill="url(#p.1)" d="m227.44357 136.48032l-11.803146 34.27034l73.39369 24.467194l-0.2861023 -37.984253z" fill-rule="evenodd"/><path stroke="#000000" stroke-width="1.0" stroke-linejoin="round" stroke-linecap="butt" d="m227.44357 136.48032l-11.803146 34.27034l73.39369 24.467194l-0.2861023 -37.984253z" fill-rule="evenodd"/><defs><linearGradient id="p.2" gradientUnits="userSpaceOnUse" gradientTransform="matrix(11.611506963841066 0.0 0.0 11.611506963841066 0.0 0.0)" spreadMethod="pad" x1="20.495778660041754" y1="0.6889439680847074" x2="20.495736277430627" y2="12.300450931848424"><stop offset="0.0" stop-color="#fff6db"/><stop offset="1.0" stop-color="#fad25c"/></linearGradient></defs><path fill="url(#p.2)" d="m270.97113 8.0l-32.984253 99.32021l89.04199 35.506554z" fill-rule="evenodd"/><path stroke="#666666" stroke-width="1.0" stroke-linejoin="round" stroke-linecap="butt" d="m270.97113 8.0l-32.984253 99.32021l89.04199 35.506554z" fill-rule="evenodd"/><defs><linearGradient id="p.3" gradientUnits="userSpaceOnUse" gradientTransform="matrix(11.619084384111751 0.0 0.0 11.619084384111751 0.0 0.0)" spreadMethod="pad" x1="23.332054738460965" y1="0.7047439243021003" x2="23.332012383489783" y2="12.323828308336655"><stop offset="0.0" stop-color="#fff6db"/><stop offset="1.0" stop-color="#fad25c"/></linearGradient></defs><path fill="url(#p.3)" d="m327.2126 143.1916l81.39633 -34.052498l-137.51181 -100.950134z" fill-rule="evenodd"/><path stroke="#666666" stroke-width="1.0" stroke-linejoin="round" stroke-linecap="butt" d="m327.2126 143.1916l81.39633 -34.052498l-137.51181 -100.950134z" fill-rule="evenodd"/><defs><linearGradient id="p.4" gradientUnits="userSpaceOnUse" gradientTransform="matrix(13.766529970992229 0.0 0.0 13.766529970992229 0.0 0.0)" spreadMethod="pad" x1="23.76870562986272" y1="7.917733310876814" x2="23.76865498685543" y2="21.684263281775888"><stop offset="0.0" stop-color="#fff6db"/><stop offset="1.0" stop-color="#fad25c"/></linearGradient></defs><path fill="url(#p.4)" d="m329.2152 209.29134l73.74805 89.22572l5.7585144 -189.51706l-81.509186 34.010498z" fill-rule="evenodd"/><path stroke="#666666" stroke-width="1.0" stroke-linejoin="round" stroke-linecap="butt" d="m329.2152 209.29134l73.74805 89.22572l5.7585144 -189.51706l-81.509186 34.010498z" fill-rule="evenodd"/><defs><linearGradient id="p.5" gradientUnits="userSpaceOnUse" gradientTransform="matrix(14.306380628369528 0.0 0.0 14.306380628369528 0.0 0.0)" spreadMethod="pad" x1="7.149499738885822" y1="0.5646522132582141" x2="7.1494481403022565" y2="14.871032841534694"><stop offset="0.0" stop-color="#dbd4eb"/><stop offset="1.0" stop-color="#9180bb"/></linearGradient></defs><path fill="url(#p.5)" d="m270.9449 8.07874l-110.71391 22.580051l-57.94751 20.779528l10.603676 97.215225l88.86089 64.09711z" fill-rule="evenodd"/><path stroke="#666666" stroke-width="1.0" stroke-linejoin="round" stroke-linecap="butt" d="m270.9449 8.07874l-110.71391 22.580051l-57.94751 20.779528l10.603676 97.215225l88.86089 64.09711z" fill-rule="evenodd"/><defs><linearGradient id="p.6" gradientUnits="userSpaceOnUse" gradientTransform="matrix(13.151364362589613 0.0 0.0 13.151364362589613 0.0 0.0)" spreadMethod="pad" x1="0.6156861476612606" y1="3.909628086481545" x2="0.6156384954431491" y2="17.060992448984827"><stop offset="0.0" stop-color="#dbd4eb"/><stop offset="1.0" stop-color="#9180bb"/></linearGradient></defs><path fill="url(#p.6)" d="m102.32546 51.417324l-73.2021 25.85564l-21.026247 147.10237l104.608925 -75.72179z" fill-rule="evenodd"/><path stroke="#666666" stroke-width="1.0" stroke-linejoin="round" stroke-linecap="butt" d="m102.32546 51.417324l-73.2021 25.85564l-21.026247 147.10237l104.608925 -75.72179z" fill-rule="evenodd"/><defs><linearGradient id="p.7" gradientUnits="userSpaceOnUse" gradientTransform="matrix(11.378395703277985 0.0 0.0 11.378395703277985 0.0 0.0)" spreadMethod="pad" x1="0.703086815454598" y1="13.080629031019859" x2="0.7030456482459762" y2="24.459024734223373"><stop offset="0.0" stop-color="#dbd4eb"/><stop offset="1.0" stop-color="#9180bb"/></linearGradient></defs><path fill="url(#p.7)" d="m8.0 224.40683l96.874016 53.897644l97.05775 -66.645676l-89.409454 -62.821533z" fill-rule="evenodd"/><path stroke="#666666" stroke-width="1.0" stroke-linejoin="round" stroke-linecap="butt" d="m8.0 224.40683l96.874016 53.897644l97.05775 -66.645676l-89.409454 -62.821533z" fill-rule="evenodd"/><defs><linearGradient id="p.8" gradientUnits="userSpaceOnUse" gradientTransform="matrix(10.382732785378208 0.0 0.0 10.382732785378208 0.0 0.0)" spreadMethod="pad" x1="10.098029731113437" y1="20.35045613373321" x2="10.097992207299082" y2="30.733188919043613"><stop offset="0.0" stop-color="#fdecdb"/><stop offset="1.0" stop-color="#f0a963"/></linearGradient></defs><path fill="url(#p.8)" d="m104.845146 278.37534l89.61942 37.07611l83.03674 3.643036l-3.4042053 -66.71915l-72.349075 -41.081375z" fill-rule="evenodd"/><path stroke="#666666" stroke-width="1.0" stroke-linejoin="round" stroke-linecap="butt" d="m104.845146 278.37534l89.61942 37.07611l83.03674 3.643036l-3.4042053 -66.71915l-72.349075 -41.081375z" fill-rule="evenodd"/><defs><linearGradient id="p.9" gradientUnits="userSpaceOnUse" gradientTransform="matrix(9.072350741834123 0.0 0.0 9.072350741834123 0.0 0.0)" spreadMethod="pad" x1="22.237679873394793" y1="18.753824202453345" x2="22.237645970523428" y2="27.82617494422412"><stop offset="0.0" stop-color="#fdecdb"/><stop offset="1.0" stop-color="#f0a963"/></linearGradient></defs><path fill="url(#p.9)" d="m201.74803 211.6588l14.56955 -41.51706l112.90288 38.482925l-54.997375 43.824158z" fill-rule="evenodd"/><path stroke="#666666" stroke-width="1.0" stroke-linejoin="round" stroke-linecap="butt" d="m201.74803 211.6588l14.56955 -41.51706l112.90288 38.482925l-54.997375 43.824158z" fill-rule="evenodd"/><defs><linearGradient id="p.10" gradientUnits="userSpaceOnUse" gradientTransform="matrix(10.67673159753136 0.0 0.0 10.67673159753136 0.0 0.0)" spreadMethod="pad" x1="25.684180088995202" y1="19.551389233356527" x2="25.684141677896903" y2="30.228120830818796"><stop offset="0.0" stop-color="#fdecdb"/><stop offset="1.0" stop-color="#f0a963"/></linearGradient></defs><path fill="url(#p.10)" d="m277.5013 319.09448l76.11548 3.643036l49.527557 -23.67453l-74.11023 -90.31758l-54.811035 43.703415z" fill-rule="evenodd"/><path stroke="#666666" stroke-width="1.0" stroke-linejoin="round" stroke-linecap="butt" d="m277.5013 319.09448l76.11548 3.643036l49.527557 -23.67453l-74.11023 -90.31758l-54.811035 43.703415z" fill-rule="evenodd"/><path fill="#000000" d="m296.5328 152.30708l0 0c0 -4.4269714 3.5887756 -8.015747 8.015747 -8.015747l0 0c2.1259155 0 4.164734 0.84451294 5.6679993 2.347763c1.5032349 1.5032349 2.3477478 3.5420837 2.3477478 5.667984l0 0c0 4.4269714 -3.5887756 8.015747 -8.015747 8.015747l0 0c-4.4269714 0 -8.015747 -3.5887756 -8.015747 -8.015747z" fill-rule="evenodd"/><path stroke="#000000" stroke-width="2.0" stroke-linejoin="round" stroke-linecap="butt" d="m296.5328 152.30708l0 0c0 -4.4269714 3.5887756 -8.015747 8.015747 -8.015747l0 0c2.1259155 0 4.164734 0.84451294 5.6679993 2.347763c1.5032349 1.5032349 2.3477478 3.5420837 2.3477478 5.667984l0 0c0 4.4269714 -3.5887756 8.015747 -8.015747 8.015747l0 0c-4.4269714 0 -8.015747 -3.5887756 -8.015747 -8.015747z" fill-rule="evenodd"/><path fill="#000000" d="m246.83464 165.36876l0 0c0 -4.4269714 3.5887756 -8.015747 8.015747 -8.015747l0 0c2.1259003 0 4.164749 0.84451294 5.667984 2.347763c1.5032654 1.5032501 2.3477783 3.5420837 2.3477783 5.667984l0 0c0 4.4269867 -3.5887756 8.015762 -8.015762 8.015762l0 0c-4.4269714 0 -8.015747 -3.5887756 -8.015747 -8.015762z" fill-rule="evenodd"/><path stroke="#000000" stroke-width="2.0" stroke-linejoin="round" stroke-linecap="butt" d="m246.83464 165.36876l0 0c0 -4.4269714 3.5887756 -8.015747 8.015747 -8.015747l0 0c2.1259003 0 4.164749 0.84451294 5.667984 2.347763c1.5032654 1.5032501 2.3477783 3.5420837 2.3477783 5.667984l0 0c0 4.4269867 -3.5887756 8.015762 -8.015762 8.015762l0 0c-4.4269714 0 -8.015747 -3.5887756 -8.015747 -8.015762z" fill-rule="evenodd"/><defs><linearGradient id="p.11" gradientUnits="userSpaceOnUse" gradientTransform="matrix(10.083137430073084 0.0 0.0 10.083137430073084 0.0 0.0)" spreadMethod="pad" x1="22.55682530671976" y1="10.64662042809022" x2="22.556788701596528" y2="20.72975785809686"><stop offset="0.0" stop-color="#fff6db"/><stop offset="1.0" stop-color="#fad25c"/></linearGradient></defs><path fill="url(#p.11)" d="m237.34383 107.35171l90.05513 35.41207l1.7138977 66.25722l-40.74539 -14.089233l0.19158936 -37.50656l-61.11548 -20.75328z" fill-rule="evenodd"/><path stroke="#ff9900" stroke-width="3.0" stroke-linejoin="round" stroke-linecap="butt" d="m237.34383 107.35171l90.05513 35.41207l1.7138977 66.25722l-40.74539 -14.089233l0.19158936 -37.50656l-61.11548 -20.75328z" fill-rule="evenodd"/><path fill="#000000" d="m263.32547 86.81628l0 0c0 -4.426979 3.5887756 -8.015755 8.015747 -8.015755l0 0c2.125885 0 4.164734 0.84452057 5.6679688 2.347763c1.5032654 1.5032425 2.3477783 3.542076 2.3477783 5.6679916l0 0c0 4.4269714 -3.5887756 8.015747 -8.015747 8.015747l0 0c-4.4269714 0 -8.015747 -3.5887756 -8.015747 -8.015747z" fill-rule="evenodd"/><path stroke="#000000" stroke-width="2.0" stroke-linejoin="round" stroke-linecap="butt" d="m263.32547 86.81628l0 0c0 -4.426979 3.5887756 -8.015755 8.015747 -8.015755l0 0c2.125885 0 4.164734 0.84452057 5.6679688 2.347763c1.5032654 1.5032425 2.3477783 3.542076 2.3477783 5.6679916l0 0c0 4.4269714 -3.5887756 8.015747 -8.015747 8.015747l0 0c-4.4269714 0 -8.015747 -3.5887756 -8.015747 -8.015747z" fill-rule="evenodd"/><path fill="#000000" d="m359.95145 178.15749l0 0c0 -4.4269867 3.5887756 -8.015747 8.015747 -8.015747l0 0c2.1259155 0 4.164734 0.84451294 5.6679993 2.3477478c1.5032349 1.5032501 2.3477478 3.5420837 2.3477478 5.6679993l0 0c0 4.4269714 -3.5887756 8.015747 -8.015747 8.015747l0 0c-4.4269714 0 -8.015747 -3.5887756 -8.015747 -8.015747z" fill-rule="evenodd"/><path stroke="#000000" stroke-width="2.0" stroke-linejoin="round" stroke-linecap="butt" d="m359.95145 178.15749l0 0c0 -4.4269867 3.5887756 -8.015747 8.015747 -8.015747l0 0c2.1259155 0 4.164734 0.84451294 5.6679993 2.3477478c1.5032349 1.5032501 2.3477478 3.5420837 2.3477478 5.6679993l0 0c0 4.4269714 -3.5887756 8.015747 -8.015747 8.015747l0 0c-4.4269714 0 -8.015747 -3.5887756 -8.015747 -8.015747z" fill-rule="evenodd"/><path fill="#000000" d="m325.34515 88.68241l0 0c0 -4.4269714 3.5887756 -8.015747 8.015747 -8.015747l0 0c2.125885 0 4.164734 0.84451294 5.6679688 2.347763c1.5032654 1.5032425 2.3477783 3.542076 2.3477783 5.667984l0 0c0 4.426979 -3.5887756 8.015755 -8.015747 8.015755l0 0c-4.4269714 0 -8.015747 -3.5887756 -8.015747 -8.015755z" fill-rule="evenodd"/><path stroke="#000000" stroke-width="2.0" stroke-linejoin="round" stroke-linecap="butt" d="m325.34515 88.68241l0 0c0 -4.4269714 3.5887756 -8.015747 8.015747 -8.015747l0 0c2.125885 0 4.164734 0.84451294 5.6679688 2.347763c1.5032654 1.5032425 2.3477783 3.542076 2.3477783 5.667984l0 0c0 4.426979 -3.5887756 8.015755 -8.015747 8.015755l0 0c-4.4269714 0 -8.015747 -3.5887756 -8.015747 -8.015755z" fill-rule="evenodd"/><path fill="#000000" fill-opacity="0.0" d="m279.35696 86.81628l45.984253 1.8582611" fill-rule="evenodd"/><path stroke="#000000" stroke-width="2.0" stroke-linejoin="round" stroke-linecap="butt" stroke-dasharray="8.0,6.0" d="m279.35696 86.81628l45.984253 1.8582611" fill-rule="evenodd"/><path fill="#000000" fill-opacity="0.0" d="m339.02887 94.3504l28.944885 75.779526" fill-rule="evenodd"/><path stroke="#000000" stroke-width="2.0" stroke-linejoin="round" stroke-linecap="butt" stroke-dasharray="8.0,6.0" d="m339.02887 94.3504l28.944885 75.779526" fill-rule="evenodd"/><path fill="#000000" fill-opacity="0.0" d="m367.9672 186.17323l-36.566925 80.755905" fill-rule="evenodd"/><path stroke="#000000" stroke-width="2.0" stroke-linejoin="round" stroke-linecap="butt" stroke-dasharray="8.0,6.0" d="m367.9672 186.17323l-36.566925 80.755905" fill-rule="evenodd"/><path fill="#000000" fill-opacity="0.0" d="m273.28873 219.23886l46.771637 47.685028" fill-rule="evenodd"/><path stroke="#000000" stroke-width="2.0" stroke-linejoin="round" stroke-linecap="butt" stroke-dasharray="8.0,6.0" d="m273.28873 219.23886l46.771637 47.685028" fill-rule="evenodd"/><path fill="#000000" fill-opacity="0.0" d="m261.95276 207.90288l-81.44884 -97.039375" fill-rule="evenodd"/><path stroke="#000000" stroke-width="2.0" stroke-linejoin="round" stroke-linecap="butt" stroke-dasharray="8.0,6.0" d="m261.95276 207.90288l-81.44884 -97.039375" fill-rule="evenodd"/><path fill="#000000" fill-opacity="0.0" d="m267.62073 205.55511l-7.086609 -34.519684" fill-rule="evenodd"/><path stroke="#000000" stroke-width="2.0" stroke-linejoin="round" stroke-linecap="butt" stroke-dasharray="8.0,6.0" d="m267.62073 205.55511l-7.086609 -34.519684" fill-rule="evenodd"/><path fill="#000000" fill-opacity="0.0" d="m186.17192 97.17978l77.16536 -10.3622055" fill-rule="evenodd"/><path stroke="#000000" stroke-width="2.0" stroke-linejoin="round" stroke-linecap="butt" stroke-dasharray="8.0,6.0" d="m186.17192 97.17978l77.16536 -10.3622055" fill-rule="evenodd"/><path fill="#000000" fill-opacity="0.0" d="m249.1824 159.70078l-63.02362 -51.1811" fill-rule="evenodd"/><path stroke="#000000" stroke-width="2.0" stroke-linejoin="round" stroke-linecap="butt" stroke-dasharray="8.0,6.0" d="m249.1824 159.70078l-63.02362 -51.1811" fill-rule="evenodd"/><path fill="#000000" fill-opacity="0.0" d="m273.28873 207.90288l86.677155 -29.732285" fill-rule="evenodd"/><path stroke="#000000" stroke-width="2.0" stroke-linejoin="round" stroke-linecap="butt" stroke-dasharray="8.0,6.0" d="m273.28873 207.90288l86.677155 -29.732285" fill-rule="evenodd"/><path fill="#666666" d="m172.48819 102.84777l0 0c0 -4.426979 3.5887756 -8.015747 8.015747 -8.015747l0 0c2.1259155 0 4.164749 0.84451294 5.667984 2.3477554c1.5032501 1.5032425 2.347763 3.5420837 2.347763 5.6679916l0 0c0 4.4269714 -3.5887756 8.015747 -8.015747 8.015747l0 0c-4.4269714 0 -8.015747 -3.5887756 -8.015747 -8.015747z" fill-rule="evenodd"/><path stroke="#666666" stroke-width="2.0" stroke-linejoin="round" stroke-linecap="butt" d="m172.48819 102.84777l0 0c0 -4.426979 3.5887756 -8.015747 8.015747 -8.015747l0 0c2.1259155 0 4.164749 0.84451294 5.667984 2.3477554c1.5032501 1.5032425 2.347763 3.5420837 2.347763 5.6679916l0 0c0 4.4269714 -3.5887756 8.015747 -8.015747 8.015747l0 0c-4.4269714 0 -8.015747 -3.5887756 -8.015747 -8.015747z" fill-rule="evenodd"/><path fill="#666666" d="m259.60498 213.57086l0 0c0 -4.4269714 3.5887756 -8.015747 8.015747 -8.015747l0 0c2.1259155 0 4.1647644 0.84451294 5.6679993 2.347763c1.5032349 1.5032501 2.3477478 3.5420837 2.3477478 5.667984l0 0c0 4.4269867 -3.5887756 8.015747 -8.015747 8.015747l0 0c-4.4269714 0 -8.015747 -3.5887604 -8.015747 -8.015747z" fill-rule="evenodd"/><path stroke="#666666" stroke-width="2.0" stroke-linejoin="round" stroke-linecap="butt" d="m259.60498 213.57086l0 0c0 -4.4269714 3.5887756 -8.015747 8.015747 -8.015747l0 0c2.1259155 0 4.1647644 0.84451294 5.6679993 2.347763c1.5032349 1.5032501 2.3477478 3.5420837 2.3477478 5.667984l0 0c0 4.4269867 -3.5887756 8.015747 -8.015747 8.015747l0 0c-4.4269714 0 -8.015747 -3.5887604 -8.015747 -8.015747z" fill-rule="evenodd"/><path fill="#666666" d="m317.7152 272.5971l0 0c0 -4.4269714 3.5887756 -8.015747 8.015747 -8.015747l0 0c2.1259155 0 4.1647644 0.84451294 5.6679993 2.3477783c1.5032349 1.5032349 2.3477478 3.5420532 2.3477478 5.6679688l0 0c0 4.4269714 -3.588745 8.015747 -8.015747 8.015747l0 0c-4.4269714 0 -8.015747 -3.5887756 -8.015747 -8.015747z" fill-rule="evenodd"/><path stroke="#666666" stroke-width="2.0" stroke-linejoin="round" stroke-linecap="butt" d="m317.7152 272.5971l0 0c0 -4.4269714 3.5887756 -8.015747 8.015747 -8.015747l0 0c2.1259155 0 4.1647644 0.84451294 5.6679993 2.3477783c1.5032349 1.5032349 2.3477478 3.5420532 2.3477478 5.6679688l0 0c0 4.4269714 -3.588745 8.015747 -8.015747 8.015747l0 0c-4.4269714 0 -8.015747 -3.5887756 -8.015747 -8.015747z" fill-rule="evenodd"/></g></svg>