<svg version="1.1" viewBox="0.0 0.0 577.2204724409448 295.38582677165357" fill="none" stroke="none" stroke-linecap="square" stroke-miterlimit="10" xmlns:xlink="http://www.w3.org/1999/xlink" xmlns="http://www.w3.org/2000/svg"><clipPath id="p.0"><path d="m0 0l577.22046 0l0 295.38583l-577.22046 0l0 -295.38583z" clip-rule="nonzero"/></clipPath><g clip-path="url(#p.0)"><path fill="#000000" fill-opacity="0.0" d="m0 0l577.22046 0l0 295.38583l-577.22046 0z" fill-rule="evenodd"/><path fill="#000000" fill-opacity="0.0" d="m509.43307 234.14174l-73.79266 9.312332l-42.007874 -15.86615l-17.566925 -28.005249l-9.10498 -42.312332l-48.795288 -36.942253l22.194244 -45.55381" fill-rule="evenodd"/><path stroke="#9a45ff" stroke-width="2.0" stroke-linejoin="round" stroke-linecap="butt" stroke-dasharray="2.0,6.0" d="m509.43307 234.14174l-73.79266 9.312332l-42.007874 -15.86615l-17.566925 -28.005249l-9.10498 -42.312332l-48.795288 -36.942253l22.194244 -45.55381" fill-rule="evenodd"/><path fill="#000000" fill-opacity="0.0" d="m55.322834 65.35695l8.66061 57.36248l15.875763 41.128273l15.154037 24.894058l20.925758 8.659866l15.875755 9.739304l12.267181 -5.409378l18.040909 22.72911l25.977783 9.739304l24.536362 3.2474518l24.534348 1.0824738" fill-rule="evenodd"/><path stroke="#595959" stroke-width="3.0" stroke-linejoin="round" stroke-linecap="butt" d="m55.322834 65.35695l8.660614 57.36248l15.875759 41.128273l15.154037 24.894058l20.925766 8.659882l15.875748 9.739288l12.267181 -5.409363l18.040909 22.72908l25.977768 9.739319l24.536377 3.2474365l6.551834 0.28907776" fill-rule="evenodd"/><path fill="#595959" stroke="#595959" stroke-width="3.0" stroke-linecap="butt" d="m218.97041 242.68686l13.819489 -4.350281l-13.382645 -5.550476z" fill-rule="evenodd"/><path fill="#000000" fill-opacity="0.0" d="m6.774278 251.34908l0 -191.71652l41.29134 0l0 191.71652z" fill-rule="evenodd"/><path fill="#434343" d="m36.254276 177.50066l-15.265623 0l0 -11.03125l1.796875 0l0 9.015625l4.671875 0l0 -8.453125l1.796875 0l0 8.453125l5.203123 0l0 -9.375l1.796875 0l0 11.390625zm0 -13.928818l-11.062498 0l0 -1.6875l1.671875 0q-1.171875 -0.640625 -1.546875 -1.1875q-0.375 -0.546875 -0.375 -1.203125q0 -0.953125 0.609375 -1.921875l1.734375 0.640625q-0.40625 0.6875 -0.40625 1.375q0 0.609375 0.375 1.109375q0.359375 0.484375 1.015625 0.6875q1.0 0.3125 2.1875 0.3125l5.796873 0l0 1.875zm0 -7.1024323l-11.062498 0l0 -1.6875l1.671875 0q-1.171875 -0.640625 -1.546875 -1.1875q-0.375 -0.546875 -0.375 -1.203125q0 -0.953125 0.609375 -1.921875l1.734375 0.640625q-0.40625 0.6875 -0.40625 1.375q0 0.609375 0.375 1.109375q0.359375 0.484375 1.015625 0.6875q1.0 0.3125 2.1875 0.3125l5.796873 0l0 1.875zm-5.531248 -6.4149323q-3.078125 0 -4.546875 -1.71875q-1.234375 -1.421875 -1.234375 -3.46875q0 -2.28125 1.5 -3.71875q1.484375 -1.453125 4.125 -1.453125q2.140623 0 3.359373 0.640625q1.21875 0.625 1.90625 1.859375q0.671875 1.21875 0.671875 2.671875q0 2.3125 -1.484375 3.75q-1.5 1.4375 -4.296873 1.4375zm0 -1.9375q2.124998 0 3.187498 -0.921875q1.046875 -0.921875 1.046875 -2.328125q0 -1.40625 -1.0625 -2.328125q-1.0625 -0.921875 -3.234373 -0.921875q-2.046875 0 -3.109375 0.9375q-1.0625 0.921875 -1.0625 2.3125q0 1.40625 1.0625 2.328125q1.046875 0.921875 3.171875 0.921875zm5.531248 -10.611694l-11.062498 0l0 -1.6875l1.671875 0q-1.171875 -0.640625 -1.546875 -1.1875q-0.375 -0.546875 -0.375 -1.203125q0 -0.953125 0.609375 -1.921875l1.734375 0.640625q-0.40625 0.6875 -0.40625 1.375q0 0.609375 0.375 1.109375q0.359375 0.484375 1.015625 0.6875q1.0 0.3125 2.1875 0.3125l5.796873 0l0 1.875z" fill-rule="nonzero"/><path fill="#000000" fill-opacity="0.0" d="m48.065617 250.00131l184.66142 0l0 41.95276l-184.66142 0z" fill-rule="evenodd"/><path fill="#434343" d="m114.08006 274.57507l1.90625 -0.171875q0.140625 1.15625 0.625 1.890625q0.5 0.734375 1.546875 1.1875q1.046875 0.453125 2.34375 0.453125q1.15625 0 2.03125 -0.34375q0.890625 -0.34375 1.3125 -0.9375q0.4375 -0.609375 0.4375 -1.3125q0 -0.71875 -0.421875 -1.25q-0.40625 -0.546875 -1.359375 -0.90625q-0.609375 -0.25 -2.71875 -0.75q-2.109375 -0.5 -2.953125 -0.953125q-1.09375 -0.578125 -1.625 -1.421875q-0.53125 -0.84375 -0.53125 -1.890625q0 -1.15625 0.65625 -2.15625q0.65625 -1.015625 1.90625 -1.53125q1.265625 -0.53125 2.8125 -0.53125q1.6875 0 2.984375 0.546875q1.296875 0.546875 1.984375 1.609375q0.703125 1.0625 0.765625 2.40625l-1.9375 0.15625q-0.15625 -1.453125 -1.0625 -2.1875q-0.890625 -0.75 -2.65625 -0.75q-1.828125 0 -2.671875 0.671875q-0.84375 0.671875 -0.84375 1.625q0 0.8125 0.59375 1.34375q0.59375 0.53125 3.046875 1.09375q2.46875 0.5625 3.390625 0.96875q1.328125 0.625 1.953125 1.5625q0.640625 0.9375 0.640625 2.171875q0 1.21875 -0.703125 2.296875q-0.6875 1.078125 -2.0 1.6875q-1.296875 0.59375 -2.9375 0.59375q-2.078125 0 -3.484375 -0.609375q-1.390625 -0.609375 -2.1875 -1.8125q-0.796875 -1.21875 -0.84375 -2.75zm18.772568 3.234375l0.265625 1.65625q-0.78125 0.15625 -1.40625 0.15625q-1.03125 0 -1.59375 -0.3125q-0.5625 -0.328125 -0.796875 -0.84375q-0.21875 -0.53125 -0.21875 -2.21875l0 -6.375l-1.375 0l0 -1.453125l1.375 0l0 -2.734375l1.859375 -1.125l0 3.859375l1.890625 0l0 1.453125l-1.890625 0l0 6.46875q0 0.8125 0.09375 1.046875q0.109375 0.21875 0.328125 0.359375q0.234375 0.125 0.640625 0.125q0.3125 0 0.828125 -0.0625zm9.410019 -1.890625l1.921875 0.234375q-0.453125 1.703125 -1.6875 2.640625q-1.234375 0.9375 -3.171875 0.9375q-2.421875 0 -3.84375 -1.484375q-1.421875 -1.5 -1.421875 -4.203125q0 -2.796875 1.4375 -4.328125q1.4375 -1.546875 3.734375 -1.546875q2.21875 0 3.609375 1.515625q1.40625 1.5 1.40625 4.25q0 0.15625 0 0.5l-8.25 0q0.109375 1.8125 1.03125 2.78125q0.921875 0.96875 2.3125 0.96875q1.03125 0 1.75 -0.53125q0.734375 -0.546875 1.171875 -1.734375zm-6.15625 -3.03125l6.171875 0q-0.125 -1.390625 -0.703125 -2.09375q-0.90625 -1.078125 -2.328125 -1.078125q-1.296875 0 -2.171875 0.859375q-0.875 0.859375 -0.96875 2.3125zm10.439819 10.828125l0 -15.296875l1.703125 0l0 1.4375q0.609375 -0.84375 1.359375 -1.265625q0.765625 -0.421875 1.859375 -0.421875q1.40625 0 2.484375 0.734375q1.09375 0.71875 1.640625 2.046875q0.546875 1.328125 0.546875 2.921875q0 1.6875 -0.609375 3.046875q-0.59375 1.359375 -1.765625 2.09375q-1.15625 0.71875 -2.4375 0.71875q-0.9375 0 -1.6875 -0.390625q-0.734375 -0.40625 -1.21875 -1.0l0 5.375l-1.875 0zm1.703125 -9.703125q0 2.140625 0.859375 3.15625q0.859375 1.015625 2.09375 1.015625q1.25 0 2.140625 -1.046875q0.890625 -1.0625 0.890625 -3.28125q0 -2.109375 -0.875 -3.15625q-0.859375 -1.0625 -2.078125 -1.0625q-1.1875 0 -2.109375 1.125q-0.921875 1.109375 -0.921875 3.25zm9.408569 2.171875l1.859375 -0.296875q0.15625 1.109375 0.859375 1.703125q0.71875 0.59375 2.0 0.59375q1.296875 0 1.921875 -0.515625q0.625 -0.53125 0.625 -1.234375q0 -0.640625 -0.5625 -1.0q-0.375 -0.25 -1.90625 -0.640625q-2.0625 -0.515625 -2.859375 -0.890625q-0.796875 -0.390625 -1.21875 -1.0625q-0.40625 -0.671875 -0.40625 -1.484375q0 -0.734375 0.328125 -1.359375q0.34375 -0.640625 0.9375 -1.0625q0.4375 -0.3125 1.1875 -0.53125q0.75 -0.234375 1.625 -0.234375q1.296875 0 2.28125 0.375q0.984375 0.375 1.453125 1.015625q0.46875 0.640625 0.640625 1.71875l-1.828125 0.25q-0.125 -0.859375 -0.734375 -1.328125q-0.59375 -0.484375 -1.6875 -0.484375q-1.28125 0 -1.84375 0.421875q-0.546875 0.421875 -0.546875 1.0q0 0.359375 0.234375 0.65625q0.21875 0.296875 0.71875 0.5q0.28125 0.109375 1.65625 0.484375q1.984375 0.53125 2.765625 0.875q0.796875 0.328125 1.234375 0.984375q0.453125 0.640625 0.453125 1.59375q0 0.9375 -0.546875 1.765625q-0.546875 0.828125 -1.578125 1.28125q-1.03125 0.453125 -2.328125 0.453125q-2.15625 0 -3.296875 -0.890625q-1.125 -0.90625 -1.4375 -2.65625z" fill-rule="nonzero"/><path fill="#000000" fill-opacity="0.0" d="m48.06824 48.811024l0 201.24731l202.71043 1.1501312" fill-rule="evenodd"/><path stroke="#666666" stroke-width="1.0" stroke-linejoin="round" stroke-linecap="butt" d="m48.06824 54.811024l0 195.24731l196.71053 1.1160889" fill-rule="evenodd"/><path fill="#666666" stroke="#666666" stroke-width="1.0" stroke-linecap="butt" d="m49.719975 54.811024l-1.6517334 -4.5380974l-1.6517334 4.5380974z" fill-rule="evenodd"/><path fill="#666666" stroke="#666666" stroke-width="1.0" stroke-linecap="butt" d="m244.7694 252.82613l4.547394 -1.6259613l-4.528656 -1.6774597z" fill-rule="evenodd"/><path fill="#000000" fill-opacity="0.0" d="m305.6141 48.115486l0 203.30734l214.93027 1.5927277" fill-rule="evenodd"/><path stroke="#595959" stroke-width="1.0" stroke-linejoin="round" stroke-linecap="butt" d="m305.6141 54.115486l0 197.30734l208.93039 1.5482788" fill-rule="evenodd"/><path fill="#595959" stroke="#595959" stroke-width="1.0" stroke-linecap="butt" d="m307.26584 54.115486l-1.6517334 -4.5380974l-1.6517334 4.5380974z" fill-rule="evenodd"/><path fill="#595959" stroke="#595959" stroke-width="1.0" stroke-linecap="butt" d="m514.5323 254.62279l4.550171 -1.6180573l-4.525696 -1.685318z" fill-rule="evenodd"/><path fill="#000000" fill-opacity="0.0" d="m260.8504 252.18898l0 -199.3386l44.75589 0l0 199.3386z" fill-rule="evenodd"/><path fill="#434343" d="m290.33038 185.19359l-15.265625 0l0 -11.03125l1.796875 0l0 9.015625l4.671875 0l0 -8.453125l1.796875 0l0 8.453125l5.203125 0l0 -9.375l1.796875 0l0 11.390625zm0 -13.928818l-11.0625 0l0 -1.6875l1.671875 0q-1.171875 -0.640625 -1.546875 -1.1875q-0.375 -0.546875 -0.375 -1.203125q0 -0.953125 0.609375 -1.921875l1.734375 0.640625q-0.40625 0.6875 -0.40625 1.375q0 0.609375 0.375 1.109375q0.359375 0.484375 1.015625 0.6875q1.0 0.3125 2.1875 0.3125l5.796875 0l0 1.875zm0 -7.1024323l-11.0625 0l0 -1.6875l1.671875 0q-1.171875 -0.640625 -1.546875 -1.1875q-0.375 -0.546875 -0.375 -1.203125q0 -0.953125 0.609375 -1.921875l1.734375 0.640625q-0.40625 0.6875 -0.40625 1.375q0 0.609375 0.375 1.109375q0.359375 0.484375 1.015625 0.6875q1.0 0.3125 2.1875 0.3125l5.796875 0l0 1.875zm-5.53125 -6.4149323q-3.078125 0 -4.546875 -1.71875q-1.234375 -1.421875 -1.234375 -3.46875q0 -2.28125 1.5 -3.71875q1.484375 -1.453125 4.125 -1.453125q2.140625 0 3.359375 0.640625q1.21875 0.625 1.90625 1.859375q0.671875 1.21875 0.671875 2.671875q0 2.3125 -1.484375 3.75q-1.5 1.4375 -4.296875 1.4375zm0 -1.9375q2.125 0 3.1875 -0.921875q1.046875 -0.921875 1.046875 -2.328125q0 -1.40625 -1.0625 -2.328125q-1.0625 -0.921875 -3.234375 -0.921875q-2.046875 0 -3.109375 0.9375q-1.0625 0.921875 -1.0625 2.3125q0 1.40625 1.0625 2.328125q1.046875 0.921875 3.171875 0.921875zm5.53125 -10.611694l-11.0625 0l0 -1.6875l1.671875 0q-1.171875 -0.640625 -1.546875 -1.1875q-0.375 -0.546875 -0.375 -1.203125q0 -0.953125 0.609375 -1.921875l1.734375 0.640625q-0.40625 0.6875 -0.40625 1.375q0 0.609375 0.375 1.109375q0.359375 0.484375 1.015625 0.6875q1.0 0.3125 2.1875 0.3125l5.796875 0l0 1.875zm-4.578125 -6.3836823l-1.890625 0l0 -5.765625l1.890625 0l0 5.765625zm4.578125 -6.3993073l-15.265625 -5.8593674l0 -2.1875l15.265625 -6.2343674l0 2.296875l-4.625 1.78125l0 6.3749847l4.625 1.6875l0 2.140625zm-6.265625 -4.40625l0 -5.1718597l-4.234375 1.5937424q-1.921875 0.71875 -3.15625 1.078125q1.46875 0.296875 2.90625 0.828125l4.484375 1.6718674z" fill-rule="nonzero"/><path fill="#000000" fill-opacity="0.0" d="m306.3349 252.21129l214.92914 0l0 41.952744l-214.92914 0z" fill-rule="evenodd"/><path fill="#434343" d="m381.12555 281.69128l0 -15.265625l11.03125 0l0 1.796875l-9.015625 0l0 4.671875l8.453125 0l0 1.796875l-8.453125 0l0 5.203125l9.375 0l0 1.796875l-11.390625 0zm13.928833 0l0 -11.0625l1.6875 0l0 1.671875q0.640625 -1.171875 1.1875 -1.546875q0.546875 -0.375 1.203125 -0.375q0.953125 0 1.921875 0.609375l-0.640625 1.734375q-0.6875 -0.40625 -1.375 -0.40625q-0.609375 0 -1.109375 0.375q-0.484375 0.359375 -0.6875 1.015625q-0.3125 1.0 -0.3125 2.1875l0 5.796875l-1.875 0zm7.102417 0l0 -11.0625l1.6875 0l0 1.671875q0.640625 -1.171875 1.1875 -1.546875q0.546875 -0.375 1.203125 -0.375q0.953125 0 1.921875 0.609375l-0.640625 1.734375q-0.6875 -0.40625 -1.375 -0.40625q-0.609375 0 -1.109375 0.375q-0.484375 0.359375 -0.6875 1.015625q-0.3125 1.0 -0.3125 2.1875l0 5.796875l-1.875 0zm6.4149475 -5.53125q0 -3.078125 1.71875 -4.546875q1.421875 -1.234375 3.46875 -1.234375q2.28125 0 3.71875 1.5q1.453125 1.484375 1.453125 4.125q0 2.140625 -0.640625 3.359375q-0.625 1.21875 -1.859375 1.90625q-1.21875 0.671875 -2.671875 0.671875q-2.3125 0 -3.75 -1.484375q-1.4375 -1.5 -1.4375 -4.296875zm1.9375 0q0 2.125 0.921875 3.1875q0.921875 1.046875 2.328125 1.046875q1.40625 0 2.328125 -1.0625q0.921875 -1.0625 0.921875 -3.234375q0 -2.046875 -0.9375 -3.109375q-0.921875 -1.0625 -2.3125 -1.0625q-1.40625 0 -2.328125 1.0625q-0.921875 1.046875 -0.921875 3.171875zm10.611694 5.53125l0 -11.0625l1.6875 0l0 1.671875q0.640625 -1.171875 1.1875 -1.546875q0.546875 -0.375 1.203125 -0.375q0.953125 0 1.921875 0.609375l-0.640625 1.734375q-0.6875 -0.40625 -1.375 -0.40625q-0.609375 0 -1.109375 0.375q-0.484375 0.359375 -0.6875 1.015625q-0.3125 1.0 -0.3125 2.1875l0 5.796875l-1.875 0zm6.383667 -4.578125l0 -1.890625l5.765625 0l0 1.890625l-5.765625 0zm7.9930725 4.578125l0 -15.265625l5.734375 0q1.75 0 2.796875 0.46875q1.0625 0.453125 1.65625 1.421875q0.59375 0.96875 0.59375 2.015625q0 0.96875 -0.53125 1.84375q-0.53125 0.859375 -1.59375 1.390625q1.375 0.40625 2.125 1.390625q0.75 0.96875 0.75 2.3125q0 1.0625 -0.453125 1.984375q-0.453125 0.921875 -1.125 1.421875q-0.671875 0.5 -1.671875 0.765625q-1.0 0.25 -2.453125 0.25l-5.828125 0zm2.015625 -8.859375l3.3125 0q1.34375 0 1.921875 -0.171875q0.765625 -0.234375 1.15625 -0.765625q0.390625 -0.53125 0.390625 -1.328125q0 -0.75 -0.359375 -1.328125q-0.359375 -0.578125 -1.046875 -0.796875q-0.671875 -0.21875 -2.3125 -0.21875l-3.0625 0l0 4.609375zm0 7.0625l3.8125 0q0.96875 0 1.375 -0.078125q0.6875 -0.125 1.15625 -0.40625q0.46875 -0.296875 0.765625 -0.859375q0.3125 -0.5625 0.3125 -1.28125q0 -0.859375 -0.4375 -1.484375q-0.4375 -0.640625 -1.21875 -0.890625q-0.765625 -0.25 -2.234375 -0.25l-3.53125 0l0 5.25z" fill-rule="nonzero"/><path fill="#9a45ff" d="m343.82242 72.82336l0 0c0 2.4613647 -1.9953308 4.456688 -4.4566956 4.456688l0 0c-1.1819763 0 -2.3155518 -0.46953583 -3.1513367 -1.3053284c-0.8358154 -0.83579254 -1.3053589 -1.9693756 -1.3053589 -3.1513596l0 0c0 -2.4613647 1.9953308 -4.4566956 4.4566956 -4.4566956l0 0c2.4613647 0 4.4566956 1.9953308 4.4566956 4.4566956z" fill-rule="evenodd"/><path fill="#9a45ff" d="m380.97806 201.09727l0 0c0 2.5309448 -2.2350464 4.5826874 -4.9921265 4.5826874l0 0c-2.75708 0 -4.9921265 -2.0517426 -4.9921265 -4.5826874l0 0c0 -2.5309296 2.2350464 -4.582672 4.9921265 -4.582672l0 0c2.75708 0 4.9921265 2.0517426 4.9921265 4.582672z" fill-rule="evenodd"/><path fill="#9a45ff" d="m323.59763 120.47909l0 0c0 2.5309372 -2.2350464 4.582672 -4.9921265 4.582672l0 0c-2.7570496 0 -4.9921265 -2.051735 -4.9921265 -4.582672l0 0c0 -2.5309448 2.235077 -4.5826797 4.9921265 -4.5826797l0 0c2.75708 0 4.9921265 2.051735 4.9921265 4.5826797z" fill-rule="evenodd"/><path fill="#9a45ff" d="m443.0441 243.98817l0 0c0 2.4613647 -1.9953308 4.4566956 -4.4566956 4.4566956l0 0c-1.1819763 0 -2.3155518 -0.46954346 -3.1513367 -1.3053436c-0.8358154 -0.8357849 -1.3053589 -1.9693604 -1.3053589 -3.151352l0 0c0 -2.4613647 1.9953308 -4.4566956 4.4566956 -4.4566956l0 0c2.4613647 0 4.4566956 1.9953308 4.4566956 4.4566956z" fill-rule="evenodd"/><path fill="#9a45ff" d="m370.99487 159.11505l0 0c0 2.5309448 -2.2350464 4.5826874 -4.9921265 4.5826874l0 0c-2.75708 0 -4.9921265 -2.0517426 -4.9921265 -4.5826874l0 0c0 -2.5309448 2.2350464 -4.582672 4.9921265 -4.582672l0 0c2.75708 0 4.9921265 2.0517273 4.9921265 4.582672z" fill-rule="evenodd"/><path fill="#9a45ff" d="m514.843 233.94269l0 0c0 2.5309448 -2.2350464 4.582672 -4.9921265 4.582672l0 0c-2.7570496 0 -4.9921265 -2.0517273 -4.9921265 -4.582672l0 0c0 -2.5309448 2.235077 -4.5826874 4.9921265 -4.5826874l0 0c2.75708 0 4.9921265 2.0517426 4.9921265 4.5826874z" fill-rule="evenodd"/><path fill="#9a45ff" d="m398.07892 227.66508l0 0c0 2.5309448 -2.2350464 4.5826874 -4.9921265 4.5826874l0 0c-2.75708 0 -4.9921265 -2.0517426 -4.9921265 -4.5826874l0 0c0 -2.5309448 2.2350464 -4.582672 4.9921265 -4.582672l0 0c2.75708 0 4.9921265 2.0517273 4.9921265 4.582672z" fill-rule="evenodd"/><path fill="#46bf3e" d="m444.4297 171.50868l0 0c0 2.5309296 -2.235077 4.582672 -4.9921265 4.582672l0 0c-2.75708 0 -4.9921265 -2.0517426 -4.9921265 -4.582672l0 0c0 -2.5309448 2.2350464 -4.5826874 4.9921265 -4.5826874l0 0c2.7570496 0 4.9921265 2.0517426 4.9921265 4.5826874z" fill-rule="evenodd"/><path fill="#46bf3e" d="m496.88666 188.6384l0 0c0 2.5309296 -2.2350464 4.582672 -4.9921265 4.582672l0 0c-2.75708 0 -4.9921265 -2.0517426 -4.9921265 -4.582672l0 0c0 -2.5309448 2.2350464 -4.5826874 4.9921265 -4.5826874l0 0c2.75708 0 4.9921265 2.0517426 4.9921265 4.5826874z" fill-rule="evenodd"/><path fill="#46bf3e" d="m411.00342 130.68665l0 0c0 2.5309448 -2.2350464 4.582672 -4.9921265 4.582672l0 0c-2.7570496 0 -4.9921265 -2.0517273 -4.9921265 -4.582672l0 0c0 -2.5309448 2.235077 -4.5826797 4.9921265 -4.5826797l0 0c2.75708 0 4.9921265 2.051735 4.9921265 4.5826797z" fill-rule="evenodd"/><path fill="#46bf3e" d="m377.57718 100.07012l0 0c0 2.5309448 -2.2350464 4.5826797 -4.9921265 4.5826797l0 0c-2.75708 0 -4.9921265 -2.051735 -4.9921265 -4.5826797l0 0c0 -2.5309372 2.2350464 -4.582672 4.9921265 -4.582672l0 0c2.75708 0 4.9921265 2.051735 4.9921265 4.582672z" fill-rule="evenodd"/><path fill="#46bf3e" d="m488.998 120.48114l0 0c0 2.5309448 -2.2350464 4.582672 -4.9921265 4.582672l0 0c-2.7570496 0 -4.9921265 -2.0517273 -4.9921265 -4.582672l0 0c0 -2.5309448 2.235077 -4.5826797 4.9921265 -4.5826797l0 0c2.75708 0 4.9921265 2.051735 4.9921265 4.5826797z" fill-rule="evenodd"/><path fill="#46bf3e" d="m455.57175 100.07012l0 0c0 2.5309448 -2.2350464 4.5826797 -4.9921265 4.5826797l0 0c-2.75708 0 -4.9921265 -2.051735 -4.9921265 -4.5826797l0 0c0 -2.5309372 2.2350464 -4.582672 4.9921265 -4.582672l0 0c2.75708 0 4.9921265 2.051735 4.9921265 4.582672z" fill-rule="evenodd"/><path fill="#46bf3e" d="m444.4297 212.3307l0 0c0 2.5309448 -2.235077 4.582672 -4.9921265 4.582672l0 0c-2.75708 0 -4.9921265 -2.0517273 -4.9921265 -4.582672l0 0c0 -2.5309448 2.2350464 -4.582672 4.9921265 -4.582672l0 0c2.7570496 0 4.9921265 2.0517273 4.9921265 4.582672z" fill-rule="evenodd"/><path fill="#000000" fill-opacity="0.0" d="m329.28494 25.283352l161.16537 0l0 48.062992l-161.16537 0z" fill-rule="evenodd"/><path fill="#9a45ff" d="m339.72244 52.20335l0 -13.359375l5.046875 0q1.328125 0 2.03125 0.125q0.96875 0.171875 1.640625 0.640625q0.671875 0.453125 1.078125 1.28125q0.40625 0.828125 0.40625 1.828125q0 1.703125 -1.09375 2.890625q-1.078125 1.171875 -3.921875 1.171875l-3.421875 0l0 5.421875l-1.765625 0zm1.765625 -7.0l3.453125 0q1.71875 0 2.4375 -0.640625q0.71875 -0.640625 0.71875 -1.796875q0 -0.84375 -0.421875 -1.4375q-0.421875 -0.59375 -1.125 -0.78125q-0.4375 -0.125 -1.640625 -0.125l-3.421875 0l0 4.78125zm16.787323 5.8125q-0.921875 0.765625 -1.765625 1.09375q-0.828125 0.3125 -1.796875 0.3125q-1.59375 0 -2.453125 -0.78125q-0.859375 -0.78125 -0.859375 -1.984375q0 -0.71875 0.328125 -1.296875q0.328125 -0.59375 0.84375 -0.9375q0.53125 -0.359375 1.1875 -0.546875q0.46875 -0.125 1.453125 -0.25q1.984375 -0.234375 2.921875 -0.5625q0.015625 -0.34375 0.015625 -0.421875q0 -1.0 -0.46875 -1.421875q-0.625 -0.546875 -1.875 -0.546875q-1.15625 0 -1.703125 0.40625q-0.546875 0.40625 -0.8125 1.421875l-1.609375 -0.21875q0.21875 -1.015625 0.71875 -1.640625q0.5 -0.640625 1.453125 -0.984375q0.953125 -0.34375 2.1875 -0.34375q1.25 0 2.015625 0.296875q0.78125 0.28125 1.140625 0.734375q0.375 0.4375 0.515625 1.109375q0.078125 0.421875 0.078125 1.515625l0 2.1875q0 2.28125 0.109375 2.890625q0.109375 0.59375 0.40625 1.15625l-1.703125 0q-0.265625 -0.515625 -0.328125 -1.1875zm-0.140625 -3.671875q-0.890625 0.375 -2.671875 0.625q-1.015625 0.140625 -1.4375 0.328125q-0.421875 0.1875 -0.65625 0.53125q-0.21875 0.34375 -0.21875 0.78125q0 0.65625 0.5 1.09375q0.5 0.4375 1.453125 0.4375q0.9375 0 1.671875 -0.40625q0.75 -0.421875 1.09375 -1.140625q0.265625 -0.5625 0.265625 -1.640625l0 -0.609375zm4.1882324 4.859375l0 -9.671875l1.46875 0l0 1.46875q0.5625 -1.03125 1.03125 -1.359375q0.484375 -0.328125 1.0625 -0.328125q0.828125 0 1.6875 0.53125l-0.5625 1.515625q-0.609375 -0.359375 -1.203125 -0.359375q-0.546875 0 -0.96875 0.328125q-0.421875 0.328125 -0.609375 0.890625q-0.28125 0.875 -0.28125 1.921875l0 5.0625l-1.625 0zm12.853302 -3.109375l1.6875 0.203125q-0.40625 1.484375 -1.484375 2.3125q-1.078125 0.8125 -2.765625 0.8125q-2.125 0 -3.375 -1.296875q-1.234375 -1.3125 -1.234375 -3.671875q0 -2.453125 1.25 -3.796875q1.265625 -1.34375 3.265625 -1.34375q1.9375 0 3.15625 1.328125q1.234375 1.3125 1.234375 3.703125q0 0.15625 0 0.4375l-7.21875 0q0.09375 1.59375 0.90625 2.453125q0.8125 0.84375 2.015625 0.84375q0.90625 0 1.546875 -0.46875q0.640625 -0.484375 1.015625 -1.515625zm-5.390625 -2.65625l5.40625 0q-0.109375 -1.21875 -0.625 -1.828125q-0.78125 -0.953125 -2.03125 -0.953125q-1.125 0 -1.90625 0.765625q-0.765625 0.75 -0.84375 2.015625zm12.719452 4.296875l0.234375 1.453125q-0.6875 0.140625 -1.234375 0.140625q-0.890625 0 -1.390625 -0.28125q-0.484375 -0.28125 -0.6875 -0.734375q-0.203125 -0.46875 -0.203125 -1.9375l0 -5.578125l-1.203125 0l0 -1.265625l1.203125 0l0 -2.390625l1.625 -0.984375l0 3.375l1.65625 0l0 1.265625l-1.65625 0l0 5.671875q0 0.6875 0.078125 0.890625q0.09375 0.203125 0.28125 0.328125q0.203125 0.109375 0.578125 0.109375q0.265625 0 0.71875 -0.0625zm0.9958191 -3.375q0 -2.6875 1.484375 -3.96875q1.25 -1.078125 3.046875 -1.078125q2.0 0 3.265625 1.3125q1.265625 1.296875 1.265625 3.609375q0 1.859375 -0.5625 2.9375q-0.5625 1.0625 -1.640625 1.65625q-1.0625 0.59375 -2.328125 0.59375q-2.03125 0 -3.28125 -1.296875q-1.25 -1.3125 -1.25 -3.765625zm1.6875 0q0 1.859375 0.796875 2.796875q0.8125 0.921875 2.046875 0.921875q1.21875 0 2.03125 -0.921875q0.8125 -0.9375 0.8125 -2.84375q0 -1.796875 -0.8125 -2.71875q-0.8125 -0.921875 -2.03125 -0.921875q-1.234375 0 -2.046875 0.921875q-0.796875 0.90625 -0.796875 2.765625zm14.777771 4.84375l0 -13.359375l9.015625 0l0 1.578125l-7.25 0l0 4.140625l6.265625 0l0 1.578125l-6.265625 0l0 6.0625l-1.765625 0zm11.083466 0l0 -9.671875l1.46875 0l0 1.46875q0.5625 -1.03125 1.03125 -1.359375q0.484375 -0.328125 1.0625 -0.328125q0.828125 0 1.6875 0.53125l-0.5625 1.515625q-0.609375 -0.359375 -1.203125 -0.359375q-0.546875 0 -0.96875 0.328125q-0.421875 0.328125 -0.609375 0.890625q-0.28125 0.875 -0.28125 1.921875l0 5.0625l-1.625 0zm5.618927 -4.84375q0 -2.6875 1.484375 -3.96875q1.25 -1.078125 3.046875 -1.078125q2.0 0 3.265625 1.3125q1.265625 1.296875 1.265625 3.609375q0 1.859375 -0.5625 2.9375q-0.5625 1.0625 -1.640625 1.65625q-1.0625 0.59375 -2.328125 0.59375q-2.03125 0 -3.28125 -1.296875q-1.25 -1.3125 -1.25 -3.765625zm1.6875 0q0 1.859375 0.796875 2.796875q0.8125 0.921875 2.046875 0.921875q1.21875 0 2.03125 -0.921875q0.8125 -0.9375 0.8125 -2.84375q0 -1.796875 -0.8125 -2.71875q-0.8125 -0.921875 -2.03125 -0.921875q-1.234375 0 -2.046875 0.921875q-0.796875 0.90625 -0.796875 2.765625zm9.297607 4.84375l0 -9.671875l1.46875 0l0 1.375q1.0625 -1.59375 3.078125 -1.59375q0.875 0 1.609375 0.3125q0.734375 0.3125 1.09375 0.828125q0.375 0.5 0.515625 1.203125q0.09375 0.453125 0.09375 1.59375l0 5.953125l-1.640625 0l0 -5.890625q0 -1.0 -0.203125 -1.484375q-0.1875 -0.5 -0.671875 -0.796875q-0.484375 -0.296875 -1.140625 -0.296875q-1.046875 0 -1.8125 0.671875q-0.75 0.65625 -0.75 2.515625l0 5.28125l-1.640625 0zm13.953827 -1.46875l0.234375 1.453125q-0.6875 0.140625 -1.234375 0.140625q-0.890625 0 -1.390625 -0.28125q-0.484375 -0.28125 -0.6875 -0.734375q-0.203125 -0.46875 -0.203125 -1.9375l0 -5.578125l-1.203125 0l0 -1.265625l1.203125 0l0 -2.390625l1.625 -0.984375l0 3.375l1.65625 0l0 1.265625l-1.65625 0l0 5.671875q0 0.6875 0.078125 0.890625q0.09375 0.203125 0.28125 0.328125q0.203125 0.109375 0.578125 0.109375q0.265625 0 0.71875 -0.0625z" fill-rule="nonzero"/><path fill="#000000" fill-opacity="0.0" d="m469.80573 71.03937l127.74805 0l0 48.062996l-127.74805 0z" fill-rule="evenodd"/><path fill="#46bf3e" d="m480.24323 97.959366l0 -13.359375l4.609375 0q1.546875 0 2.375 0.203125q1.140625 0.25 1.953125 0.953125q1.0625 0.890625 1.578125 2.28125q0.53125 1.390625 0.53125 3.171875q0 1.515625 -0.359375 2.703125q-0.359375 1.171875 -0.921875 1.9375q-0.546875 0.765625 -1.203125 1.21875q-0.65625 0.4375 -1.59375 0.671875q-0.9375 0.21875 -2.140625 0.21875l-4.828125 0zm1.765625 -1.578125l2.859375 0q1.3125 0 2.0625 -0.234375q0.75 -0.25 1.203125 -0.703125q0.625 -0.625 0.96875 -1.6875q0.359375 -1.0625 0.359375 -2.578125q0 -2.09375 -0.6875 -3.21875q-0.6875 -1.125 -1.671875 -1.5q-0.703125 -0.28125 -2.28125 -0.28125l-2.8125 0l0 10.203125zm10.894806 -3.265625q0 -2.6875 1.484375 -3.96875q1.25 -1.078125 3.046875 -1.078125q2.0 0 3.265625 1.3125q1.265625 1.296875 1.265625 3.609375q0 1.859375 -0.5625 2.9375q-0.5625 1.0625 -1.640625 1.65625q-1.0625 0.59375 -2.328125 0.59375q-2.03125 0 -3.28125 -1.296875q-1.25 -1.3125 -1.25 -3.765625zm1.6875 0q0 1.859375 0.796875 2.796875q0.8125 0.921875 2.046875 0.921875q1.21875 0 2.03125 -0.921875q0.8125 -0.9375 0.8125 -2.84375q0 -1.796875 -0.8125 -2.71875q-0.8125 -0.921875 -2.03125 -0.921875q-1.234375 0 -2.046875 0.921875q-0.796875 0.90625 -0.796875 2.765625zm9.297607 4.84375l0 -9.671875l1.46875 0l0 1.359375q0.453125 -0.71875 1.203125 -1.140625q0.765625 -0.4375 1.71875 -0.4375q1.078125 0 1.765625 0.453125q0.6875 0.4375 0.96875 1.234375q1.1562195 -1.6875 2.9843445 -1.6875q1.453125 0 2.21875 0.796875q0.78125 0.796875 0.78125 2.453125l0 6.640625l-1.640625 0l0 -6.09375q0 -0.984375 -0.15625 -1.40625q-0.15625 -0.4375 -0.578125 -0.703125q-0.421875 -0.265625 -0.984375 -0.265625q-1.015625 0 -1.6874695 0.6875q-0.671875 0.671875 -0.671875 2.15625l0 5.625l-1.640625 0l0 -6.28125q0 -1.09375 -0.40625 -1.640625q-0.40625 -0.546875 -1.3125 -0.546875q-0.6875 0 -1.28125 0.359375q-0.59375 0.359375 -0.859375 1.0625q-0.25 0.703125 -0.25 2.03125l0 5.015625l-1.640625 0zm15.540802 -11.46875l0 -1.890625l1.640625 0l0 1.890625l-1.640625 0zm0 11.46875l0 -9.671875l1.640625 0l0 9.671875l-1.640625 0zm4.1448364 0l0 -9.671875l1.46875 0l0 1.375q1.0625 -1.59375 3.078125 -1.59375q0.875 0 1.609375 0.3125q0.734375 0.3125 1.09375 0.828125q0.375 0.5 0.515625 1.203125q0.09375 0.453125 0.09375 1.59375l0 5.953125l-1.640625 0l0 -5.890625q0 -1.0 -0.203125 -1.484375q-0.1875 -0.5 -0.671875 -0.796875q-0.484375 -0.296875 -1.140625 -0.296875q-1.046875 0 -1.8125 0.671875q-0.75 0.65625 -0.75 2.515625l0 5.28125l-1.640625 0zm16.688171 -1.1875q-0.921875 0.765625 -1.765625 1.09375q-0.828125 0.3125 -1.796875 0.3125q-1.59375 0 -2.453125 -0.78125q-0.859375 -0.78125 -0.859375 -1.984375q0 -0.71875 0.328125 -1.296875q0.328125 -0.59375 0.84375 -0.9375q0.53125 -0.359375 1.1875 -0.546875q0.46875 -0.125 1.453125 -0.25q1.984375 -0.234375 2.921875 -0.5625q0.015625 -0.34375 0.015625 -0.421875q0 -1.0 -0.46875 -1.421875q-0.625 -0.546875 -1.875 -0.546875q-1.15625 0 -1.703125 0.40625q-0.546875 0.40625 -0.8125 1.421875l-1.609375 -0.21875q0.21875 -1.015625 0.71875 -1.640625q0.5 -0.640625 1.453125 -0.984375q0.953125 -0.34375 2.1875 -0.34375q1.25 0 2.015625 0.296875q0.78125 0.28125 1.140625 0.734375q0.375 0.4375 0.515625 1.109375q0.078125 0.421875 0.078125 1.515625l0 2.1875q0 2.28125 0.109375 2.890625q0.109375 0.59375 0.40625 1.15625l-1.703125 0q-0.265625 -0.515625 -0.328125 -1.1875zm-0.140625 -3.671875q-0.890625 0.375 -2.671875 0.625q-1.015625 0.140625 -1.4375 0.328125q-0.421875 0.1875 -0.65625 0.53125q-0.21875 0.34375 -0.21875 0.78125q0 0.65625 0.5 1.09375q0.5 0.4375 1.453125 0.4375q0.9375 0 1.671875 -0.40625q0.75 -0.421875 1.09375 -1.140625q0.265625 -0.5625 0.265625 -1.640625l0 -0.609375zm7.7819824 3.390625l0.234375 1.453125q-0.6875 0.140625 -1.234375 0.140625q-0.890625 0 -1.390625 -0.28125q-0.484375 -0.28125 -0.6875 -0.734375q-0.203125 -0.46875 -0.203125 -1.9375l0 -5.578125l-1.203125 0l0 -1.265625l1.203125 0l0 -2.390625l1.625 -0.984375l0 3.375l1.65625 0l0 1.265625l-1.65625 0l0 5.671875q0 0.6875 0.078125 0.890625q0.09375 0.203125 0.28125 0.328125q0.203125 0.109375 0.578125 0.109375q0.265625 0 0.71875 -0.0625zm8.230164 -1.640625l1.6875 0.203125q-0.40625 1.484375 -1.484375 2.3125q-1.078125 0.8125 -2.765625 0.8125q-2.125 0 -3.375 -1.296875q-1.234375 -1.3125 -1.234375 -3.671875q0 -2.453125 1.25 -3.796875q1.265625 -1.34375 3.265625 -1.34375q1.9375 0 3.15625 1.328125q1.234375 1.3125 1.234375 3.703125q0 0.15625 0 0.4375l-7.21875 0q0.09375 1.59375 0.90625 2.453125q0.8125 0.84375 2.015625 0.84375q0.90625 0 1.546875 -0.46875q0.640625 -0.484375 1.015625 -1.515625zm-5.390625 -2.65625l5.40625 0q-0.109375 -1.21875 -0.625 -1.828125q-0.78125 -0.953125 -2.03125 -0.953125q-1.125 0 -1.90625 0.765625q-0.765625 0.75 -0.84375 2.015625zm15.406982 5.765625l0 -1.21875q-0.90625 1.4375 -2.703125 1.4375q-1.15625 0 -2.125 -0.640625q-0.96875 -0.640625 -1.5 -1.78125q-0.53125 -1.140625 -0.53125 -2.625q0 -1.453125 0.484375 -2.625q0.484375 -1.1875 1.4375 -1.8125q0.96875 -0.625 2.171875 -0.625q0.875 0 1.546875 0.375q0.6875 0.359375 1.109375 0.953125l0 -4.796875l1.640625 0l0 13.359375l-1.53125 0zm-5.171875 -4.828125q0 1.859375 0.78125 2.78125q0.78125 0.921875 1.84375 0.921875q1.078125 0 1.828125 -0.875q0.75 -0.890625 0.75 -2.6875q0 -1.984375 -0.765625 -2.90625q-0.765625 -0.9375 -1.890625 -0.9375q-1.078125 0 -1.8125 0.890625q-0.734375 0.890625 -0.734375 2.8125z" fill-rule="nonzero"/></g></svg>