<svg version="1.1" viewBox="0.0 0.0 640.0 349.0" fill="none" stroke="none" stroke-linecap="square" stroke-miterlimit="10" xmlns:xlink="http://www.w3.org/1999/xlink" xmlns="http://www.w3.org/2000/svg"><clipPath id="p.0"><path d="m0 0l640.0 0l0 349.0l-640.0 0l0 -349.0z" clip-rule="nonzero"/></clipPath><g clip-path="url(#p.0)"><path fill="#000000" fill-opacity="0.0" d="m0 0l640.0 0l0 349.0l-640.0 0z" fill-rule="evenodd"/><defs><linearGradient id="p.1" gradientUnits="userSpaceOnUse" gradientTransform="matrix(11.611506963841066 0.0 0.0 11.611506963841066 0.0 0.0)" spreadMethod="pad" x1="20.61671037712537" y1="0.8288630949534097" x2="20.61666799451424" y2="12.440370058717127"><stop offset="0.0" stop-color="#fff6db"/><stop offset="1.0" stop-color="#fad25c"/></linearGradient></defs><path fill="url(#p.1)" d="m272.37534 9.624672l-32.984253 99.32021l89.04199 35.50656z" fill-rule="evenodd"/><path stroke="#666666" stroke-width="1.0" stroke-linejoin="round" stroke-linecap="butt" d="m272.37534 9.624672l-32.984253 99.32021l89.04199 35.50656z" fill-rule="evenodd"/><defs><linearGradient id="p.2" gradientUnits="userSpaceOnUse" gradientTransform="matrix(11.619084411686602 0.0 0.0 11.619084411686602 0.0 0.0)" spreadMethod="pad" x1="23.452907533908025" y1="0.8445717453440179" x2="23.452865178936943" y2="12.463656156953423"><stop offset="0.0" stop-color="#fff6db"/><stop offset="1.0" stop-color="#fad25c"/></linearGradient></defs><path fill="url(#p.2)" d="m328.6168 144.81627l81.39633 -34.05249l-137.51181 -100.950134z" fill-rule="evenodd"/><path stroke="#666666" stroke-width="1.0" stroke-linejoin="round" stroke-linecap="butt" d="m328.6168 144.81627l81.39633 -34.05249l-137.51181 -100.950134z" fill-rule="evenodd"/><defs><linearGradient id="p.3" gradientUnits="userSpaceOnUse" gradientTransform="matrix(10.071158405464992 0.0 0.0 10.071158405464992 0.0 0.0)" spreadMethod="pad" x1="21.654310330673752" y1="10.853436328622577" x2="21.654273682010974" y2="20.924594734020886"><stop offset="0.0" stop-color="#fff6db"/><stop offset="1.0" stop-color="#fad25c"/></linearGradient></defs><path fill="url(#p.3)" d="m218.08398 171.40158l20.94226 -62.094498l90.136475 35.690292l1.8215332 65.73753z" fill-rule="evenodd"/><path stroke="#666666" stroke-width="1.0" stroke-linejoin="round" stroke-linecap="butt" d="m218.08398 171.40158l20.94226 -62.094498l90.136475 35.690292l1.8215332 65.73753z" fill-rule="evenodd"/><defs><linearGradient id="p.4" gradientUnits="userSpaceOnUse" gradientTransform="matrix(13.766530343364577 0.0 0.0 13.766530343364577 0.0 0.0)" spreadMethod="pad" x1="23.870705958866004" y1="8.035748429757074" x2="23.87065680536026" y2="21.802278773033898"><stop offset="0.0" stop-color="#fff6db"/><stop offset="1.0" stop-color="#fad25c"/></linearGradient></defs><path fill="url(#p.4)" d="m330.61942 210.91602l73.74805 89.22571l5.7585144 -189.51706l-81.509186 34.010506z" fill-rule="evenodd"/><path stroke="#666666" stroke-width="1.0" stroke-linejoin="round" stroke-linecap="butt" d="m330.61942 210.91602l73.74805 89.22571l5.7585144 -189.51706l-81.509186 34.010506z" fill-rule="evenodd"/><defs><linearGradient id="p.5" gradientUnits="userSpaceOnUse" gradientTransform="matrix(14.30638062837083 0.0 0.0 14.30638062837083 0.0 0.0)" spreadMethod="pad" x1="7.247651711179335" y1="0.6782149625106626" x2="7.247599395948776" y2="14.98459559078584"><stop offset="0.0" stop-color="#dbd4eb"/><stop offset="1.0" stop-color="#9180bb"/></linearGradient></defs><path fill="url(#p.5)" d="m272.3491 9.703412l-110.71391 22.580055l-57.94751 20.779526l10.603668 97.215225l88.8609 64.09712z" fill-rule="evenodd"/><path stroke="#666666" stroke-width="1.0" stroke-linejoin="round" stroke-linecap="butt" d="m272.3491 9.703412l-110.71391 22.580055l-57.94751 20.779526l10.603668 97.215225l88.8609 64.09712z" fill-rule="evenodd"/><defs><linearGradient id="p.6" gradientUnits="userSpaceOnUse" gradientTransform="matrix(13.151364362589524 0.0 0.0 13.151364362589524 0.0 0.0)" spreadMethod="pad" x1="0.7224582996868001" y1="4.033164464245695" x2="0.7224106961928379" y2="17.184528826749062"><stop offset="0.0" stop-color="#dbd4eb"/><stop offset="1.0" stop-color="#9180bb"/></linearGradient></defs><path fill="url(#p.6)" d="m103.72966 53.041996l-73.2021 25.85564l-21.026247 147.10236l104.608925 -75.72179z" fill-rule="evenodd"/><path stroke="#666666" stroke-width="1.0" stroke-linejoin="round" stroke-linecap="butt" d="m103.72966 53.041996l-73.2021 25.85564l-21.026247 147.10236l104.608925 -75.72179z" fill-rule="evenodd"/><defs><linearGradient id="p.7" gradientUnits="userSpaceOnUse" gradientTransform="matrix(11.378396153808303 0.0 0.0 11.378396153808303 0.0 0.0)" spreadMethod="pad" x1="0.8264960498776507" y1="13.223413281823266" x2="0.8264548826706589" y2="24.601809435557097"><stop offset="0.0" stop-color="#dbd4eb"/><stop offset="1.0" stop-color="#9180bb"/></linearGradient></defs><path fill="url(#p.7)" d="m9.4042 226.0315l96.874016 53.897644l97.05774 -66.645676l-89.40945 -62.821518z" fill-rule="evenodd"/><path stroke="#666666" stroke-width="1.0" stroke-linejoin="round" stroke-linecap="butt" d="m9.4042 226.0315l96.874016 53.897644l97.05774 -66.645676l-89.40945 -62.821518z" fill-rule="evenodd"/><defs><linearGradient id="p.8" gradientUnits="userSpaceOnUse" gradientTransform="matrix(10.382732785378208 0.0 0.0 10.382732785378208 0.0 0.0)" spreadMethod="pad" x1="10.233273457798104" y1="20.506934389467432" x2="10.23323593398375" y2="30.889667174777834"><stop offset="0.0" stop-color="#fdecdb"/><stop offset="1.0" stop-color="#f0a963"/></linearGradient></defs><path fill="url(#p.8)" d="m106.249344 280.0l89.619415 37.07611l83.03676 3.643036l-3.4042053 -66.71915l-72.349075 -41.08136z" fill-rule="evenodd"/><path stroke="#666666" stroke-width="1.0" stroke-linejoin="round" stroke-linecap="butt" d="m106.249344 280.0l89.619415 37.07611l83.03676 3.643036l-3.4042053 -66.71915l-72.349075 -41.08136z" fill-rule="evenodd"/><defs><linearGradient id="p.9" gradientUnits="userSpaceOnUse" gradientTransform="matrix(9.072350741834123 0.0 0.0 9.072350741834123 0.0 0.0)" spreadMethod="pad" x1="22.392457782122527" y1="18.93290368937385" x2="22.392423879251165" y2="28.005254431144625"><stop offset="0.0" stop-color="#fdecdb"/><stop offset="1.0" stop-color="#f0a963"/></linearGradient></defs><path fill="url(#p.9)" d="m203.15224 213.28346l14.56955 -41.51706l112.90288 38.48294l-54.997375 43.824142z" fill-rule="evenodd"/><path stroke="#666666" stroke-width="1.0" stroke-linejoin="round" stroke-linecap="butt" d="m203.15224 213.28346l14.56955 -41.51706l112.90288 38.48294l-54.997375 43.824142z" fill-rule="evenodd"/><defs><linearGradient id="p.10" gradientUnits="userSpaceOnUse" gradientTransform="matrix(10.67673063725386 0.0 0.0 10.67673063725386 0.0 0.0)" spreadMethod="pad" x1="25.815702011455823" y1="19.703562333083326" x2="25.81566360035407" y2="30.380292970268094"><stop offset="0.0" stop-color="#fdecdb"/><stop offset="1.0" stop-color="#f0a963"/></linearGradient></defs><path fill="url(#p.10)" d="m278.90552 320.71915l76.11548 3.6430664l49.527557 -23.67456l-74.11023 -90.31758l-54.811035 43.703415z" fill-rule="evenodd"/><path stroke="#666666" stroke-width="1.0" stroke-linejoin="round" stroke-linecap="butt" d="m278.90552 320.71915l76.11548 3.6430664l49.527557 -23.67456l-74.11023 -90.31758l-54.811035 43.703415z" fill-rule="evenodd"/><path fill="#000000" d="m72.56693 612.8425l0 0c0 -4.427002 3.588768 -8.015747 8.015747 -8.015747l0 0c2.125908 0 4.1647415 0.8444824 5.667984 2.3477173c1.5032501 1.5032959 2.347763 3.5421143 2.347763 5.66803l0 0c0 4.426941 -3.5887756 8.015747 -8.015747 8.015747l0 0c-4.426979 0 -8.015747 -3.5888062 -8.015747 -8.015747z" fill-rule="evenodd"/><path stroke="#000000" stroke-width="2.0" stroke-linejoin="round" stroke-linecap="butt" d="m72.56693 612.8425l0 0c0 -4.427002 3.588768 -8.015747 8.015747 -8.015747l0 0c2.125908 0 4.1647415 0.8444824 5.667984 2.3477173c1.5032501 1.5032959 2.347763 3.5421143 2.347763 5.66803l0 0c0 4.426941 -3.5887756 8.015747 -8.015747 8.015747l0 0c-4.426979 0 -8.015747 -3.5888062 -8.015747 -8.015747z" fill-rule="evenodd"/><path fill="#000000" d="m134.29396 502.4908l0 0c0 -4.4269714 3.5887756 -8.015747 8.015747 -8.015747l0 0c2.1259155 0 4.164749 0.84451294 5.6679993 2.3477478c1.5032349 1.5032654 2.3477478 3.5420837 2.3477478 5.6679993l0 0c0 4.4269714 -3.5887756 8.015747 -8.015747 8.015747l0 0c-4.4269714 0 -8.015747 -3.5887756 -8.015747 -8.015747z" fill-rule="evenodd"/><path stroke="#000000" stroke-width="2.0" stroke-linejoin="round" stroke-linecap="butt" d="m134.29396 502.4908l0 0c0 -4.4269714 3.5887756 -8.015747 8.015747 -8.015747l0 0c2.1259155 0 4.164749 0.84451294 5.6679993 2.3477478c1.5032349 1.5032654 2.3477478 3.5420837 2.3477478 5.6679993l0 0c0 4.4269714 -3.5887756 8.015747 -8.015747 8.015747l0 0c-4.4269714 0 -8.015747 -3.5887756 -8.015747 -8.015747z" fill-rule="evenodd"/><path fill="#8e7cc3" d="m118.261154 141.01575l0 0c0 -4.4269714 3.5887756 -8.015747 8.015747 -8.015747l0 0c2.1259155 0 4.164749 0.84451294 5.667984 2.347763c1.5032501 1.5032349 2.347763 3.5420837 2.347763 5.667984l0 0c0 4.4269714 -3.5887756 8.015747 -8.015747 8.015747l0 0c-4.4269714 0 -8.015747 -3.5887756 -8.015747 -8.015747z" fill-rule="evenodd"/><path stroke="#000000" stroke-width="2.0" stroke-linejoin="round" stroke-linecap="butt" d="m118.261154 141.01575l0 0c0 -4.4269714 3.5887756 -8.015747 8.015747 -8.015747l0 0c2.1259155 0 4.164749 0.84451294 5.667984 2.347763c1.5032501 1.5032349 2.347763 3.5420837 2.347763 5.667984l0 0c0 4.4269714 -3.5887756 8.015747 -8.015747 8.015747l0 0c-4.4269714 0 -8.015747 -3.5887756 -8.015747 -8.015747z" fill-rule="evenodd"/><path fill="#000000" fill-opacity="0.0" d="m-74.66798 451.01575l179.9685 134.48822" fill-rule="evenodd"/><path stroke="#000000" stroke-width="2.0" stroke-linejoin="round" stroke-linecap="butt" d="m-74.66798 451.01575l179.9685 134.48822" fill-rule="evenodd"/><path fill="#000000" fill-opacity="0.0" d="m86.25066 607.1745l56.062996 -96.66138" fill-rule="evenodd"/><path stroke="#000000" stroke-width="2.0" stroke-linejoin="round" stroke-linecap="butt" d="m86.25066 607.1745l56.062996 -96.66138" fill-rule="evenodd"/><path fill="#000000" fill-opacity="0.0" d="m35.333344 517.06433l41.921257 92.44092" fill-rule="evenodd"/><path stroke="#000000" stroke-width="2.0" stroke-linejoin="round" stroke-linecap="butt" d="m35.333344 517.06433l41.921257 92.44092" fill-rule="evenodd"/><path fill="#ffd966" d="m327.98294 141.01575l0 0c0 -4.4269714 3.5887756 -8.015747 8.015747 -8.015747l0 0c2.1259155 0 4.164734 0.84451294 5.6679993 2.347763c1.5032349 1.5032349 2.3477478 3.5420837 2.3477478 5.667984l0 0c0 4.4269714 -3.5887756 8.015747 -8.015747 8.015747l0 0c-4.4269714 0 -8.015747 -3.5887756 -8.015747 -8.015747z" fill-rule="evenodd"/><path stroke="#000000" stroke-width="2.0" stroke-linejoin="round" stroke-linecap="butt" d="m327.98294 141.01575l0 0c0 -4.4269714 3.5887756 -8.015747 8.015747 -8.015747l0 0c2.1259155 0 4.164734 0.84451294 5.6679993 2.347763c1.5032349 1.5032349 2.3477478 3.5420837 2.3477478 5.667984l0 0c0 4.4269714 -3.5887756 8.015747 -8.015747 8.015747l0 0c-4.4269714 0 -8.015747 -3.5887756 -8.015747 -8.015747z" fill-rule="evenodd"/><path fill="#e69138" d="m247.26115 242.01575l0 0c0 -4.4269714 3.5887756 -8.015747 8.015747 -8.015747l0 0c2.1259003 0 4.164749 0.84451294 5.667984 2.347763c1.5032654 1.5032349 2.3477783 3.5420837 2.3477783 5.667984l0 0c0 4.4269714 -3.5887756 8.015747 -8.015762 8.015747l0 0c-4.4269714 0 -8.015747 -3.5887756 -8.015747 -8.015747z" fill-rule="evenodd"/><path stroke="#000000" stroke-width="2.0" stroke-linejoin="round" stroke-linecap="butt" d="m247.26115 242.01575l0 0c0 -4.4269714 3.5887756 -8.015747 8.015747 -8.015747l0 0c2.1259003 0 4.164749 0.84451294 5.667984 2.347763c1.5032654 1.5032349 2.3477783 3.5420837 2.3477783 5.667984l0 0c0 4.4269714 -3.5887756 8.015747 -8.015762 8.015747l0 0c-4.4269714 0 -8.015747 -3.5887756 -8.015747 -8.015747z" fill-rule="evenodd"/><path fill="#000000" fill-opacity="0.0" d="m410.12598 155.86613l293.6693 0l0 34.26773l-293.6693 0z" fill-rule="evenodd"/><path fill="#000000" d="m420.75098 192.67177l0 -21.953125l4.65625 0l0 1.75l-2.546875 0l0 18.46875l2.546875 0l0 1.734375l-4.65625 0z" fill-rule="nonzero"/><path fill="#8e7cc3" d="m425.96582 187.90614l4.546875 -6.46875l-4.203125 -5.984375l2.640625 0l1.90625 2.921875q0.546875 0.828125 0.875 1.390625q0.515625 -0.765625 0.9375 -1.359375l2.109375 -2.953125l2.515625 0l-4.296875 5.859375l4.625 6.59375l-2.59375 0l-2.546875 -3.875l-0.6875 -1.03125l-3.265625 4.90625l-2.5625 0z" fill-rule="nonzero"/><path fill="#8e7cc3" d="m443.7627 196.90614l-1.40625 0l0 -8.96875q-0.515625 0.484375 -1.34375 0.96875q-0.8125 0.484375 -1.46875 0.734375l0 -1.359375q1.171875 -0.5625 2.046875 -1.34375q0.890625 -0.796875 1.265625 -1.53125l0.90625 0l0 11.5z" fill-rule="nonzero"/><path fill="#8e7cc3" d="m448.833 187.90614l0 -2.40625l2.390625 0l0 2.40625q0 1.328125 -0.46875 2.140625q-0.46875 0.8125 -1.484375 1.265625l-0.578125 -0.90625q0.65625 -0.296875 0.96875 -0.875q0.328125 -0.5625 0.359375 -1.625l-1.1875 0zm12.6796875 4.796875l-0.234375 -1.984375q0.703125 0.1875 1.21875 0.1875q0.703125 0 1.125 -0.234375q0.421875 -0.234375 0.6875 -0.65625q0.203125 -0.3125 0.640625 -1.5625q0.0625 -0.1875 0.1875 -0.515625l-4.71875 -12.484375l2.265625 0l2.59375 7.21875q0.5 1.359375 0.90625 2.875q0.359375 -1.453125 0.859375 -2.828125l2.671875 -7.265625l2.109375 0l-4.734375 12.671875q-0.765625 2.046875 -1.1875 2.8125q-0.5625 1.046875 -1.296875 1.53125q-0.71875 0.484375 -1.734375 0.484375q-0.609375 0 -1.359375 -0.25z" fill-rule="nonzero"/><path fill="#8e7cc3" d="m477.99707 196.90614l-1.40625 0l0 -8.96875q-0.515625 0.484375 -1.34375 0.96875q-0.8125 0.484375 -1.46875 0.734375l0 -1.359375q1.171875 -0.5625 2.046875 -1.34375q0.890625 -0.796875 1.265625 -1.53125l0.90625 0l0 11.5z" fill-rule="nonzero"/><path fill="#000000" d="m483.06738 187.90614l0 -2.40625l2.390625 0l0 2.40625q0 1.328125 -0.46875 2.140625q-0.46875 0.8125 -1.484375 1.265625l-0.578125 -0.90625q0.65625 -0.296875 0.96875 -0.875q0.328125 -0.5625 0.359375 -1.625l-1.1875 0z" fill-rule="nonzero"/><path fill="#ffff00" d="m494.43457 187.90614l4.546875 -6.46875l-4.203125 -5.984375l2.640625 0l1.90625 2.921875q0.546875 0.828125 0.875 1.390625q0.515625 -0.765625 0.9375 -1.359375l2.109375 -2.953125l2.515625 0l-4.296875 5.859375l4.625 6.59375l-2.59375 0l-2.546875 -3.875l-0.6875 -1.03125l-3.265625 4.90625l-2.5625 0z" fill-rule="nonzero"/><path fill="#ffff00" d="m514.3252 195.54677l0 1.359375l-7.578125 0q-0.015625 -0.515625 0.171875 -0.984375q0.28125 -0.765625 0.921875 -1.515625q0.640625 -0.75 1.84375 -1.734375q1.859375 -1.53125 2.515625 -2.421875q0.65625 -0.90625 0.65625 -1.703125q0 -0.828125 -0.59375 -1.40625q-0.59375 -0.578125 -1.5625 -0.578125q-1.015625 0 -1.625 0.609375q-0.609375 0.609375 -0.609375 1.6875l-1.453125 -0.140625q0.15625 -1.625 1.125 -2.46875q0.96875 -0.84375 2.59375 -0.84375q1.65625 0 2.609375 0.921875q0.96875 0.90625 0.96875 2.25q0 0.6875 -0.28125 1.359375q-0.28125 0.65625 -0.9375 1.390625q-0.65625 0.734375 -2.171875 2.015625q-1.265625 1.0625 -1.625 1.453125q-0.359375 0.375 -0.59375 0.75l5.625 0z" fill-rule="nonzero"/><path fill="#ffff00" d="m517.30176 187.90614l0 -2.40625l2.390625 0l0 2.40625q0 1.328125 -0.46875 2.140625q-0.46875 0.8125 -1.484375 1.265625l-0.578125 -0.90625q0.65625 -0.296875 0.96875 -0.875q0.328125 -0.5625 0.359375 -1.625l-1.1875 0zm12.6796875 4.796875l-0.234375 -1.984375q0.703125 0.1875 1.21875 0.1875q0.703125 0 1.125 -0.234375q0.421875 -0.234375 0.6875 -0.65625q0.203125 -0.3125 0.640625 -1.5625q0.0625 -0.1875 0.1875 -0.515625l-4.71875 -12.484375l2.265625 0l2.59375 7.21875q0.5 1.359375 0.90625 2.875q0.359375 -1.453125 0.859375 -2.828125l2.671875 -7.265625l2.109375 0l-4.734375 12.671875q-0.765625 2.046875 -1.1875 2.8125q-0.5625 1.046875 -1.296875 1.53125q-0.71875 0.484375 -1.734375 0.484375q-0.609375 0 -1.359375 -0.25z" fill-rule="nonzero"/><path fill="#ffff00" d="m548.5596 195.54677l0 1.359375l-7.578125 0q-0.015625 -0.515625 0.171875 -0.984375q0.28125 -0.765625 0.921875 -1.515625q0.640625 -0.75 1.84375 -1.734375q1.859375 -1.53125 2.515625 -2.421875q0.65625 -0.90625 0.65625 -1.703125q0 -0.828125 -0.59375 -1.40625q-0.59375 -0.578125 -1.5625 -0.578125q-1.015625 0 -1.625 0.609375q-0.609375 0.609375 -0.609375 1.6875l-1.453125 -0.140625q0.15625 -1.625 1.125 -2.46875q0.96875 -0.84375 2.59375 -0.84375q1.65625 0 2.609375 0.921875q0.96875 0.90625 0.96875 2.25q0 0.6875 -0.28125 1.359375q-0.28125 0.65625 -0.9375 1.390625q-0.65625 0.734375 -2.171875 2.015625q-1.265625 1.0625 -1.625 1.453125q-0.359375 0.375 -0.59375 0.75l5.625 0z" fill-rule="nonzero"/><path fill="#000000" d="m551.53613 187.90614l0 -2.40625l2.390625 0l0 2.40625q0 1.328125 -0.46875 2.140625q-0.46875 0.8125 -1.484375 1.265625l-0.578125 -0.90625q0.65625 -0.296875 0.96875 -0.875q0.328125 -0.5625 0.359375 -1.625l-1.1875 0z" fill-rule="nonzero"/><path fill="#f6b26b" d="m562.9033 187.90614l4.546875 -6.46875l-4.203125 -5.984375l2.640625 0l1.90625 2.921875q0.546875 0.828125 0.875 1.390625q0.515625 -0.765625 0.9375 -1.359375l2.109375 -2.953125l2.515625 0l-4.296875 5.859375l4.625 6.59375l-2.59375 0l-2.546875 -3.875l-0.6875 -1.03125l-3.265625 4.90625l-2.5625 0z" fill-rule="nonzero"/><path fill="#f6b26b" d="m575.4033 193.8749l1.40625 -0.1875q0.25 1.203125 0.828125 1.734375q0.578125 0.515625 1.421875 0.515625q0.984375 0 1.671875 -0.6875q0.6875 -0.6875 0.6875 -1.703125q0 -0.96875 -0.640625 -1.59375q-0.625 -0.625 -1.609375 -0.625q-0.390625 0 -0.984375 0.15625l0.15625 -1.234375q0.140625 0.015625 0.21875 0.015625q0.90625 0 1.625 -0.46875q0.71875 -0.46875 0.71875 -1.453125q0 -0.765625 -0.53125 -1.265625q-0.515625 -0.515625 -1.34375 -0.515625q-0.828125 0 -1.375 0.515625q-0.546875 0.515625 -0.703125 1.546875l-1.40625 -0.25q0.265625 -1.421875 1.171875 -2.1875q0.921875 -0.78125 2.28125 -0.78125q0.9375 0 1.71875 0.40625q0.796875 0.390625 1.203125 1.09375q0.421875 0.6875 0.421875 1.46875q0 0.75 -0.40625 1.359375q-0.390625 0.609375 -1.171875 0.96875q1.015625 0.234375 1.578125 0.96875q0.5625 0.734375 0.5625 1.84375q0 1.5 -1.09375 2.546875q-1.09375 1.046875 -2.765625 1.046875q-1.5 0 -2.5 -0.890625q-1.0 -0.90625 -1.140625 -2.34375z" fill-rule="nonzero"/><path fill="#f6b26b" d="m585.7705 187.90614l0 -2.40625l2.390625 0l0 2.40625q0 1.328125 -0.46875 2.140625q-0.46875 0.8125 -1.484375 1.265625l-0.578125 -0.90625q0.65625 -0.296875 0.96875 -0.875q0.328125 -0.5625 0.359375 -1.625l-1.1875 0zm12.6796875 4.796875l-0.234375 -1.984375q0.703125 0.1875 1.21875 0.1875q0.703125 0 1.125 -0.234375q0.421875 -0.234375 0.6875 -0.65625q0.203125 -0.3125 0.640625 -1.5625q0.0625 -0.1875 0.1875 -0.515625l-4.71875 -12.484375l2.265625 0l2.59375 7.21875q0.5 1.359375 0.90625 2.875q0.359375 -1.453125 0.859375 -2.828125l2.671875 -7.265625l2.109375 0l-4.734375 12.671875q-0.765625 2.046875 -1.1875 2.8125q-0.5625 1.046875 -1.296875 1.53125q-0.71875 0.484375 -1.734375 0.484375q-0.609375 0 -1.359375 -0.25z" fill-rule="nonzero"/><path fill="#f6b26b" d="m609.6377 193.8749l1.40625 -0.1875q0.25 1.203125 0.828125 1.734375q0.578125 0.515625 1.421875 0.515625q0.984375 0 1.671875 -0.6875q0.6875 -0.6875 0.6875 -1.703125q0 -0.96875 -0.640625 -1.59375q-0.625 -0.625 -1.609375 -0.625q-0.390625 0 -0.984375 0.15625l0.15625 -1.234375q0.140625 0.015625 0.21875 0.015625q0.90625 0 1.625 -0.46875q0.71875 -0.46875 0.71875 -1.453125q0 -0.765625 -0.53125 -1.265625q-0.515625 -0.515625 -1.34375 -0.515625q-0.828125 0 -1.375 0.515625q-0.546875 0.515625 -0.703125 1.546875l-1.40625 -0.25q0.265625 -1.421875 1.171875 -2.1875q0.921875 -0.78125 2.28125 -0.78125q0.9375 0 1.71875 0.40625q0.796875 0.390625 1.203125 1.09375q0.421875 0.6875 0.421875 1.46875q0 0.75 -0.40625 1.359375q-0.390625 0.609375 -1.171875 0.96875q1.015625 0.234375 1.578125 0.96875q0.5625 0.734375 0.5625 1.84375q0 1.5 -1.09375 2.546875q-1.09375 1.046875 -2.765625 1.046875q-1.5 0 -2.5 -0.890625q-1.0 -0.90625 -1.140625 -2.34375z" fill-rule="nonzero"/><path fill="#000000" d="m622.97363 192.67177l-4.65625 0l0 -1.734375l2.546875 0l0 -18.46875l-2.546875 0l0 -1.75l4.65625 0l0 21.953125z" fill-rule="nonzero"/><path fill="#000000" fill-opacity="0.0" d="m70.50131 24.501312l312.0 312.0" fill-rule="evenodd"/><path stroke="#000000" stroke-width="2.0" stroke-linejoin="round" stroke-linecap="butt" stroke-dasharray="8.0,6.0" d="m70.50131 24.501312l312.0 312.0" fill-rule="evenodd"/><path fill="#000000" fill-opacity="0.0" d="m131.94489 135.34776l22.960632 -22.960632" fill-rule="evenodd"/><path stroke="#000000" stroke-width="2.0" stroke-linejoin="round" stroke-linecap="butt" stroke-dasharray="8.0,6.0" d="m131.94489 135.34776l22.960632 -22.960632" fill-rule="evenodd"/><path fill="#000000" fill-opacity="0.0" d="m260.9449 234.0013l9.51181 -9.543304" fill-rule="evenodd"/><path stroke="#000000" stroke-width="2.0" stroke-linejoin="round" stroke-linecap="butt" stroke-dasharray="8.0,6.0" d="m260.9449 234.0013l9.51181 -9.543304" fill-rule="evenodd"/><path fill="#000000" fill-opacity="0.0" d="m261.4042 212.90552l66.58267 -66.58269" fill-rule="evenodd"/><path stroke="#000000" stroke-width="2.0" stroke-linejoin="round" stroke-linecap="butt" stroke-dasharray="8.0,6.0" d="m261.4042 212.90552l66.58267 -66.58269" fill-rule="evenodd"/></g></svg>