<svg version="1.1" viewBox="0.0 0.0 626.0 344.0" fill="none" stroke="none" stroke-linecap="square" stroke-miterlimit="10" xmlns:xlink="http://www.w3.org/1999/xlink" xmlns="http://www.w3.org/2000/svg"><clipPath id="p.0"><path d="m0 0l626.0 0l0 344.0l-626.0 0l0 -344.0z" clip-rule="nonzero"/></clipPath><g clip-path="url(#p.0)"><path fill="#000000" fill-opacity="0.0" d="m0 0l626.0 0l0 344.0l-626.0 0z" fill-rule="evenodd"/><defs><linearGradient id="p.1" gradientUnits="userSpaceOnUse" gradientTransform="matrix(11.611506991430755 0.0 0.0 11.611506991430755 0.0 0.0)" spreadMethod="pad" x1="20.616710328138733" y1="1.314398229720508" x2="20.616669711469832" y2="12.925905221080226"><stop offset="0.0" stop-color="#fff6db"/><stop offset="1.0" stop-color="#fad25c"/></linearGradient></defs><path fill="url(#p.1)" d="m272.37534 15.262467l-32.984253 99.32021l89.04199 35.506554z" fill-rule="evenodd"/><path stroke="#666666" stroke-width="1.0" stroke-linejoin="round" stroke-linecap="butt" d="m272.37534 15.262467l-32.984253 99.32021l89.04199 35.506554z" fill-rule="evenodd"/><defs><linearGradient id="p.2" gradientUnits="userSpaceOnUse" gradientTransform="matrix(11.619084384111751 0.0 0.0 11.619084384111751 0.0 0.0)" spreadMethod="pad" x1="23.452907589567353" y1="1.3297903523607468" x2="23.45286523459617" y2="12.9488747363953"><stop offset="0.0" stop-color="#fff6db"/><stop offset="1.0" stop-color="#fad25c"/></linearGradient></defs><path fill="url(#p.2)" d="m328.6168 150.45407l81.39633 -34.052498l-137.51181 -100.95013z" fill-rule="evenodd"/><path stroke="#666666" stroke-width="1.0" stroke-linejoin="round" stroke-linecap="butt" d="m328.6168 150.45407l81.39633 -34.052498l-137.51181 -100.95013z" fill-rule="evenodd"/><defs><linearGradient id="p.3" gradientUnits="userSpaceOnUse" gradientTransform="matrix(10.071158405464992 0.0 0.0 10.071158405464992 0.0 0.0)" spreadMethod="pad" x1="21.654310330673752" y1="11.413232436340559" x2="21.654273682010974" y2="21.48439084173887"><stop offset="0.0" stop-color="#fff6db"/><stop offset="1.0" stop-color="#fad25c"/></linearGradient></defs><path fill="url(#p.3)" d="m218.08398 177.03937l20.94226 -62.094482l90.136475 35.690292l1.8215332 65.73752z" fill-rule="evenodd"/><path stroke="#666666" stroke-width="1.0" stroke-linejoin="round" stroke-linecap="butt" d="m218.08398 177.03937l20.94226 -62.094482l90.136475 35.690292l1.8215332 65.73752z" fill-rule="evenodd"/><defs><linearGradient id="p.4" gradientUnits="userSpaceOnUse" gradientTransform="matrix(13.766530343364577 0.0 0.0 13.766530343364577 0.0 0.0)" spreadMethod="pad" x1="23.870705958866004" y1="8.445277565637557" x2="23.87065680536026" y2="22.21180790891438"><stop offset="0.0" stop-color="#fff6db"/><stop offset="1.0" stop-color="#fad25c"/></linearGradient></defs><path fill="url(#p.4)" d="m330.61942 216.5538l73.74805 89.22574l5.7585144 -189.51707l-81.509186 34.010498z" fill-rule="evenodd"/><path stroke="#666666" stroke-width="1.0" stroke-linejoin="round" stroke-linecap="butt" d="m330.61942 216.5538l73.74805 89.22574l5.7585144 -189.51707l-81.509186 34.010498z" fill-rule="evenodd"/><defs><linearGradient id="p.5" gradientUnits="userSpaceOnUse" gradientTransform="matrix(14.306380605975612 0.0 0.0 14.306380605975612 0.0 0.0)" spreadMethod="pad" x1="7.247651722524815" y1="1.072290591199971" x2="7.247599407294174" y2="15.37867119707993"><stop offset="0.0" stop-color="#dbd4eb"/><stop offset="1.0" stop-color="#9180bb"/></linearGradient></defs><path fill="url(#p.5)" d="m272.3491 15.3412075l-110.71391 22.580053l-57.94751 20.779526l10.603668 97.215225l88.8609 64.09711z" fill-rule="evenodd"/><path stroke="#666666" stroke-width="1.0" stroke-linejoin="round" stroke-linecap="butt" d="m272.3491 15.3412075l-110.71391 22.580053l-57.94751 20.779526l10.603668 97.215225l88.8609 64.09711z" fill-rule="evenodd"/><defs><linearGradient id="p.6" gradientUnits="userSpaceOnUse" gradientTransform="matrix(13.151364362589613 0.0 0.0 13.151364362589613 0.0 0.0)" spreadMethod="pad" x1="0.7224582996867953" y1="4.461849665275292" x2="0.7224106474686838" y2="17.61321402777857"><stop offset="0.0" stop-color="#dbd4eb"/><stop offset="1.0" stop-color="#9180bb"/></linearGradient></defs><path fill="url(#p.6)" d="m103.72966 58.67979l-73.2021 25.85564l-21.026247 147.10237l104.608925 -75.72179z" fill-rule="evenodd"/><path stroke="#666666" stroke-width="1.0" stroke-linejoin="round" stroke-linecap="butt" d="m103.72966 58.67979l-73.2021 25.85564l-21.026247 147.10237l104.608925 -75.72179z" fill-rule="evenodd"/><defs><linearGradient id="p.7" gradientUnits="userSpaceOnUse" gradientTransform="matrix(11.378396153808303 0.0 0.0 11.378396153808303 0.0 0.0)" spreadMethod="pad" x1="0.8264960498776507" y1="13.718895703017012" x2="0.8264548826706589" y2="25.097291856750843"><stop offset="0.0" stop-color="#dbd4eb"/><stop offset="1.0" stop-color="#9180bb"/></linearGradient></defs><path fill="url(#p.7)" d="m9.4042 231.6693l96.874016 53.89763l97.05774 -66.64566l-89.40945 -62.821533z" fill-rule="evenodd"/><path stroke="#666666" stroke-width="1.0" stroke-linejoin="round" stroke-linecap="butt" d="m9.4042 231.6693l96.874016 53.89763l97.05774 -66.64566l-89.40945 -62.821533z" fill-rule="evenodd"/><defs><linearGradient id="p.8" gradientUnits="userSpaceOnUse" gradientTransform="matrix(10.382732785378208 0.0 0.0 10.382732785378208 0.0 0.0)" spreadMethod="pad" x1="10.233273457798104" y1="21.049931632306055" x2="10.23323593398375" y2="31.432664417616458"><stop offset="0.0" stop-color="#fdecdb"/><stop offset="1.0" stop-color="#f0a963"/></linearGradient></defs><path fill="url(#p.8)" d="m106.249344 285.6378l89.619415 37.07611l83.03676 3.6430664l-3.4042053 -66.71918l-72.349075 -41.08136z" fill-rule="evenodd"/><path stroke="#666666" stroke-width="1.0" stroke-linejoin="round" stroke-linecap="butt" d="m106.249344 285.6378l89.619415 37.07611l83.03676 3.6430664l-3.4042053 -66.71918l-72.349075 -41.08136z" fill-rule="evenodd"/><defs><linearGradient id="p.9" gradientUnits="userSpaceOnUse" gradientTransform="matrix(9.07235017678625 0.0 0.0 9.07235017678625 0.0 0.0)" spreadMethod="pad" x1="22.39245917677886" y1="19.554332108289803" x2="22.39242527390539" y2="28.626682285012706"><stop offset="0.0" stop-color="#fdecdb"/><stop offset="1.0" stop-color="#f0a963"/></linearGradient></defs><path fill="url(#p.9)" d="m203.15224 218.92126l14.56955 -41.51706l112.90288 38.48294l-54.997375 43.824127z" fill-rule="evenodd"/><path stroke="#666666" stroke-width="1.0" stroke-linejoin="round" stroke-linecap="butt" d="m203.15224 218.92126l14.56955 -41.51706l112.90288 38.48294l-54.997375 43.824127z" fill-rule="evenodd"/><defs><linearGradient id="p.10" gradientUnits="userSpaceOnUse" gradientTransform="matrix(10.67673063725386 0.0 0.0 10.67673063725386 0.0 0.0)" spreadMethod="pad" x1="25.815702011455823" y1="20.231607431076043" x2="25.81566360035407" y2="30.908338068260807"><stop offset="0.0" stop-color="#fdecdb"/><stop offset="1.0" stop-color="#f0a963"/></linearGradient></defs><path fill="url(#p.10)" d="m278.90552 326.35696l76.11548 3.643036l49.527557 -23.67453l-74.11023 -90.3176l-54.811035 43.7034z" fill-rule="evenodd"/><path stroke="#666666" stroke-width="1.0" stroke-linejoin="round" stroke-linecap="butt" d="m278.90552 326.35696l76.11548 3.643036l49.527557 -23.67453l-74.11023 -90.3176l-54.811035 43.7034z" fill-rule="evenodd"/><path fill="#000000" fill-opacity="0.0" d="m408.0 -217.2546l215.52759 0l0 167.9685l-215.52759 0z" fill-rule="evenodd"/><path fill="#000000" d="m421.9923 -180.44897l0 -21.953125l4.65625 0l0 1.75l-2.546875 0l0 18.46875l2.546875 0l0 1.734375l-4.65625 0zm13.980469 -4.765625l-2.109375 0l0 -13.4375q-0.75 0.71875 -2.0 1.453125q-1.234375 0.71875 -2.21875 1.078125l0 -2.03125q1.78125 -0.828125 3.09375 -2.015625q1.328125 -1.1875 1.875 -2.296875l1.359375 0l0 17.25zm6.5507812 0l0 -2.40625l2.390625 0l0 2.40625q0 1.328125 -0.46875 2.140625q-0.46875 0.8125 -1.484375 1.265625l-0.578125 -0.90625q0.65625 -0.296875 0.96875 -0.875q0.328125 -0.5625 0.359375 -1.625l-1.1875 0zm5.5273438 -8.46875q0 -3.046875 0.625 -4.90625q0.625 -1.859375 1.859375 -2.859375q1.234375 -1.015625 3.109375 -1.015625q1.390625 0 2.421875 0.5625q1.046875 0.546875 1.71875 1.59375q0.6875 1.046875 1.078125 2.5625q0.390625 1.5 0.390625 4.0625q0 3.015625 -0.625 4.875q-0.625 1.859375 -1.859375 2.875q-1.234375 1.015625 -3.125 1.015625q-2.484375 0 -3.890625 -1.78125q-1.703125 -2.15625 -1.703125 -6.984375zm2.171875 0q0 4.21875 0.984375 5.625q0.984375 1.40625 2.4375 1.40625q1.453125 0 2.4375 -1.40625q1.0 -1.40625 1.0 -5.625q0 -4.25 -1.0 -5.640625q-0.984375 -1.390625 -2.453125 -1.390625q-1.453125 0 -2.328125 1.21875q-1.078125 1.578125 -1.078125 5.8125zm12.316406 8.46875l0 -2.40625l2.390625 0l0 2.40625q0 1.328125 -0.46875 2.140625q-0.46875 0.8125 -1.484375 1.265625l-0.578125 -0.90625q0.65625 -0.296875 0.96875 -0.875q0.328125 -0.5625 0.359375 -1.625l-1.1875 0zm5.5273438 -8.46875q0 -3.046875 0.625 -4.90625q0.625 -1.859375 1.859375 -2.859375q1.234375 -1.015625 3.109375 -1.015625q1.390625 0 2.421875 0.5625q1.046875 0.546875 1.71875 1.59375q0.6875 1.046875 1.078125 2.5625q0.390625 1.5 0.390625 4.0625q0 3.015625 -0.625 4.875q-0.625 1.859375 -1.859375 2.875q-1.234375 1.015625 -3.125 1.015625q-2.484375 0 -3.890625 -1.78125q-1.703125 -2.15625 -1.703125 -6.984375zm2.171875 0q0 4.21875 0.984375 5.625q0.984375 1.40625 2.4375 1.40625q1.453125 0 2.4375 -1.40625q1.0 -1.40625 1.0 -5.625q0 -4.25 -1.0 -5.640625q-0.984375 -1.390625 -2.453125 -1.390625q-1.453125 0 -2.328125 1.21875q-1.078125 1.578125 -1.078125 5.8125zm12.316406 8.46875l0 -2.40625l2.390625 0l0 2.40625q0 1.328125 -0.46875 2.140625q-0.46875 0.8125 -1.484375 1.265625l-0.578125 -0.90625q0.65625 -0.296875 0.96875 -0.875q0.328125 -0.5625 0.359375 -1.625l-1.1875 0zm13.464844 0l-2.109375 0l0 -13.4375q-0.75 0.71875 -2.0 1.453125q-1.234375 0.71875 -2.21875 1.078125l0 -2.03125q1.78125 -0.828125 3.09375 -2.015625q1.328125 -1.1875 1.875 -2.296875l1.359375 0l0 17.25zm6.5507812 0l0 -2.40625l2.390625 0l0 2.40625q0 1.328125 -0.46875 2.140625q-0.46875 0.8125 -1.484375 1.265625l-0.578125 -0.90625q0.65625 -0.296875 0.96875 -0.875q0.328125 -0.5625 0.359375 -1.625l-1.1875 0zm13.464844 0l-2.109375 0l0 -13.4375q-0.75 0.71875 -2.0 1.453125q-1.234375 0.71875 -2.21875 1.078125l0 -2.03125q1.78125 -0.828125 3.09375 -2.015625q1.328125 -1.1875 1.875 -2.296875l1.359375 0l0 17.25zm6.5507812 0l0 -2.40625l2.390625 0l0 2.40625q0 1.328125 -0.46875 2.140625q-0.46875 0.8125 -1.484375 1.265625l-0.578125 -0.90625q0.65625 -0.296875 0.96875 -0.875q0.328125 -0.5625 0.359375 -1.625l-1.1875 0zm13.464844 0l-2.109375 0l0 -13.4375q-0.75 0.71875 -2.0 1.453125q-1.234375 0.71875 -2.21875 1.078125l0 -2.03125q1.78125 -0.828125 3.09375 -2.015625q1.328125 -1.1875 1.875 -2.296875l1.359375 0l0 17.25zm6.5507812 0l0 -2.40625l2.390625 0l0 2.40625q0 1.328125 -0.46875 2.140625q-0.46875 0.8125 -1.484375 1.265625l-0.578125 -0.90625q0.65625 -0.296875 0.96875 -0.875q0.328125 -0.5625 0.359375 -1.625l-1.1875 0zm5.5273438 -8.46875q0 -3.046875 0.625 -4.90625q0.625 -1.859375 1.859375 -2.859375q1.234375 -1.015625 3.109375 -1.015625q1.390625 0 2.421875 0.5625q1.046875 0.546875 1.71875 1.59375q0.6875 1.046875 1.078125 2.5625q0.390625 1.5 0.390625 4.0625q0 3.015625 -0.625 4.875q-0.625 1.859375 -1.859375 2.875q-1.234375 1.015625 -3.125 1.015625q-2.484375 0 -3.890625 -1.78125q-1.703125 -2.15625 -1.703125 -6.984375zm2.171875 0q0 4.21875 0.984375 5.625q0.984375 1.40625 2.4375 1.40625q1.453125 0 2.4375 -1.40625q1.0 -1.40625 1.0 -5.625q0 -4.25 -1.0 -5.640625q-0.984375 -1.390625 -2.453125 -1.390625q-1.453125 0 -2.328125 1.21875q-1.078125 1.578125 -1.078125 5.8125zm12.316406 8.46875l0 -2.40625l2.390625 0l0 2.40625q0 1.328125 -0.46875 2.140625q-0.46875 0.8125 -1.484375 1.265625l-0.578125 -0.90625q0.65625 -0.296875 0.96875 -0.875q0.328125 -0.5625 0.359375 -1.625l-1.1875 0zm13.464844 0l-2.109375 0l0 -13.4375q-0.75 0.71875 -2.0 1.453125q-1.234375 0.71875 -2.21875 1.078125l0 -2.03125q1.78125 -0.828125 3.09375 -2.015625q1.328125 -1.1875 1.875 -2.296875l1.359375 0l0 17.25zm7.2070312 0l0 -2.40625l2.40625 0l0 2.40625l-2.40625 0zm8.015625 0l0 -2.40625l2.390625 0l0 2.40625l-2.390625 0zm7.984375 0l0 -2.40625l2.421875 0l0 2.40625l-2.421875 0zm10.3125 4.765625l-4.65625 0l0 -1.734375l2.546875 0l0 -18.46875l-2.546875 0l0 -1.75l4.65625 0l0 21.953125z" fill-rule="nonzero"/><path fill="#ffffff" d="m512.2638 -179.2546l7.0 0l0 16.800003l-7.0 0l0 -16.800003z" fill-rule="nonzero"/><path fill="#000000" fill-opacity="0.0" d="m512.2638 -178.48842l7.0 0l0 16.098633l-7.0 0l0 -16.098633z" fill-rule="nonzero"/><path fill="#222222" d="m513.31067 -165.70522l0 -0.515625q0.8125 0.40625 1.125 0.609375q0.328125 0.203125 0.984375 0.71875l0 -10.078125l0.6875 0l0 10.078125q0.75 -0.703125 2.125 -1.34375l0 0.53125q-0.984375 0.875 -1.5 1.5q-0.515625 0.640625 -0.828125 1.328125l-0.3125 0q-0.265625 -0.59375 -0.78125 -1.265625q-0.515625 -0.65625 -1.5 -1.5625z" fill-rule="nonzero"/><path fill="#000000" d="m492.94934 -139.2146l0 -17.1875l6.46875 0q1.71875 0 2.625 0.171875q1.265625 0.203125 2.109375 0.796875q0.859375 0.59375 1.375 1.671875q0.53125 1.0625 0.53125 2.328125q0 2.203125 -1.40625 3.71875q-1.390625 1.515625 -5.03125 1.515625l-4.40625 0l0 6.984375l-2.265625 0zm2.265625 -9.015625l4.4375 0q2.203125 0 3.125 -0.8125q0.9375 -0.828125 0.9375 -2.3125q0 -1.078125 -0.546875 -1.84375q-0.546875 -0.765625 -1.4375 -1.015625q-0.578125 -0.15625 -2.125 -0.15625l-4.390625 0l0 6.140625zm25.992188 2.984375l2.28125 0.578125q-0.71875 2.796875 -2.578125 4.28125q-1.859375 1.46875 -4.546875 1.46875q-2.765625 0 -4.515625 -1.125q-1.734375 -1.140625 -2.640625 -3.28125q-0.90625 -2.15625 -0.90625 -4.609375q0 -2.6875 1.015625 -4.6875q1.03125 -2.0 2.921875 -3.03125q1.890625 -1.03125 4.171875 -1.03125q2.578125 0 4.328125 1.3125q1.765625 1.3125 2.453125 3.6875l-2.234375 0.53125q-0.609375 -1.875 -1.75 -2.734375q-1.125 -0.859375 -2.84375 -0.859375q-1.984375 0 -3.3125 0.953125q-1.328125 0.953125 -1.875 2.546875q-0.53125 1.59375 -0.53125 3.296875q0 2.1875 0.625 3.828125q0.640625 1.640625 1.984375 2.453125q1.359375 0.796875 2.921875 0.796875q1.921875 0 3.234375 -1.09375q1.328125 -1.109375 1.796875 -3.28125zm3.1914062 6.03125l6.59375 -17.1875l2.453125 0l7.03125 17.1875l-2.59375 0l-2.0 -5.203125l-7.1875 0l-1.890625 5.203125l-2.40625 0zm4.953125 -7.0625l5.828125 0l-1.796875 -4.75q-0.8125 -2.171875 -1.21875 -3.5625q-0.328125 1.65625 -0.921875 3.28125l-1.890625 5.03125z" fill-rule="nonzero"/><path fill="#ffffff" d="m512.2638 -133.2546l7.0 0l0 16.800003l-7.0 0l0 -16.800003z" fill-rule="nonzero"/><path fill="#000000" fill-opacity="0.0" d="m512.2638 -132.48842l7.0 0l0 16.098633l-7.0 0l0 -16.098633z" fill-rule="nonzero"/><path fill="#222222" d="m513.31067 -119.705215l0 -0.515625q0.8125 0.40625 1.125 0.609375q0.328125 0.203125 0.984375 0.71875l0 -10.078125l0.6875 0l0 10.078125q0.75 -0.703125 2.125 -1.34375l0 0.53125q-0.984375 0.875 -1.5 1.5q-0.515625 0.640625 -0.828125 1.328125l-0.3125 0q-0.265625 -0.59375 -0.78125 -1.265625q-0.515625 -0.65625 -1.5 -1.5625z" fill-rule="nonzero"/><path fill="#000000" d="m457.36145 -88.44896l0 -21.953133l4.65625 0l0 1.75l-2.546875 0l0 18.46875l2.546875 0l0 1.7343826l-4.65625 0zm7.1367188 -4.7656326l0 -10.8125l-1.875 0l0 -1.640625l1.875 0l0 -1.3125q0 -1.265625 0.21875 -1.875q0.296875 -0.8125 1.0625 -1.3125q0.78125 -0.515625 2.15625 -0.515625q0.890625 0 1.96875 0.203125l-0.3125 1.84375q-0.65625 -0.125 -1.25 -0.125q-0.953125 0 -1.359375 0.421875q-0.390625 0.40625 -0.390625 1.53125l0 1.140625l2.421875 0l0 1.640625l-2.421875 0l0 10.8125l-2.09375 0z" fill-rule="nonzero"/><path fill="#000000" d="m475.04114 -84.214584l-1.40625 0l0 -8.96875q-0.515625 0.484375 -1.34375 0.96875q-0.8125 0.484375 -1.46875 0.734375l0 -1.359375q1.171875 -0.5625 2.046875 -1.34375q0.890625 -0.796875 1.265625 -1.53125l0.90625 0l0 11.5z" fill-rule="nonzero"/><path fill="#000000" d="m480.11145 -93.21459l0 -2.40625l2.390625 0l0 2.40625q0 1.328125 -0.46875 2.140625q-0.46875 0.8125 -1.484375 1.265625l-0.578125 -0.90625q0.65625 -0.296875 0.96875 -0.875q0.328125 -0.5625 0.359375 -1.625l-1.1875 0zm6.6210938 0l0 -10.8125l-1.875 0l0 -1.640625l1.875 0l0 -1.3125q0 -1.265625 0.21875 -1.875q0.296875 -0.8125 1.0625 -1.3125q0.78125 -0.515625 2.15625 -0.515625q0.890625 0 1.96875 0.203125l-0.3125 1.84375q-0.65625 -0.125 -1.25 -0.125q-0.953125 0 -1.359375 0.421875q-0.390625 0.40625 -0.390625 1.53125l0 1.140625l2.421875 0l0 1.640625l-2.421875 0l0 10.8125l-2.09375 0z" fill-rule="nonzero"/><path fill="#000000" d="m499.36926 -85.57396l0 1.359375l-7.578125 0q-0.015625 -0.515625 0.171875 -0.984375q0.28125 -0.765625 0.921875 -1.515625q0.640625 -0.75 1.84375 -1.734375q1.859375 -1.53125 2.515625 -2.421875q0.65625 -0.90625 0.65625 -1.703125q0 -0.828125 -0.59375 -1.40625q-0.59375 -0.578125 -1.5625 -0.578125q-1.015625 0 -1.625 0.609375q-0.609375 0.609375 -0.609375 1.6875l-1.453125 -0.140625q0.15625 -1.625 1.125 -2.46875q0.96875 -0.84375 2.59375 -0.84375q1.65625 0 2.609375 0.921875q0.96875 0.90625 0.96875 2.25q0 0.6875 -0.28125 1.359375q-0.28125 0.65625 -0.9375 1.390625q-0.65625 0.734375 -2.171875 2.015625q-1.265625 1.0625 -1.625 1.453125q-0.359375 0.375 -0.59375 0.75l5.625 0z" fill-rule="nonzero"/><path fill="#000000" d="m502.34583 -93.21459l0 -2.40625l2.390625 0l0 2.40625q0 1.328125 -0.46875 2.140625q-0.46875 0.8125 -1.484375 1.265625l-0.578125 -0.90625q0.65625 -0.296875 0.96875 -0.875q0.328125 -0.5625 0.359375 -1.625l-1.1875 0zm6.6210938 0l0 -10.8125l-1.875 0l0 -1.640625l1.875 0l0 -1.3125q0 -1.265625 0.21875 -1.875q0.296875 -0.8125 1.0625 -1.3125q0.78125 -0.515625 2.15625 -0.515625q0.890625 0 1.96875 0.203125l-0.3125 1.84375q-0.65625 -0.125 -1.25 -0.125q-0.953125 0 -1.359375 0.421875q-0.390625 0.40625 -0.390625 1.53125l0 1.140625l2.421875 0l0 1.640625l-2.421875 0l0 10.8125l-2.09375 0z" fill-rule="nonzero"/><path fill="#000000" d="m514.213 -87.245834l1.40625 -0.1875q0.25 1.203125 0.828125 1.734375q0.578125 0.515625 1.421875 0.515625q0.984375 0 1.671875 -0.6875q0.6875 -0.6875 0.6875 -1.703125q0 -0.96875 -0.640625 -1.59375q-0.625 -0.625 -1.609375 -0.625q-0.390625 0 -0.984375 0.15625l0.15625 -1.234375q0.140625 0.015625 0.21875 0.015625q0.90625 0 1.625 -0.46875q0.71875 -0.46875 0.71875 -1.453125q0 -0.765625 -0.53125 -1.265625q-0.515625 -0.515625 -1.34375 -0.515625q-0.828125 0 -1.375 0.515625q-0.546875 0.515625 -0.703125 1.546875l-1.40625 -0.25q0.265625 -1.421875 1.171875 -2.1875q0.921875 -0.78125 2.28125 -0.78125q0.9375 0 1.71875 0.40625q0.796875 0.390625 1.203125 1.09375q0.421875 0.6875 0.421875 1.46875q0 0.75 -0.40625 1.359375q-0.390625 0.609375 -1.171875 0.96875q1.015625 0.234375 1.578125 0.96875q0.5625 0.734375 0.5625 1.84375q0 1.5 -1.09375 2.546875q-1.09375 1.046875 -2.765625 1.046875q-1.5 0 -2.5 -0.890625q-1.0 -0.90625 -1.140625 -2.34375z" fill-rule="nonzero"/><path fill="#000000" d="m524.5802 -93.21459l0 -2.40625l2.390625 0l0 2.40625q0 1.328125 -0.46875 2.140625q-0.46875 0.8125 -1.484375 1.265625l-0.578125 -0.90625q0.65625 -0.296875 0.96875 -0.875q0.328125 -0.5625 0.359375 -1.625l-1.1875 0zm6.6210938 0l0 -10.8125l-1.875 0l0 -1.640625l1.875 0l0 -1.3125q0 -1.265625 0.21875 -1.875q0.296875 -0.8125 1.0625 -1.3125q0.78125 -0.515625 2.15625 -0.515625q0.890625 0 1.96875 0.203125l-0.3125 1.84375q-0.65625 -0.125 -1.25 -0.125q-0.953125 0 -1.359375 0.421875q-0.390625 0.40625 -0.390625 1.53125l0 1.140625l2.421875 0l0 1.640625l-2.421875 0l0 10.8125l-2.09375 0z" fill-rule="nonzero"/><path fill="#000000" d="m540.9474 -84.214584l0 -2.75l-4.96875 0l0 -1.28125l5.234375 -7.421875l1.140625 0l0 7.421875l1.546875 0l0 1.28125l-1.546875 0l0 2.75l-1.40625 0zm0 -4.03125l0 -5.171875l-3.578125 5.171875l3.578125 0zm5.1484375 4.03125l0 -1.609375l1.609375 0l0 1.609375q0 0.890625 -0.3125 1.421875q-0.3125 0.546875 -1.0 0.84375l-0.390625 -0.59375q0.453125 -0.203125 0.65625 -0.578125q0.21875 -0.375 0.234375 -1.09375l-0.796875 0z" fill-rule="nonzero"/><path fill="#000000" d="m551.30676 -93.21459l0 -2.40625l2.390625 0l0 2.40625l-2.390625 0zm6.6679688 0l0 -2.40625l2.390625 0l0 2.40625l-2.390625 0zm6.6679688 0l0 -2.40625l2.390625 0l0 2.40625l-2.390625 0zm9.589844 4.7656326l-4.65625 0l0 -1.7343826l2.546875 0l0 -18.46875l-2.546875 0l0 -1.75l4.65625 0l0 21.953133z" fill-rule="nonzero"/><defs><linearGradient id="p.11" gradientUnits="userSpaceOnUse" gradientTransform="matrix(11.611507212176676 0.0 0.0 11.611507212176676 0.0 0.0)" spreadMethod="pad" x1="20.61670993619524" y1="-27.622414130358482" x2="20.616667553585017" y2="-16.010906918259156"><stop offset="0.0" stop-color="#fff6db"/><stop offset="1.0" stop-color="#fad25c"/></linearGradient></defs><path fill="url(#p.11)" d="m272.37534 -320.73752l-32.984253 99.32019l89.04199 35.50656z" fill-rule="evenodd"/><path stroke="#666666" stroke-width="1.0" stroke-linejoin="round" stroke-linecap="butt" d="m272.37534 -320.73752l-32.984253 99.32019l89.04199 35.50656z" fill-rule="evenodd"/><defs><linearGradient id="p.12" gradientUnits="userSpaceOnUse" gradientTransform="matrix(11.619084163512941 0.0 0.0 11.619084163512941 0.0 0.0)" spreadMethod="pad" x1="23.45290803484199" y1="-27.58815101477971" x2="23.452865679870005" y2="-15.96906685134397"><stop offset="0.0" stop-color="#fff6db"/><stop offset="1.0" stop-color="#fad25c"/></linearGradient></defs><path fill="url(#p.12)" d="m328.6168 -185.54593l81.39633 -34.05249l-137.51181 -100.950134z" fill-rule="evenodd"/><path stroke="#666666" stroke-width="1.0" stroke-linejoin="round" stroke-linecap="butt" d="m328.6168 -185.54593l81.39633 -34.05249l-137.51181 -100.950134z" fill-rule="evenodd"/><defs><linearGradient id="p.13" gradientUnits="userSpaceOnUse" gradientTransform="matrix(10.07115738744653 0.0 0.0 10.07115738744653 0.0 0.0)" spreadMethod="pad" x1="21.65431251954707" y1="-21.94936482528954" x2="21.654275870880586" y2="-11.878207437909692"><stop offset="0.0" stop-color="#fff6db"/><stop offset="1.0" stop-color="#fad25c"/></linearGradient></defs><path fill="url(#p.13)" d="m218.08398 -158.96063l20.94226 -62.094482l90.136475 35.690292l1.8215332 65.737526z" fill-rule="evenodd"/><path stroke="#666666" stroke-width="1.0" stroke-linejoin="round" stroke-linecap="butt" d="m218.08398 -158.96063l20.94226 -62.094482l90.136475 35.690292l1.8215332 65.737526z" fill-rule="evenodd"/><defs><linearGradient id="p.14" gradientUnits="userSpaceOnUse" gradientTransform="matrix(13.766529970992229 0.0 0.0 13.766529970992229 0.0 0.0)" spreadMethod="pad" x1="23.870706604547294" y1="-15.96174347093308" x2="23.870655961540006" y2="-2.195213500034005"><stop offset="0.0" stop-color="#fff6db"/><stop offset="1.0" stop-color="#fad25c"/></linearGradient></defs><path fill="url(#p.14)" d="m330.61942 -119.4462l73.74805 89.22572l5.7585144 -189.51706l-81.509186 34.010498z" fill-rule="evenodd"/><path stroke="#666666" stroke-width="1.0" stroke-linejoin="round" stroke-linecap="butt" d="m330.61942 -119.4462l73.74805 89.22572l5.7585144 -189.51706l-81.509186 34.010498z" fill-rule="evenodd"/><defs><linearGradient id="p.15" gradientUnits="userSpaceOnUse" gradientTransform="matrix(14.306380785136058 0.0 0.0 14.306380785136058 0.0 0.0)" spreadMethod="pad" x1="7.247651631761642" y1="-22.41373360770289" x2="7.247600033178641" y2="-8.107352822659884"><stop offset="0.0" stop-color="#dbd4eb"/><stop offset="1.0" stop-color="#9180bb"/></linearGradient></defs><path fill="url(#p.15)" d="m272.3491 -320.65878l-110.71391 22.580048l-57.94751 20.77951l10.603668 97.21524l88.8609 64.09711z" fill-rule="evenodd"/><path stroke="#666666" stroke-width="1.0" stroke-linejoin="round" stroke-linecap="butt" d="m272.3491 -320.65878l-110.71391 22.580048l-57.94751 20.77951l10.603668 97.21524l88.8609 64.09711z" fill-rule="evenodd"/><defs><linearGradient id="p.16" gradientUnits="userSpaceOnUse" gradientTransform="matrix(13.151363972796322 0.0 0.0 13.151363972796322 0.0 0.0)" spreadMethod="pad" x1="0.7224583210997375" y1="-21.086830205739936" x2="0.7224107176043644" y2="-7.935466233029769"><stop offset="0.0" stop-color="#dbd4eb"/><stop offset="1.0" stop-color="#9180bb"/></linearGradient></defs><path fill="url(#p.16)" d="m103.72966 -277.32022l-73.2021 25.855652l-21.026247 147.10236l104.608925 -75.72178z" fill-rule="evenodd"/><path stroke="#666666" stroke-width="1.0" stroke-linejoin="round" stroke-linecap="butt" d="m103.72966 -277.32022l-73.2021 25.855652l-21.026247 147.10236l104.608925 -75.72178z" fill-rule="evenodd"/><defs><linearGradient id="p.17" gradientUnits="userSpaceOnUse" gradientTransform="matrix(11.378395703277985 0.0 0.0 11.378395703277985 0.0 0.0)" spreadMethod="pad" x1="0.8264960826029608" y1="-15.81074910181247" x2="0.826454915394339" y2="-4.4323533986089565"><stop offset="0.0" stop-color="#dbd4eb"/><stop offset="1.0" stop-color="#9180bb"/></linearGradient></defs><path fill="url(#p.17)" d="m9.4042 -104.33071l96.874016 53.89764l97.05774 -66.645676l-89.40945 -62.821526z" fill-rule="evenodd"/><path stroke="#666666" stroke-width="1.0" stroke-linejoin="round" stroke-linecap="butt" d="m9.4042 -104.33071l96.874016 53.89764l97.05774 -66.645676l-89.40945 -62.821526z" fill-rule="evenodd"/><defs><linearGradient id="p.18" gradientUnits="userSpaceOnUse" gradientTransform="matrix(10.382732785378208 0.0 0.0 10.382732785378208 0.0 0.0)" spreadMethod="pad" x1="10.233273457798104" y1="-11.311490639215943" x2="10.23323593398375" y2="-0.9287578539055417"><stop offset="0.0" stop-color="#fdecdb"/><stop offset="1.0" stop-color="#f0a963"/></linearGradient></defs><path fill="url(#p.18)" d="m106.249344 -50.362206l89.619415 37.07612l83.03676 3.6430445l-3.4042053 -66.71916l-72.349075 -41.081367z" fill-rule="evenodd"/><path stroke="#666666" stroke-width="1.0" stroke-linejoin="round" stroke-linecap="butt" d="m106.249344 -50.362206l89.619415 37.07612l83.03676 3.6430445l-3.4042053 -66.71916l-72.349075 -41.081367z" fill-rule="evenodd"/><defs><linearGradient id="p.19" gradientUnits="userSpaceOnUse" gradientTransform="matrix(9.072350741834123 0.0 0.0 9.072350741834123 0.0 0.0)" spreadMethod="pad" x1="22.392457782122527" y1="-17.481275405472452" x2="22.392423879251165" y2="-8.408924663701676"><stop offset="0.0" stop-color="#fdecdb"/><stop offset="1.0" stop-color="#f0a963"/></linearGradient></defs><path fill="url(#p.19)" d="m203.15224 -117.07874l14.56955 -41.51705l112.90288 38.482933l-54.997375 43.82415z" fill-rule="evenodd"/><path stroke="#666666" stroke-width="1.0" stroke-linejoin="round" stroke-linecap="butt" d="m203.15224 -117.07874l14.56955 -41.51705l112.90288 38.482933l-54.997375 43.82415z" fill-rule="evenodd"/><defs><linearGradient id="p.20" gradientUnits="userSpaceOnUse" gradientTransform="matrix(10.67673159753136 0.0 0.0 10.67673159753136 0.0 0.0)" spreadMethod="pad" x1="25.815699689561942" y1="-11.238701329977347" x2="25.815661278463644" y2="-0.5619697325150799"><stop offset="0.0" stop-color="#fdecdb"/><stop offset="1.0" stop-color="#f0a963"/></linearGradient></defs><path fill="url(#p.20)" d="m278.90552 -9.643044l76.11548 3.6430445l49.527557 -23.674541l-74.11023 -90.31758l-54.811035 43.703415z" fill-rule="evenodd"/><path stroke="#666666" stroke-width="1.0" stroke-linejoin="round" stroke-linecap="butt" d="m278.90552 -9.643044l76.11548 3.6430445l49.527557 -23.674541l-74.11023 -90.31758l-54.811035 43.703415z" fill-rule="evenodd"/><defs><linearGradient id="p.21" gradientUnits="userSpaceOnUse" gradientTransform="matrix(11.611507212176676 0.0 0.0 11.611507212176676 0.0 0.0)" spreadMethod="pad" x1="20.61670993619524" y1="-57.45276446771649" x2="20.616667553585017" y2="-45.84125725561717"><stop offset="0.0" stop-color="#fff6db"/><stop offset="1.0" stop-color="#fad25c"/></linearGradient></defs><path fill="url(#p.21)" d="m272.37534 -667.11285l-32.984253 99.32019l89.04199 35.50659z" fill-rule="evenodd"/><path stroke="#666666" stroke-width="1.0" stroke-linejoin="round" stroke-linecap="butt" d="m272.37534 -667.11285l-32.984253 99.32019l89.04199 35.50659z" fill-rule="evenodd"/><defs><linearGradient id="p.22" gradientUnits="userSpaceOnUse" gradientTransform="matrix(11.619084163512941 0.0 0.0 11.619084163512941 0.0 0.0)" spreadMethod="pad" x1="23.45290803484199" y1="-57.39904860442808" x2="23.452865679870005" y2="-45.77996444099234"><stop offset="0.0" stop-color="#fff6db"/><stop offset="1.0" stop-color="#fad25c"/></linearGradient></defs><path fill="url(#p.22)" d="m328.6168 -531.92126l81.39633 -34.05249l-137.51181 -100.950134z" fill-rule="evenodd"/><path stroke="#666666" stroke-width="1.0" stroke-linejoin="round" stroke-linecap="butt" d="m328.6168 -531.92126l81.39633 -34.05249l-137.51181 -100.950134z" fill-rule="evenodd"/><defs><linearGradient id="p.23" gradientUnits="userSpaceOnUse" gradientTransform="matrix(10.071158405464992 0.0 0.0 10.071158405464992 0.0 0.0)" spreadMethod="pad" x1="21.654310330673752" y1="-56.34216377644335" x2="21.654273682010974" y2="-46.27100537104504"><stop offset="0.0" stop-color="#fff6db"/><stop offset="1.0" stop-color="#fad25c"/></linearGradient></defs><path fill="url(#p.23)" d="m218.08398 -505.33597l20.94226 -62.09445l90.136475 35.690247l1.8215332 65.73755z" fill-rule="evenodd"/><path stroke="#666666" stroke-width="1.0" stroke-linejoin="round" stroke-linecap="butt" d="m218.08398 -505.33597l20.94226 -62.09445l90.136475 35.690247l1.8215332 65.73755z" fill-rule="evenodd"/><defs><linearGradient id="p.24" gradientUnits="userSpaceOnUse" gradientTransform="matrix(13.766529970992229 0.0 0.0 13.766529970992229 0.0 0.0)" spreadMethod="pad" x1="23.870706604547294" y1="-41.12242875719221" x2="23.870655961540006" y2="-27.355898786293135"><stop offset="0.0" stop-color="#fff6db"/><stop offset="1.0" stop-color="#fad25c"/></linearGradient></defs><path fill="url(#p.24)" d="m330.61942 -465.82153l73.74805 89.22574l5.7585144 -189.51706l-81.509186 34.010498z" fill-rule="evenodd"/><path stroke="#666666" stroke-width="1.0" stroke-linejoin="round" stroke-linecap="butt" d="m330.61942 -465.82153l73.74805 89.22574l5.7585144 -189.51706l-81.509186 34.010498z" fill-rule="evenodd"/><defs><linearGradient id="p.25" gradientUnits="userSpaceOnUse" gradientTransform="matrix(14.306380785137359 0.0 0.0 14.306380785137359 0.0 0.0)" spreadMethod="pad" x1="7.2476516317609825" y1="-46.62498125209688" x2="7.247599316530996" y2="-32.31860046705518"><stop offset="0.0" stop-color="#dbd4eb"/><stop offset="1.0" stop-color="#9180bb"/></linearGradient></defs><path fill="url(#p.25)" d="m272.3491 -667.0341l-110.71391 22.580078l-57.94751 20.77948l10.603668 97.21527l88.8609 64.09708z" fill-rule="evenodd"/><path stroke="#666666" stroke-width="1.0" stroke-linejoin="round" stroke-linecap="butt" d="m272.3491 -667.0341l-110.71391 22.580078l-57.94751 20.77948l10.603668 97.21527l88.8609 64.09708z" fill-rule="evenodd"/><defs><linearGradient id="p.26" gradientUnits="userSpaceOnUse" gradientTransform="matrix(13.151363972796322 0.0 0.0 13.151363972796322 0.0 0.0)" spreadMethod="pad" x1="0.7224583210997375" y1="-47.42442749226238" x2="0.7224107176043644" y2="-34.27306351955222"><stop offset="0.0" stop-color="#dbd4eb"/><stop offset="1.0" stop-color="#9180bb"/></linearGradient></defs><path fill="url(#p.26)" d="m103.72966 -623.69556l-73.2021 25.855652l-21.026247 147.10239l104.608925 -75.72177z" fill-rule="evenodd"/><path stroke="#666666" stroke-width="1.0" stroke-linejoin="round" stroke-linecap="butt" d="m103.72966 -623.69556l-73.2021 25.855652l-21.026247 147.10239l104.608925 -75.72177z" fill-rule="evenodd"/><defs><linearGradient id="p.27" gradientUnits="userSpaceOnUse" gradientTransform="matrix(11.378395703277985 0.0 0.0 11.378395703277985 0.0 0.0)" spreadMethod="pad" x1="0.8264960826029608" y1="-46.25223989863919" x2="0.826454915394339" y2="-34.87384419543567"><stop offset="0.0" stop-color="#dbd4eb"/><stop offset="1.0" stop-color="#9180bb"/></linearGradient></defs><path fill="url(#p.27)" d="m9.4042 -450.70602l96.874016 53.897614l97.05774 -66.64566l-89.40945 -62.821503z" fill-rule="evenodd"/><path stroke="#666666" stroke-width="1.0" stroke-linejoin="round" stroke-linecap="butt" d="m9.4042 -450.70602l96.874016 53.897614l97.05774 -66.64566l-89.40945 -62.821503z" fill-rule="evenodd"/><defs><linearGradient id="p.28" gradientUnits="userSpaceOnUse" gradientTransform="matrix(10.382734760315618 0.0 0.0 10.382734760315618 0.0 0.0)" spreadMethod="pad" x1="10.233271511290267" y1="-44.67219518874379" x2="10.23323398748305" y2="-34.28946042849598"><stop offset="0.0" stop-color="#fdecdb"/><stop offset="1.0" stop-color="#f0a963"/></linearGradient></defs><path fill="url(#p.28)" d="m106.249344 -396.73752l89.619415 37.07611l83.03676 3.643036l-3.4042053 -66.71915l-72.349075 -41.08139z" fill-rule="evenodd"/><path stroke="#666666" stroke-width="1.0" stroke-linejoin="round" stroke-linecap="butt" d="m106.249344 -396.73752l89.619415 37.07611l83.03676 3.643036l-3.4042053 -66.71915l-72.349075 -41.08139z" fill-rule="evenodd"/><defs><linearGradient id="p.29" gradientUnits="userSpaceOnUse" gradientTransform="matrix(9.072350176782166 0.0 0.0 9.072350176782166 0.0 0.0)" spreadMethod="pad" x1="22.39245917678894" y1="-55.660503605419215" x2="22.392427534107032" y2="-46.58815342869223"><stop offset="0.0" stop-color="#fdecdb"/><stop offset="1.0" stop-color="#f0a963"/></linearGradient></defs><path fill="url(#p.29)" d="m203.15224 -463.45407l14.56955 -41.51706l112.90288 38.48294l-54.997375 43.824158z" fill-rule="evenodd"/><path stroke="#666666" stroke-width="1.0" stroke-linejoin="round" stroke-linecap="butt" d="m203.15224 -463.45407l14.56955 -41.51706l112.90288 38.48294l-54.997375 43.824158z" fill-rule="evenodd"/><defs><linearGradient id="p.30" gradientUnits="userSpaceOnUse" gradientTransform="matrix(10.676732557808776 0.0 0.0 10.676732557808776 0.0 0.0)" spreadMethod="pad" x1="25.81569736766868" y1="-43.680774400697366" x2="25.815658956573838" y2="-33.00404184295769"><stop offset="0.0" stop-color="#fdecdb"/><stop offset="1.0" stop-color="#f0a963"/></linearGradient></defs><path fill="url(#p.30)" d="m278.90552 -356.01837l76.11548 3.643036l49.527557 -23.67453l-74.11023 -90.3176l-54.811035 43.70343z" fill-rule="evenodd"/><path stroke="#666666" stroke-width="1.0" stroke-linejoin="round" stroke-linecap="butt" d="m278.90552 -356.01837l76.11548 3.643036l49.527557 -23.67453l-74.11023 -90.3176l-54.811035 43.70343z" fill-rule="evenodd"/><path fill="#000000" d="m206.4567 276.84253l0 0c0 -4.4269714 3.5887756 -8.015747 8.015747 -8.015747l0 0c2.1259003 0 4.164749 0.84451294 5.667984 2.3477478c1.5032501 1.5032349 2.347763 3.5420837 2.347763 5.6679993l0 0c0 4.4269714 -3.5887756 8.015747 -8.015747 8.015747l0 0c-4.4269714 0 -8.015747 -3.5887756 -8.015747 -8.015747z" fill-rule="evenodd"/><path stroke="#000000" stroke-width="2.0" stroke-linejoin="round" stroke-linecap="butt" d="m206.4567 276.84253l0 0c0 -4.4269714 3.5887756 -8.015747 8.015747 -8.015747l0 0c2.1259003 0 4.164749 0.84451294 5.667984 2.3477478c1.5032501 1.5032349 2.347763 3.5420837 2.347763 5.6679993l0 0c0 4.4269714 -3.5887756 8.015747 -8.015747 8.015747l0 0c-4.4269714 0 -8.015747 -3.5887756 -8.015747 -8.015747z" fill-rule="evenodd"/><path fill="#000000" d="m54.46982 -198.24672l0 0c0 -4.4269714 3.5887718 -8.015747 8.015747 -8.015747l0 0c2.125908 0 4.1647415 0.84451294 5.6679916 2.347763c1.5032425 1.5032349 2.3477554 3.5420685 2.3477554 5.667984l0 0c0 4.4269714 -3.5887756 8.015747 -8.015747 8.015747l0 0c-4.4269753 0 -8.015747 -3.5887756 -8.015747 -8.015747z" fill-rule="evenodd"/><path stroke="#000000" stroke-width="2.0" stroke-linejoin="round" stroke-linecap="butt" d="m54.46982 -198.24672l0 0c0 -4.4269714 3.5887718 -8.015747 8.015747 -8.015747l0 0c2.125908 0 4.1647415 0.84451294 5.6679916 2.347763c1.5032425 1.5032349 2.3477554 3.5420685 2.3477554 5.667984l0 0c0 4.4269714 -3.5887756 8.015747 -8.015747 8.015747l0 0c-4.4269753 0 -8.015747 -3.5887756 -8.015747 -8.015747z" fill-rule="evenodd"/><path fill="#8e7cc3" d="m118.261154 -535.7218l0 0c0 -4.426941 3.5887756 -8.015747 8.015747 -8.015747l0 0c2.1259155 0 4.164749 0.84454346 5.667984 2.3477783c1.5032501 1.5032349 2.347763 3.5420532 2.347763 5.6679688l0 0c0 4.427002 -3.5887756 8.015747 -8.015747 8.015747l0 0c-4.4269714 0 -8.015747 -3.588745 -8.015747 -8.015747z" fill-rule="evenodd"/><path stroke="#000000" stroke-width="2.0" stroke-linejoin="round" stroke-linecap="butt" d="m118.261154 -535.7218l0 0c0 -4.426941 3.5887756 -8.015747 8.015747 -8.015747l0 0c2.1259155 0 4.164749 0.84454346 5.667984 2.3477783c1.5032501 1.5032349 2.347763 3.5420532 2.347763 5.6679688l0 0c0 4.427002 -3.5887756 8.015747 -8.015747 8.015747l0 0c-4.4269714 0 -8.015747 -3.588745 -8.015747 -8.015747z" fill-rule="evenodd"/><path fill="#000000" fill-opacity="0.0" d="m-396.66797 103.01575l179.96849 134.48819" fill-rule="evenodd"/><path stroke="#000000" stroke-width="2.0" stroke-linejoin="round" stroke-linecap="butt" d="m-396.66797 103.01575l179.96849 134.48819" fill-rule="evenodd"/><path fill="#000000" fill-opacity="0.0" d="m-286.66666 169.06432l41.921265 92.44093" fill-rule="evenodd"/><path stroke="#000000" stroke-width="2.0" stroke-linejoin="round" stroke-linecap="butt" d="m-286.66666 169.06432l41.921265 92.44093" fill-rule="evenodd"/><path fill="#ffd966" d="m327.98294 -535.7218l0 0c0 -4.426941 3.5887756 -8.015747 8.015747 -8.015747l0 0c2.1259155 0 4.164734 0.84454346 5.6679993 2.3477783c1.5032349 1.5032349 2.3477478 3.5420532 2.3477478 5.6679688l0 0c0 4.427002 -3.5887756 8.015747 -8.015747 8.015747l0 0c-4.4269714 0 -8.015747 -3.588745 -8.015747 -8.015747z" fill-rule="evenodd"/><path stroke="#000000" stroke-width="2.0" stroke-linejoin="round" stroke-linecap="butt" d="m327.98294 -535.7218l0 0c0 -4.426941 3.5887756 -8.015747 8.015747 -8.015747l0 0c2.1259155 0 4.164734 0.84454346 5.6679993 2.3477783c1.5032349 1.5032349 2.3477478 3.5420532 2.3477478 5.6679688l0 0c0 4.427002 -3.5887756 8.015747 -8.015747 8.015747l0 0c-4.4269714 0 -8.015747 -3.588745 -8.015747 -8.015747z" fill-rule="evenodd"/><path fill="#e69138" d="m247.26115 -434.72177l0 0c0 -4.427002 3.5887756 -8.015747 8.015747 -8.015747l0 0c2.1259003 0 4.164749 0.84451294 5.667984 2.3477478c1.5032654 1.5032349 2.3477783 3.5420837 2.3477783 5.6679993l0 0c0 4.4269714 -3.5887756 8.015747 -8.015762 8.015747l0 0c-4.4269714 0 -8.015747 -3.5887756 -8.015747 -8.015747z" fill-rule="evenodd"/><path stroke="#000000" stroke-width="2.0" stroke-linejoin="round" stroke-linecap="butt" d="m247.26115 -434.72177l0 0c0 -4.427002 3.5887756 -8.015747 8.015747 -8.015747l0 0c2.1259003 0 4.164749 0.84451294 5.667984 2.3477478c1.5032654 1.5032349 2.3477783 3.5420837 2.3477783 5.6679993l0 0c0 4.4269714 -3.5887756 8.015747 -8.015762 8.015747l0 0c-4.4269714 0 -8.015747 -3.5887756 -8.015747 -8.015747z" fill-rule="evenodd"/><path fill="#000000" fill-opacity="0.0" d="m410.12598 -520.8714l293.6693 0l0 34.26773l-293.6693 0z" fill-rule="evenodd"/><path fill="#000000" d="m420.75098 -484.06577l0 -21.953125l4.65625 0l0 1.75l-2.546875 0l0 18.46875l2.546875 0l0 1.734375l-4.65625 0z" fill-rule="nonzero"/><path fill="#8e7cc3" d="m425.96582 -488.8314l4.546875 -6.46875l-4.203125 -5.984375l2.640625 0l1.90625 2.921875q0.546875 0.828125 0.875 1.390625q0.515625 -0.765625 0.9375 -1.359375l2.109375 -2.953125l2.515625 0l-4.296875 5.859375l4.625 6.59375l-2.59375 0l-2.546875 -3.875l-0.6875 -1.03125l-3.265625 4.90625l-2.5625 0z" fill-rule="nonzero"/><path fill="#8e7cc3" d="m443.7627 -479.8314l-1.40625 0l0 -8.96875q-0.515625 0.484375 -1.34375 0.96875q-0.8125 0.484375 -1.46875 0.734375l0 -1.359375q1.171875 -0.5625 2.046875 -1.34375q0.890625 -0.796875 1.265625 -1.53125l0.90625 0l0 11.5z" fill-rule="nonzero"/><path fill="#8e7cc3" d="m448.833 -488.8314l0 -2.40625l2.390625 0l0 2.40625q0 1.328125 -0.46875 2.140625q-0.46875 0.8125 -1.484375 1.265625l-0.578125 -0.90625q0.65625 -0.296875 0.96875 -0.875q0.328125 -0.5625 0.359375 -1.625l-1.1875 0zm12.6796875 4.796875l-0.234375 -1.984375q0.703125 0.1875 1.21875 0.1875q0.703125 0 1.125 -0.234375q0.421875 -0.234375 0.6875 -0.65625q0.203125 -0.3125 0.640625 -1.5625q0.0625 -0.1875 0.1875 -0.515625l-4.71875 -12.484375l2.265625 0l2.59375 7.21875q0.5 1.359375 0.90625 2.875q0.359375 -1.453125 0.859375 -2.828125l2.671875 -7.265625l2.109375 0l-4.734375 12.671875q-0.765625 2.046875 -1.1875 2.8125q-0.5625 1.046875 -1.296875 1.53125q-0.71875 0.484375 -1.734375 0.484375q-0.609375 0 -1.359375 -0.25z" fill-rule="nonzero"/><path fill="#8e7cc3" d="m477.99707 -479.8314l-1.40625 0l0 -8.96875q-0.515625 0.484375 -1.34375 0.96875q-0.8125 0.484375 -1.46875 0.734375l0 -1.359375q1.171875 -0.5625 2.046875 -1.34375q0.890625 -0.796875 1.265625 -1.53125l0.90625 0l0 11.5z" fill-rule="nonzero"/><path fill="#000000" d="m483.06738 -488.8314l0 -2.40625l2.390625 0l0 2.40625q0 1.328125 -0.46875 2.140625q-0.46875 0.8125 -1.484375 1.265625l-0.578125 -0.90625q0.65625 -0.296875 0.96875 -0.875q0.328125 -0.5625 0.359375 -1.625l-1.1875 0z" fill-rule="nonzero"/><path fill="#ffff00" d="m494.43457 -488.8314l4.546875 -6.46875l-4.203125 -5.984375l2.640625 0l1.90625 2.921875q0.546875 0.828125 0.875 1.390625q0.515625 -0.765625 0.9375 -1.359375l2.109375 -2.953125l2.515625 0l-4.296875 5.859375l4.625 6.59375l-2.59375 0l-2.546875 -3.875l-0.6875 -1.03125l-3.265625 4.90625l-2.5625 0z" fill-rule="nonzero"/><path fill="#ffff00" d="m514.3252 -481.19077l0 1.359375l-7.578125 0q-0.015625 -0.515625 0.171875 -0.984375q0.28125 -0.765625 0.921875 -1.515625q0.640625 -0.75 1.84375 -1.734375q1.859375 -1.53125 2.515625 -2.421875q0.65625 -0.90625 0.65625 -1.703125q0 -0.828125 -0.59375 -1.40625q-0.59375 -0.578125 -1.5625 -0.578125q-1.015625 0 -1.625 0.609375q-0.609375 0.609375 -0.609375 1.6875l-1.453125 -0.140625q0.15625 -1.625 1.125 -2.46875q0.96875 -0.84375 2.59375 -0.84375q1.65625 0 2.609375 0.921875q0.96875 0.90625 0.96875 2.25q0 0.6875 -0.28125 1.359375q-0.28125 0.65625 -0.9375 1.390625q-0.65625 0.734375 -2.171875 2.015625q-1.265625 1.0625 -1.625 1.453125q-0.359375 0.375 -0.59375 0.75l5.625 0z" fill-rule="nonzero"/><path fill="#ffff00" d="m517.30176 -488.8314l0 -2.40625l2.390625 0l0 2.40625q0 1.328125 -0.46875 2.140625q-0.46875 0.8125 -1.484375 1.265625l-0.578125 -0.90625q0.65625 -0.296875 0.96875 -0.875q0.328125 -0.5625 0.359375 -1.625l-1.1875 0zm12.6796875 4.796875l-0.234375 -1.984375q0.703125 0.1875 1.21875 0.1875q0.703125 0 1.125 -0.234375q0.421875 -0.234375 0.6875 -0.65625q0.203125 -0.3125 0.640625 -1.5625q0.0625 -0.1875 0.1875 -0.515625l-4.71875 -12.484375l2.265625 0l2.59375 7.21875q0.5 1.359375 0.90625 2.875q0.359375 -1.453125 0.859375 -2.828125l2.671875 -7.265625l2.109375 0l-4.734375 12.671875q-0.765625 2.046875 -1.1875 2.8125q-0.5625 1.046875 -1.296875 1.53125q-0.71875 0.484375 -1.734375 0.484375q-0.609375 0 -1.359375 -0.25z" fill-rule="nonzero"/><path fill="#ffff00" d="m548.5596 -481.19077l0 1.359375l-7.578125 0q-0.015625 -0.515625 0.171875 -0.984375q0.28125 -0.765625 0.921875 -1.515625q0.640625 -0.75 1.84375 -1.734375q1.859375 -1.53125 2.515625 -2.421875q0.65625 -0.90625 0.65625 -1.703125q0 -0.828125 -0.59375 -1.40625q-0.59375 -0.578125 -1.5625 -0.578125q-1.015625 0 -1.625 0.609375q-0.609375 0.609375 -0.609375 1.6875l-1.453125 -0.140625q0.15625 -1.625 1.125 -2.46875q0.96875 -0.84375 2.59375 -0.84375q1.65625 0 2.609375 0.921875q0.96875 0.90625 0.96875 2.25q0 0.6875 -0.28125 1.359375q-0.28125 0.65625 -0.9375 1.390625q-0.65625 0.734375 -2.171875 2.015625q-1.265625 1.0625 -1.625 1.453125q-0.359375 0.375 -0.59375 0.75l5.625 0z" fill-rule="nonzero"/><path fill="#000000" d="m551.53613 -488.8314l0 -2.40625l2.390625 0l0 2.40625q0 1.328125 -0.46875 2.140625q-0.46875 0.8125 -1.484375 1.265625l-0.578125 -0.90625q0.65625 -0.296875 0.96875 -0.875q0.328125 -0.5625 0.359375 -1.625l-1.1875 0z" fill-rule="nonzero"/><path fill="#f6b26b" d="m562.9033 -488.8314l4.546875 -6.46875l-4.203125 -5.984375l2.640625 0l1.90625 2.921875q0.546875 0.828125 0.875 1.390625q0.515625 -0.765625 0.9375 -1.359375l2.109375 -2.953125l2.515625 0l-4.296875 5.859375l4.625 6.59375l-2.59375 0l-2.546875 -3.875l-0.6875 -1.03125l-3.265625 4.90625l-2.5625 0z" fill-rule="nonzero"/><path fill="#f6b26b" d="m575.4033 -482.86264l1.40625 -0.1875q0.25 1.203125 0.828125 1.734375q0.578125 0.515625 1.421875 0.515625q0.984375 0 1.671875 -0.6875q0.6875 -0.6875 0.6875 -1.703125q0 -0.96875 -0.640625 -1.59375q-0.625 -0.625 -1.609375 -0.625q-0.390625 0 -0.984375 0.15625l0.15625 -1.234375q0.140625 0.015625 0.21875 0.015625q0.90625 0 1.625 -0.46875q0.71875 -0.46875 0.71875 -1.453125q0 -0.765625 -0.53125 -1.265625q-0.515625 -0.515625 -1.34375 -0.515625q-0.828125 0 -1.375 0.515625q-0.546875 0.515625 -0.703125 1.546875l-1.40625 -0.25q0.265625 -1.421875 1.171875 -2.1875q0.921875 -0.78125 2.28125 -0.78125q0.9375 0 1.71875 0.40625q0.796875 0.390625 1.203125 1.09375q0.421875 0.6875 0.421875 1.46875q0 0.75 -0.40625 1.359375q-0.390625 0.609375 -1.171875 0.96875q1.015625 0.234375 1.578125 0.96875q0.5625 0.734375 0.5625 1.84375q0 1.5 -1.09375 2.546875q-1.09375 1.046875 -2.765625 1.046875q-1.5 0 -2.5 -0.890625q-1.0 -0.90625 -1.140625 -2.34375z" fill-rule="nonzero"/><path fill="#f6b26b" d="m585.7705 -488.8314l0 -2.40625l2.390625 0l0 2.40625q0 1.328125 -0.46875 2.140625q-0.46875 0.8125 -1.484375 1.265625l-0.578125 -0.90625q0.65625 -0.296875 0.96875 -0.875q0.328125 -0.5625 0.359375 -1.625l-1.1875 0zm12.6796875 4.796875l-0.234375 -1.984375q0.703125 0.1875 1.21875 0.1875q0.703125 0 1.125 -0.234375q0.421875 -0.234375 0.6875 -0.65625q0.203125 -0.3125 0.640625 -1.5625q0.0625 -0.1875 0.1875 -0.515625l-4.71875 -12.484375l2.265625 0l2.59375 7.21875q0.5 1.359375 0.90625 2.875q0.359375 -1.453125 0.859375 -2.828125l2.671875 -7.265625l2.109375 0l-4.734375 12.671875q-0.765625 2.046875 -1.1875 2.8125q-0.5625 1.046875 -1.296875 1.53125q-0.71875 0.484375 -1.734375 0.484375q-0.609375 0 -1.359375 -0.25z" fill-rule="nonzero"/><path fill="#f6b26b" d="m609.6377 -482.86264l1.40625 -0.1875q0.25 1.203125 0.828125 1.734375q0.578125 0.515625 1.421875 0.515625q0.984375 0 1.671875 -0.6875q0.6875 -0.6875 0.6875 -1.703125q0 -0.96875 -0.640625 -1.59375q-0.625 -0.625 -1.609375 -0.625q-0.390625 0 -0.984375 0.15625l0.15625 -1.234375q0.140625 0.015625 0.21875 0.015625q0.90625 0 1.625 -0.46875q0.71875 -0.46875 0.71875 -1.453125q0 -0.765625 -0.53125 -1.265625q-0.515625 -0.515625 -1.34375 -0.515625q-0.828125 0 -1.375 0.515625q-0.546875 0.515625 -0.703125 1.546875l-1.40625 -0.25q0.265625 -1.421875 1.171875 -2.1875q0.921875 -0.78125 2.28125 -0.78125q0.9375 0 1.71875 0.40625q0.796875 0.390625 1.203125 1.09375q0.421875 0.6875 0.421875 1.46875q0 0.75 -0.40625 1.359375q-0.390625 0.609375 -1.171875 0.96875q1.015625 0.234375 1.578125 0.96875q0.5625 0.734375 0.5625 1.84375q0 1.5 -1.09375 2.546875q-1.09375 1.046875 -2.765625 1.046875q-1.5 0 -2.5 -0.890625q-1.0 -0.90625 -1.140625 -2.34375z" fill-rule="nonzero"/><path fill="#000000" d="m622.97363 -484.06577l-4.65625 0l0 -1.734375l2.546875 0l0 -18.46875l-2.546875 0l0 -1.75l4.65625 0l0 21.953125z" fill-rule="nonzero"/><path fill="#000000" fill-opacity="0.0" d="m70.50131 -652.2362l312.0 312.0" fill-rule="evenodd"/><path stroke="#000000" stroke-width="2.0" stroke-linejoin="round" stroke-linecap="butt" stroke-dasharray="8.0,6.0" d="m70.50131 -652.2362l312.0 312.0" fill-rule="evenodd"/><path fill="#000000" fill-opacity="0.0" d="m131.94489 -541.3898l22.960632 -22.960632" fill-rule="evenodd"/><path stroke="#000000" stroke-width="2.0" stroke-linejoin="round" stroke-linecap="butt" stroke-dasharray="8.0,6.0" d="m131.94489 -541.3898l22.960632 -22.960632" fill-rule="evenodd"/><path fill="#000000" fill-opacity="0.0" d="m260.9449 -442.73624l9.51181 -9.543304" fill-rule="evenodd"/><path stroke="#000000" stroke-width="2.0" stroke-linejoin="round" stroke-linecap="butt" stroke-dasharray="8.0,6.0" d="m260.9449 -442.73624l9.51181 -9.543304" fill-rule="evenodd"/><path fill="#000000" fill-opacity="0.0" d="m261.4042 -463.83203l66.58267 -66.58264" fill-rule="evenodd"/><path stroke="#000000" stroke-width="2.0" stroke-linejoin="round" stroke-linecap="butt" stroke-dasharray="8.0,6.0" d="m261.4042 -463.83203l66.58267 -66.58264" fill-rule="evenodd"/><path fill="#000000" d="m170.56693 -227.89502l0 0c0 -4.4269714 3.5887756 -8.015747 8.015747 -8.015747l0 0c2.1259155 0 4.164749 0.84451294 5.6679993 2.347763c1.5032349 1.5032501 2.3477478 3.5420837 2.3477478 5.667984l0 0c0 4.4269867 -3.5887604 8.015747 -8.015747 8.015747l0 0c-4.4269714 0 -8.015747 -3.5887604 -8.015747 -8.015747z" fill-rule="evenodd"/><path stroke="#000000" stroke-width="2.0" stroke-linejoin="round" stroke-linecap="butt" d="m170.56693 -227.89502l0 0c0 -4.4269714 3.5887756 -8.015747 8.015747 -8.015747l0 0c2.1259155 0 4.164749 0.84451294 5.6679993 2.347763c1.5032349 1.5032501 2.3477478 3.5420837 2.3477478 5.667984l0 0c0 4.4269867 -3.5887604 8.015747 -8.015747 8.015747l0 0c-4.4269714 0 -8.015747 -3.5887604 -8.015747 -8.015747z" fill-rule="evenodd"/><path fill="#000000" d="m102.23097 -115.89501l0 0c0 -4.426979 3.588768 -8.015747 8.015747 -8.015747l0 0c2.125908 0 4.1647415 0.84451294 5.6679916 2.3477554c1.5032425 1.5032425 2.3477554 3.5420837 2.3477554 5.6679916l0 0c0 4.4269714 -3.5887756 8.015747 -8.015747 8.015747l0 0c-4.426979 0 -8.015747 -3.5887756 -8.015747 -8.015747z" fill-rule="evenodd"/><path stroke="#000000" stroke-width="2.0" stroke-linejoin="round" stroke-linecap="butt" d="m102.23097 -115.89501l0 0c0 -4.426979 3.588768 -8.015747 8.015747 -8.015747l0 0c2.125908 0 4.1647415 0.84451294 5.6679916 2.3477554c1.5032425 1.5032425 2.3477554 3.5420837 2.3477554 5.6679916l0 0c0 4.4269714 -3.5887756 8.015747 -8.015747 8.015747l0 0c-4.426979 0 -8.015747 -3.5887756 -8.015747 -8.015747z" fill-rule="evenodd"/><path fill="#000000" d="m270.4567 -240.89502l0 0c0 -4.4269714 3.5887756 -8.015747 8.015747 -8.015747l0 0c2.1259155 0 4.164734 0.84451294 5.6679993 2.347763c1.5032349 1.5032501 2.3477478 3.5420837 2.3477478 5.667984l0 0c0 4.4269867 -3.5887756 8.015747 -8.015747 8.015747l0 0c-4.4269714 0 -8.015747 -3.5887604 -8.015747 -8.015747z" fill-rule="evenodd"/><path stroke="#000000" stroke-width="2.0" stroke-linejoin="round" stroke-linecap="butt" d="m270.4567 -240.89502l0 0c0 -4.4269714 3.5887756 -8.015747 8.015747 -8.015747l0 0c2.1259155 0 4.164734 0.84451294 5.6679993 2.347763c1.5032349 1.5032501 2.3477478 3.5420837 2.3477478 5.667984l0 0c0 4.4269867 -3.5887756 8.015747 -8.015747 8.015747l0 0c-4.4269714 0 -8.015747 -3.5887604 -8.015747 -8.015747z" fill-rule="evenodd"/><path fill="#000000" d="m330.4567 -233.3937l0 0c0 -4.4269714 3.5887756 -8.015747 8.015747 -8.015747l0 0c2.1259155 0 4.164734 0.84451294 5.6679993 2.347763c1.5032349 1.5032501 2.3477478 3.5420837 2.3477478 5.667984l0 0c0 4.4269867 -3.5887756 8.015747 -8.015747 8.015747l0 0c-4.4269714 0 -8.015747 -3.5887604 -8.015747 -8.015747z" fill-rule="evenodd"/><path stroke="#000000" stroke-width="2.0" stroke-linejoin="round" stroke-linecap="butt" d="m330.4567 -233.3937l0 0c0 -4.4269714 3.5887756 -8.015747 8.015747 -8.015747l0 0c2.1259155 0 4.164734 0.84451294 5.6679993 2.347763c1.5032349 1.5032501 2.3477478 3.5420837 2.3477478 5.667984l0 0c0 4.4269867 -3.5887756 8.015747 -8.015747 8.015747l0 0c-4.4269714 0 -8.015747 -3.5887604 -8.015747 -8.015747z" fill-rule="evenodd"/><path fill="#000000" d="m270.4567 -169.8924l0 0c0 -4.4269714 3.5887756 -8.015747 8.015747 -8.015747l0 0c2.1259155 0 4.164734 0.84451294 5.6679993 2.347763c1.5032349 1.5032501 2.3477478 3.5420837 2.3477478 5.667984l0 0c0 4.4269867 -3.5887756 8.015747 -8.015747 8.015747l0 0c-4.4269714 0 -8.015747 -3.5887604 -8.015747 -8.015747z" fill-rule="evenodd"/><path stroke="#000000" stroke-width="2.0" stroke-linejoin="round" stroke-linecap="butt" d="m270.4567 -169.8924l0 0c0 -4.4269714 3.5887756 -8.015747 8.015747 -8.015747l0 0c2.1259155 0 4.164734 0.84451294 5.6679993 2.347763c1.5032349 1.5032501 2.3477478 3.5420837 2.3477478 5.667984l0 0c0 4.4269867 -3.5887756 8.015747 -8.015747 8.015747l0 0c-4.4269714 0 -8.015747 -3.5887604 -8.015747 -8.015747z" fill-rule="evenodd"/><path fill="#000000" d="m363.4567 -141.3937l0 0c0 -4.4269714 3.5887756 -8.015747 8.015747 -8.015747l0 0c2.1259155 0 4.164734 0.84451294 5.6679993 2.347763c1.5032349 1.5032501 2.3477478 3.5420837 2.3477478 5.667984l0 0c0 4.4269867 -3.5887756 8.015747 -8.015747 8.015747l0 0c-4.4269714 0 -8.015747 -3.5887604 -8.015747 -8.015747z" fill-rule="evenodd"/><path stroke="#000000" stroke-width="2.0" stroke-linejoin="round" stroke-linecap="butt" d="m363.4567 -141.3937l0 0c0 -4.4269714 3.5887756 -8.015747 8.015747 -8.015747l0 0c2.1259155 0 4.164734 0.84451294 5.6679993 2.347763c1.5032349 1.5032501 2.3477478 3.5420837 2.3477478 5.667984l0 0c0 4.4269867 -3.5887756 8.015747 -8.015747 8.015747l0 0c-4.4269714 0 -8.015747 -3.5887604 -8.015747 -8.015747z" fill-rule="evenodd"/><path fill="#000000" d="m254.4252 -113.89239l0 0c0 -4.426979 3.5887756 -8.015747 8.015747 -8.015747l0 0c2.1259155 0 4.164734 0.84451294 5.6679993 2.3477554c1.5032349 1.5032425 2.3477478 3.5420837 2.3477478 5.6679916l0 0c0 4.4269714 -3.5887756 8.015747 -8.015747 8.015747l0 0c-4.4269714 0 -8.015747 -3.5887756 -8.015747 -8.015747z" fill-rule="evenodd"/><path stroke="#000000" stroke-width="2.0" stroke-linejoin="round" stroke-linecap="butt" d="m254.4252 -113.89239l0 0c0 -4.426979 3.5887756 -8.015747 8.015747 -8.015747l0 0c2.1259155 0 4.164734 0.84451294 5.6679993 2.3477554c1.5032349 1.5032425 2.3477478 3.5420837 2.3477478 5.6679916l0 0c0 4.4269714 -3.5887756 8.015747 -8.015747 8.015747l0 0c-4.4269714 0 -8.015747 -3.5887756 -8.015747 -8.015747z" fill-rule="evenodd"/><path fill="#000000" d="m198.4252 -57.391075l0 0c0 -4.4269753 3.5887756 -8.015747 8.015747 -8.015747l0 0c2.1259003 0 4.164749 0.84451294 5.667984 2.3477554c1.5032501 1.5032463 2.347763 3.5420837 2.347763 5.6679916l0 0c0 4.4269753 -3.5887756 8.015747 -8.015747 8.015747l0 0c-4.4269714 0 -8.015747 -3.5887718 -8.015747 -8.015747z" fill-rule="evenodd"/><path stroke="#000000" stroke-width="2.0" stroke-linejoin="round" stroke-linecap="butt" d="m198.4252 -57.391075l0 0c0 -4.4269753 3.5887756 -8.015747 8.015747 -8.015747l0 0c2.1259003 0 4.164749 0.84451294 5.667984 2.3477554c1.5032501 1.5032463 2.347763 3.5420837 2.347763 5.6679916l0 0c0 4.4269753 -3.5887756 8.015747 -8.015747 8.015747l0 0c-4.4269714 0 -8.015747 -3.5887718 -8.015747 -8.015747z" fill-rule="evenodd"/><path fill="#000000" d="m323.4252 -49.391075l0 0c0 -4.4269753 3.5887756 -8.015751 8.015747 -8.015751l0 0c2.1259155 0 4.164734 0.84451675 5.6679993 2.3477592c1.5032349 1.5032463 2.3477478 3.5420837 2.3477478 5.6679916l0 0c0 4.4269753 -3.5887756 8.015747 -8.015747 8.015747l0 0c-4.4269714 0 -8.015747 -3.5887718 -8.015747 -8.015747z" fill-rule="evenodd"/><path stroke="#000000" stroke-width="2.0" stroke-linejoin="round" stroke-linecap="butt" d="m323.4252 -49.391075l0 0c0 -4.4269753 3.5887756 -8.015751 8.015747 -8.015751l0 0c2.1259155 0 4.164734 0.84451675 5.6679993 2.3477592c1.5032349 1.5032463 2.3477478 3.5420837 2.3477478 5.6679916l0 0c0 4.4269753 -3.5887756 8.015747 -8.015747 8.015747l0 0c-4.4269714 0 -8.015747 -3.5887718 -8.015747 -8.015747z" fill-rule="evenodd"/><path fill="#000000" fill-opacity="0.0" d="m68.15356 -203.9147l102.42519 -23.968506" fill-rule="evenodd"/><path stroke="#000000" stroke-width="2.0" stroke-linejoin="round" stroke-linecap="butt" stroke-dasharray="8.0,6.0" d="m68.15356 -203.9147l102.42519 -23.968506" fill-rule="evenodd"/><path fill="#000000" fill-opacity="0.0" d="m115.91471 -121.563l214.55118 -111.842514" fill-rule="evenodd"/><path stroke="#000000" stroke-width="2.0" stroke-linejoin="round" stroke-linecap="butt" stroke-dasharray="8.0,6.0" d="m115.91471 -121.563l214.55118 -111.842514" fill-rule="evenodd"/><path fill="#000000" fill-opacity="0.0" d="m325.77295 -55.059067l-41.637787 -109.16536" fill-rule="evenodd"/><path stroke="#000000" stroke-width="2.0" stroke-linejoin="round" stroke-linecap="butt" stroke-dasharray="8.0,6.0" d="m325.77295 -55.059067l-41.637787 -109.16536" fill-rule="evenodd"/><path fill="#000000" fill-opacity="0.0" d="m178.58267 -219.87927l27.874023 154.48819" fill-rule="evenodd"/><path stroke="#000000" stroke-width="2.0" stroke-linejoin="round" stroke-linecap="butt" stroke-dasharray="8.0,6.0" d="m178.58267 -219.87927l27.874023 154.48819" fill-rule="evenodd"/><path fill="#000000" fill-opacity="0.0" d="m284.14044 -235.22702l81.66928 88.15747" fill-rule="evenodd"/><path stroke="#000000" stroke-width="2.0" stroke-linejoin="round" stroke-linecap="butt" stroke-dasharray="8.0,6.0" d="m284.14044 -235.22702l81.66928 88.15747" fill-rule="evenodd"/><path fill="#000000" fill-opacity="0.0" d="m256.77295 -108.224396l-44.661407 45.16535" fill-rule="evenodd"/><path stroke="#000000" stroke-width="2.0" stroke-linejoin="round" stroke-linecap="butt" stroke-dasharray="8.0,6.0" d="m256.77295 -108.224396l-44.661407 45.16535" fill-rule="evenodd"/><path fill="#000000" fill-opacity="0.0" d="m338.47244 -225.37796l-7.0236206 167.9685" fill-rule="evenodd"/><path stroke="#000000" stroke-width="2.0" stroke-linejoin="round" stroke-linecap="butt" stroke-dasharray="8.0,6.0" d="m338.47244 -225.37796l-7.0236206 167.9685" fill-rule="evenodd"/><path fill="#000000" fill-opacity="0.0" d="m68.15356 -192.57874l202.2992 22.67717" fill-rule="evenodd"/><path stroke="#000000" stroke-width="2.0" stroke-linejoin="round" stroke-linecap="butt" stroke-dasharray="8.0,6.0" d="m68.15356 -192.57874l202.2992 22.67717" fill-rule="evenodd"/><path fill="#000000" fill-opacity="0.0" d="m270.4567 -113.89239l93.00787 -27.49607" fill-rule="evenodd"/><path stroke="#000000" stroke-width="2.0" stroke-linejoin="round" stroke-linecap="butt" stroke-dasharray="8.0,6.0" d="m270.4567 -113.89239l93.00787 -27.49607" fill-rule="evenodd"/><path fill="#000000" fill-opacity="0.0" d="m115.91471 -121.563l156.8819 -113.6693" fill-rule="evenodd"/><path stroke="#000000" stroke-width="2.0" stroke-linejoin="round" stroke-linecap="butt" stroke-dasharray="8.0,6.0" d="m115.91471 -121.563l156.8819 -113.6693" fill-rule="evenodd"/><path fill="#000000" d="m254.4252 222.9685l0 0c0 -4.4269714 3.5887756 -8.015747 8.015747 -8.015747l0 0c2.1259155 0 4.164734 0.84451294 5.6679993 2.3477478c1.5032349 1.5032501 2.3477478 3.5420837 2.3477478 5.6679993l0 0c0 4.4269714 -3.5887756 8.015747 -8.015747 8.015747l0 0c-4.4269714 0 -8.015747 -3.5887756 -8.015747 -8.015747z" fill-rule="evenodd"/><path stroke="#000000" stroke-width="2.0" stroke-linejoin="round" stroke-linecap="butt" d="m254.4252 222.9685l0 0c0 -4.4269714 3.5887756 -8.015747 8.015747 -8.015747l0 0c2.1259155 0 4.164734 0.84451294 5.6679993 2.3477478c1.5032349 1.5032501 2.3477478 3.5420837 2.3477478 5.6679993l0 0c0 4.4269714 -3.5887756 8.015747 -8.015747 8.015747l0 0c-4.4269714 0 -8.015747 -3.5887756 -8.015747 -8.015747z" fill-rule="evenodd"/><path fill="#000000" d="m99.884514 223.84514l0 0c0 -4.4269714 3.5887756 -8.015747 8.015747 -8.015747l0 0c2.125908 0 4.164749 0.84451294 5.6679916 2.347763c1.5032425 1.5032501 2.3477554 3.5420837 2.3477554 5.667984l0 0c0 4.4269867 -3.588768 8.015747 -8.015747 8.015747l0 0c-4.4269714 0 -8.015747 -3.5887604 -8.015747 -8.015747z" fill-rule="evenodd"/><path stroke="#000000" stroke-width="2.0" stroke-linejoin="round" stroke-linecap="butt" d="m99.884514 223.84514l0 0c0 -4.4269714 3.5887756 -8.015747 8.015747 -8.015747l0 0c2.125908 0 4.164749 0.84451294 5.6679916 2.347763c1.5032425 1.5032501 2.3477554 3.5420837 2.3477554 5.667984l0 0c0 4.4269867 -3.588768 8.015747 -8.015747 8.015747l0 0c-4.4269714 0 -8.015747 -3.5887604 -8.015747 -8.015747z" fill-rule="evenodd"/><path fill="#000000" d="m54.46982 136.34645l0 0c0 -4.4269714 3.5887718 -8.015747 8.015747 -8.015747l0 0c2.125908 0 4.1647415 0.84451294 5.6679916 2.347763c1.5032425 1.5032501 2.3477554 3.5420837 2.3477554 5.667984l0 0c0 4.4269867 -3.5887756 8.015747 -8.015747 8.015747l0 0c-4.4269753 0 -8.015747 -3.5887604 -8.015747 -8.015747z" fill-rule="evenodd"/><path stroke="#000000" stroke-width="2.0" stroke-linejoin="round" stroke-linecap="butt" d="m54.46982 136.34645l0 0c0 -4.4269714 3.5887718 -8.015747 8.015747 -8.015747l0 0c2.125908 0 4.1647415 0.84451294 5.6679916 2.347763c1.5032425 1.5032501 2.3477554 3.5420837 2.3477554 5.667984l0 0c0 4.4269867 -3.5887756 8.015747 -8.015747 8.015747l0 0c-4.4269753 0 -8.015747 -3.5887604 -8.015747 -8.015747z" fill-rule="evenodd"/><path fill="#000000" d="m165.40683 111.031494l0 0c0 -4.4269714 3.5887604 -8.015747 8.015747 -8.015747l0 0c2.1259003 0 4.164734 0.84451294 5.667984 2.3477554c1.5032501 1.5032501 2.347763 3.5420837 2.347763 5.6679916l0 0c0 4.426979 -3.5887756 8.015747 -8.015747 8.015747l0 0c-4.4269867 0 -8.015747 -3.588768 -8.015747 -8.015747z" fill-rule="evenodd"/><path stroke="#000000" stroke-width="2.0" stroke-linejoin="round" stroke-linecap="butt" d="m165.40683 111.031494l0 0c0 -4.4269714 3.5887604 -8.015747 8.015747 -8.015747l0 0c2.1259003 0 4.164734 0.84451294 5.667984 2.3477554c1.5032501 1.5032501 2.347763 3.5420837 2.347763 5.6679916l0 0c0 4.426979 -3.5887756 8.015747 -8.015747 8.015747l0 0c-4.4269867 0 -8.015747 -3.588768 -8.015747 -8.015747z" fill-rule="evenodd"/><path fill="#000000" d="m265.79266 92.97113l0 0c0 -4.426979 3.588745 -8.015747 8.015747 -8.015747l0 0c2.125885 0 4.164734 0.84451294 5.6679688 2.3477554c1.5032654 1.5032425 2.3477783 3.5420837 2.3477783 5.6679916l0 0c0 4.4269714 -3.5887756 8.015747 -8.015747 8.015747l0 0c-4.427002 0 -8.015747 -3.5887756 -8.015747 -8.015747z" fill-rule="evenodd"/><path stroke="#000000" stroke-width="2.0" stroke-linejoin="round" stroke-linecap="butt" d="m265.79266 92.97113l0 0c0 -4.426979 3.588745 -8.015747 8.015747 -8.015747l0 0c2.125885 0 4.164734 0.84451294 5.6679688 2.3477554c1.5032654 1.5032425 2.3477783 3.5420837 2.3477783 5.6679916l0 0c0 4.4269714 -3.5887756 8.015747 -8.015747 8.015747l0 0c-4.427002 0 -8.015747 -3.5887756 -8.015747 -8.015747z" fill-rule="evenodd"/><path fill="#000000" d="m323.4252 89.5538l0 0c0 -4.4269714 3.5887756 -8.015747 8.015747 -8.015747l0 0c2.1259155 0 4.164734 0.84451294 5.6679993 2.347763c1.5032349 1.5032425 2.3477478 3.542076 2.3477478 5.667984l0 0c0 4.426979 -3.5887756 8.015755 -8.015747 8.015755l0 0c-4.4269714 0 -8.015747 -3.5887756 -8.015747 -8.015755z" fill-rule="evenodd"/><path stroke="#000000" stroke-width="2.0" stroke-linejoin="round" stroke-linecap="butt" d="m323.4252 89.5538l0 0c0 -4.4269714 3.5887756 -8.015747 8.015747 -8.015747l0 0c2.1259155 0 4.164734 0.84451294 5.6679993 2.347763c1.5032349 1.5032425 2.3477478 3.542076 2.3477478 5.667984l0 0c0 4.426979 -3.5887756 8.015755 -8.015747 8.015755l0 0c-4.4269714 0 -8.015747 -3.5887756 -8.015747 -8.015755z" fill-rule="evenodd"/><path fill="#000000" d="m270.4567 165.27034l0 0c0 -4.4269714 3.5887756 -8.015747 8.015747 -8.015747l0 0c2.1259155 0 4.164734 0.84451294 5.6679993 2.347763c1.5032349 1.5032349 2.3477478 3.5420837 2.3477478 5.667984l0 0c0 4.4269714 -3.5887756 8.015747 -8.015747 8.015747l0 0c-4.4269714 0 -8.015747 -3.5887756 -8.015747 -8.015747z" fill-rule="evenodd"/><path stroke="#000000" stroke-width="2.0" stroke-linejoin="round" stroke-linecap="butt" d="m270.4567 165.27034l0 0c0 -4.4269714 3.5887756 -8.015747 8.015747 -8.015747l0 0c2.1259155 0 4.164734 0.84451294 5.6679993 2.347763c1.5032349 1.5032349 2.3477478 3.5420837 2.3477478 5.667984l0 0c0 4.4269714 -3.5887756 8.015747 -8.015747 8.015747l0 0c-4.4269714 0 -8.015747 -3.5887756 -8.015747 -8.015747z" fill-rule="evenodd"/><path fill="#000000" d="m365.81104 187.77165l0 0c0 -4.4269714 3.5887756 -8.015747 8.015747 -8.015747l0 0c2.125885 0 4.164734 0.84451294 5.6679688 2.347763c1.5032654 1.5032349 2.3477783 3.5420837 2.3477783 5.667984l0 0c0 4.4269714 -3.5887756 8.015747 -8.015747 8.015747l0 0c-4.4269714 0 -8.015747 -3.5887756 -8.015747 -8.015747z" fill-rule="evenodd"/><path stroke="#000000" stroke-width="2.0" stroke-linejoin="round" stroke-linecap="butt" d="m365.81104 187.77165l0 0c0 -4.4269714 3.5887756 -8.015747 8.015747 -8.015747l0 0c2.125885 0 4.164734 0.84451294 5.6679688 2.347763c1.5032654 1.5032349 2.3477783 3.5420837 2.3477783 5.667984l0 0c0 4.4269714 -3.5887756 8.015747 -8.015747 8.015747l0 0c-4.4269714 0 -8.015747 -3.5887756 -8.015747 -8.015747z" fill-rule="evenodd"/><path fill="#000000" d="m323.4252 280.44095l0 0c0 -4.4269714 3.5887756 -8.015747 8.015747 -8.015747l0 0c2.1259155 0 4.164734 0.84451294 5.6679993 2.3477478c1.5032349 1.5032654 2.3477478 3.5420837 2.3477478 5.6679993l0 0c0 4.4269714 -3.5887756 8.015747 -8.015747 8.015747l0 0c-4.4269714 0 -8.015747 -3.5887756 -8.015747 -8.015747z" fill-rule="evenodd"/><path stroke="#000000" stroke-width="2.0" stroke-linejoin="round" stroke-linecap="butt" d="m323.4252 280.44095l0 0c0 -4.4269714 3.5887756 -8.015747 8.015747 -8.015747l0 0c2.1259155 0 4.164734 0.84451294 5.6679993 2.3477478c1.5032349 1.5032654 2.3477478 3.5420837 2.3477478 5.6679993l0 0c0 4.4269714 -3.5887756 8.015747 -8.015747 8.015747l0 0c-4.4269714 0 -8.015747 -3.5887756 -8.015747 -8.015747z" fill-rule="evenodd"/><path fill="#000000" fill-opacity="0.0" d="m70.50131 136.34645l94.897644 -25.32283" fill-rule="evenodd"/><path stroke="#000000" stroke-width="2.0" stroke-linejoin="round" stroke-linecap="butt" stroke-dasharray="8.0,6.0" d="m70.50131 136.34645l94.897644 -25.32283" fill-rule="evenodd"/><path fill="#000000" fill-opacity="0.0" d="m68.15356 142.01445l34.078735 76.15747" fill-rule="evenodd"/><path stroke="#000000" stroke-width="2.0" stroke-linejoin="round" stroke-linecap="butt" stroke-dasharray="8.0,6.0" d="m68.15356 142.01445l34.078735 76.15747" fill-rule="evenodd"/><path fill="#000000" fill-opacity="0.0" d="m107.90026 215.82939l59.84252 -99.1181" fill-rule="evenodd"/><path stroke="#000000" stroke-width="2.0" stroke-linejoin="round" stroke-linecap="butt" stroke-dasharray="8.0,6.0" d="m107.90026 215.82939l59.84252 -99.1181" fill-rule="evenodd"/><path fill="#000000" fill-opacity="0.0" d="m273.8084 100.98688l4.6614075 56.283463" fill-rule="evenodd"/><path stroke="#000000" stroke-width="2.0" stroke-linejoin="round" stroke-linecap="butt" stroke-dasharray="8.0,6.0" d="m273.8084 100.98688l4.6614075 56.283463" fill-rule="evenodd"/><path fill="#000000" fill-opacity="0.0" d="m281.82416 92.97113l41.606293 -3.4015732" fill-rule="evenodd"/><path stroke="#000000" stroke-width="2.0" stroke-linejoin="round" stroke-linecap="butt" stroke-dasharray="8.0,6.0" d="m281.82416 92.97113l41.606293 -3.4015732" fill-rule="evenodd"/><path fill="#000000" fill-opacity="0.0" d="m325.77295 95.221794l-41.637787 64.37795" fill-rule="evenodd"/><path stroke="#000000" stroke-width="2.0" stroke-linejoin="round" stroke-linecap="butt" stroke-dasharray="8.0,6.0" d="m325.77295 95.221794l-41.637787 64.37795" fill-rule="evenodd"/><path fill="#000000" fill-opacity="0.0" d="m337.10895 95.221794l36.724396 84.53544" fill-rule="evenodd"/><path stroke="#000000" stroke-width="2.0" stroke-linejoin="round" stroke-linecap="butt" stroke-dasharray="8.0,6.0" d="m337.10895 95.221794l36.724396 84.53544" fill-rule="evenodd"/><path fill="#000000" fill-opacity="0.0" d="m368.15878 182.10367l-81.66928 -16.818909" fill-rule="evenodd"/><path stroke="#000000" stroke-width="2.0" stroke-linejoin="round" stroke-linecap="butt" stroke-dasharray="8.0,6.0" d="m368.15878 182.10367l-81.66928 -16.818909" fill-rule="evenodd"/><path fill="#000000" fill-opacity="0.0" d="m368.15878 182.10367l-88.6929 -83.46457" fill-rule="evenodd"/><path stroke="#000000" stroke-width="2.0" stroke-linejoin="round" stroke-linecap="butt" stroke-dasharray="8.0,6.0" d="m368.15878 182.10367l-88.6929 -83.46457" fill-rule="evenodd"/><path fill="#000000" fill-opacity="0.0" d="m256.77295 228.63649l-36.629913 42.551193" fill-rule="evenodd"/><path stroke="#000000" stroke-width="2.0" stroke-linejoin="round" stroke-linecap="butt" stroke-dasharray="8.0,6.0" d="m256.77295 228.63649l-36.629913 42.551193" fill-rule="evenodd"/><path fill="#000000" fill-opacity="0.0" d="m222.48819 276.84253l100.944885 3.5905457" fill-rule="evenodd"/><path stroke="#000000" stroke-width="2.0" stroke-linejoin="round" stroke-linecap="butt" stroke-dasharray="8.0,6.0" d="m222.48819 276.84253l100.944885 3.5905457" fill-rule="evenodd"/><path fill="#000000" fill-opacity="0.0" d="m325.77295 274.77295l-57.66928 -46.141724" fill-rule="evenodd"/><path stroke="#000000" stroke-width="2.0" stroke-linejoin="round" stroke-linecap="butt" stroke-dasharray="8.0,6.0" d="m325.77295 274.77295l-57.66928 -46.141724" fill-rule="evenodd"/><path fill="#000000" fill-opacity="0.0" d="m446.5013 115.50131l0 60.498688l151.49869 0" fill-rule="evenodd"/><path stroke="#000000" stroke-width="2.0" stroke-linejoin="round" stroke-linecap="butt" d="m446.5013 115.50131l0 60.498688l151.49869 0" fill-rule="evenodd"/><path fill="#000000" fill-opacity="0.0" d="m455.0 156.0l18.0 -17.0l12.501312 -17.0l30.498688 25.0l24.501343 -22.0l17.0 12.501312l26.498657 -7.5013123l9.0 38.0" fill-rule="evenodd"/><path stroke="#000000" stroke-width="1.0" stroke-linejoin="round" stroke-linecap="butt" d="m455.0 156.0l18.0 -17.0l12.501312 -17.0l30.498688 25.0l24.501343 -22.0l17.0 12.501312l26.498657 -7.5013123l9.0 38.0" fill-rule="evenodd"/><path fill="#000000" fill-opacity="0.0" d="m501.66928 81.538055l44.661407 0l0 35.37008l-44.661407 0z" fill-rule="evenodd"/><path fill="#000000" d="m512.1693 108.45805l0 -13.359375l1.765625 0l0 5.484375l6.9375 0l0 -5.484375l1.765625 0l0 13.359375l-1.765625 0l0 -6.296875l-6.9375 0l0 6.296875l-1.765625 0z" fill-rule="nonzero"/><path fill="#000000" fill-opacity="0.0" d="m418.6273 128.06561l27.874023 0l0 35.370087l-27.874023 0z" fill-rule="evenodd"/><path fill="#000000" d="m429.0648 154.98561l0 -13.359375l4.609375 0q1.546875 0 2.375 0.203125q1.140625 0.25 1.953125 0.953125q1.0625 0.890625 1.578125 2.28125q0.53125 1.390625 0.53125 3.171875q0 1.515625 -0.359375 2.703125q-0.359375 1.171875 -0.921875 1.9375q-0.546875 0.765625 -1.203125 1.21875q-0.65625 0.4375 -1.59375 0.671875q-0.9375 0.21875 -2.140625 0.21875l-4.828125 0zm1.765625 -1.578125l2.859375 0q1.3125 0 2.0625 -0.234375q0.75 -0.25 1.203125 -0.703125q0.625 -0.625 0.96875 -1.6875q0.359375 -1.0625 0.359375 -2.578125q0 -2.09375 -0.6875 -3.21875q-0.6875 -1.125 -1.671875 -1.5q-0.703125 -0.28125 -2.28125 -0.28125l-2.8125 0l0 10.203125z" fill-rule="nonzero"/></g></svg>