<svg version="1.1" viewBox="0.0 0.0 304.1653543307087 303.38320209973756" fill="none" stroke="none" stroke-linecap="square" stroke-miterlimit="10" xmlns:xlink="http://www.w3.org/1999/xlink" xmlns="http://www.w3.org/2000/svg"><clipPath id="p.0"><path d="m0 0l304.16534 0l0 303.3832l-304.16534 0l0 -303.3832z" clip-rule="nonzero"/></clipPath><g clip-path="url(#p.0)"><path fill="#000000" fill-opacity="0.0" d="m0 0l304.16534 0l0 303.3832l-304.16534 0z" fill-rule="evenodd"/><path fill="#fcfbf7" d="m8.0 7.4791703l288.9449 0l0 288.9449l-288.9449 0z" fill-rule="evenodd"/><path stroke="#252522" stroke-width="2.0" stroke-linejoin="round" stroke-linecap="butt" d="m8.0 7.4791703l288.9449 0l0 288.9449l-288.9449 0z" fill-rule="evenodd"/><path fill="#d9d2e9" d="m185.26772 295.3281l-7.837265 -21.175873l17.207352 -24.897629l29.88713 6.826767l19.745407 39.48819z" fill-rule="evenodd"/><path fill="#d9d2e9" d="m295.83203 128.64568l-23.601074 -12.241478l-25.524918 12.6377945l-4.6850433 46.073486l19.803162 21.79004l34.007874 5.1758423z" fill-rule="evenodd"/><path fill="#d9d2e9" d="m105.632545 8.582677l22.454063 17.524933l21.902893 58.595802l-43.808403 52.81102l-35.595795 15.881897l-37.238846 8.761154l-23.97113 -8.774277l-0.338583 -144.77429z" fill-rule="evenodd"/><path fill="#000000" fill-opacity="0.0" d="m13.666667 15.629921l30.456692 0l0 34.362206l-30.456692 0z" fill-rule="evenodd"/><path fill="#252522" d="m24.635416 47.66992l0 -17.1875l11.593752 0l0 2.03125l-9.312502 0l0 5.328125l8.062502 0l0 2.015625l-8.062502 0l0 7.8125l-2.28125 0z" fill-rule="nonzero"/><path fill="#000000" fill-opacity="0.0" d="m262.38058 134.77165l30.456696 0l0 34.362213l-30.456696 0z" fill-rule="evenodd"/><path fill="#252522" d="m273.34933 166.81166l0 -17.1875l11.59375 0l0 2.03125l-9.3125 0l0 5.328125l8.0625 0l0 2.015625l-8.0625 0l0 7.8125l-2.28125 0z" fill-rule="nonzero"/><path fill="#000000" fill-opacity="0.0" d="m194.70088 257.1391l32.81891 0l0 36.031494l-32.81891 0z" fill-rule="evenodd"/><path fill="#252522" d="m205.66963 289.1791l0 -17.1875l11.59375 0l0 2.03125l-9.3125 0l0 5.328125l8.0625 0l0 2.015625l-8.0625 0l0 7.8125l-2.28125 0z" fill-rule="nonzero"/><path fill="#000000" fill-opacity="0.0" d="m246.56955 13.858268l32.81891 0l0 26.236221l-32.81891 0z" fill-rule="evenodd"/><path fill="#252522" d="m257.80392 45.89827l0 -17.187502l2.28125 0l0 17.187502l-2.28125 0z" fill-rule="nonzero"/><path fill="#000000" fill-opacity="0.0" d="m185.84645 152.45145l17.54332 -9.732285" fill-rule="evenodd"/><path stroke="#252522" stroke-width="1.0" stroke-linejoin="round" stroke-linecap="butt" d="m189.16064 150.61288l8.982407 -4.9830627" fill-rule="evenodd"/><path fill="#252522" stroke="#252522" stroke-width="1.0" stroke-linecap="butt" d="m186.28368 152.2089c-0.4407196 -0.79444885 -0.15397644 -1.7957611 0.6404724 -2.2364807c0.79444885 -0.44073486 1.7957611 -0.15397644 2.2364807 0.6404724c0.44073486 0.79444885 0.15397644 1.7957458 -0.6404724 2.2364807c-0.7944336 0.4407196 -1.7957458 0.15397644 -2.2364807 -0.6404724z" fill-rule="nonzero"/><path fill="#252522" stroke="#252522" stroke-width="1.0" stroke-linecap="butt" d="m198.94432 147.07419l3.1670837 -3.6458435l-4.769638 0.7571106z" fill-rule="evenodd"/><path fill="#000000" fill-opacity="0.0" d="m181.5328 181.10498l3.8740234 18.362213" fill-rule="evenodd"/><path stroke="#252522" stroke-width="1.0" stroke-linejoin="round" stroke-linecap="butt" d="m182.31519 184.81335l1.8530426 8.783081" fill-rule="evenodd"/><path fill="#252522" stroke="#252522" stroke-width="1.0" stroke-linecap="butt" d="m181.63603 181.59422c0.8889313 -0.18754578 1.7615967 0.38104248 1.9491425 1.2699738c0.18754578 0.88894653 -0.38104248 1.7616119 -1.269989 1.9491577c-0.8889313 0.18754578 -1.7615967 -0.38104248 -1.9491425 -1.269989c-0.18754578 -0.8889313 0.38104248 -1.7615967 1.269989 -1.9491425z" fill-rule="nonzero"/><path fill="#252522" stroke="#252522" stroke-width="1.0" stroke-linecap="butt" d="m182.55206 193.9374l2.5529785 4.0993805l0.67933655 -4.781311z" fill-rule="evenodd"/><path fill="#000000" fill-opacity="0.0" d="m159.5643 141.52231l-9.574799 -21.196846" fill-rule="evenodd"/><path stroke="#252522" stroke-width="1.0" stroke-linejoin="round" stroke-linecap="butt" d="m158.0041 138.06834l-5.544647 -12.274864" fill-rule="evenodd"/><path fill="#252522" stroke="#252522" stroke-width="1.0" stroke-linecap="butt" d="m159.35847 141.06664c-0.82795715 0.37400818 -1.8023376 0.005996704 -2.1763306 -0.82196045c-0.37399292 -0.82795715 -0.0059814453 -1.8023376 0.8219757 -2.1763306c0.82795715 -0.37399292 1.8023376 -0.005996704 2.1763306 0.82196045c0.37399292 0.82795715 0.0059814453 1.8023376 -0.8219757 2.1763306z" fill-rule="nonzero"/><path fill="#252522" stroke="#252522" stroke-width="1.0" stroke-linecap="butt" d="m153.96474 125.11353l-3.3734283 -3.4557877l0.36286926 4.815689z" fill-rule="evenodd"/><path fill="#000000" fill-opacity="0.0" d="m139.03674 160.01443l-25.259842 -1.5433044" fill-rule="evenodd"/><path stroke="#252522" stroke-width="1.0" stroke-linejoin="round" stroke-linecap="butt" d="m135.2538 159.78331l-15.48806 -0.9462738" fill-rule="evenodd"/><path fill="#252522" stroke="#252522" stroke-width="1.0" stroke-linecap="butt" d="m138.53767 159.98395c-0.055404663 0.9068146 -0.83543396 1.5970154 -1.7422485 1.5416107c-0.90682983 -0.055404663 -1.5970306 -0.83543396 -1.541626 -1.7422485c0.055404663 -0.9068146 0.83543396 -1.5970306 1.7422638 -1.541626c0.9068146 0.055404663 1.5970154 0.8354492 1.5416107 1.7422638z" fill-rule="nonzero"/><path fill="#252522" stroke="#252522" stroke-width="1.0" stroke-linecap="butt" d="m119.86646 157.18837l-4.6303787 1.3719177l4.4289246 1.9253998z" fill-rule="evenodd"/><path fill="#000000" fill-opacity="0.0" d="m149.9895 181.10498l-16.251968 15.05513" fill-rule="evenodd"/><path stroke="#252522" stroke-width="1.0" stroke-linejoin="round" stroke-linecap="butt" d="m147.20914 183.68059l-9.069992 8.402054" fill-rule="evenodd"/><path fill="#252522" stroke="#252522" stroke-width="1.0" stroke-linecap="butt" d="m149.6227 181.44478c0.6174011 0.66648865 0.57762146 1.7072754 -0.08886719 2.3246765c-0.66648865 0.6174011 -1.7072754 0.57762146 -2.3246765 -0.08886719c-0.6174164 -0.66648865 -0.57762146 -1.7072754 0.08886719 -2.3246765c0.66648865 -0.6174164 1.7072754 -0.57762146 2.3246765 0.08886719z" fill-rule="nonzero"/><path fill="#252522" stroke="#252522" stroke-width="1.0" stroke-linecap="butt" d="m137.01668 190.87093l-2.2066956 4.2957l4.451645 -1.8722687z" fill-rule="evenodd"/><path fill="#000000" fill-opacity="0.0" d="m113.7769 116.56431l-18.425194 -12.724411" fill-rule="evenodd"/><path stroke="#252522" stroke-width="1.0" stroke-linejoin="round" stroke-linecap="butt" d="m110.6583 114.41061l-10.369499 -7.1611633" fill-rule="evenodd"/><path fill="#252522" stroke="#252522" stroke-width="1.0" stroke-linecap="butt" d="m113.36548 116.280174c-0.51626587 0.7475662 -1.5408096 0.93507385 -2.2883759 0.41880035c-0.7475662 -0.51626587 -0.9350662 -1.540802 -0.41880035 -2.2883682c0.51626587 -0.7475662 1.5408096 -0.93507385 2.2883759 -0.41880798c0.7475662 0.5162735 0.9350662 1.5408096 0.41880035 2.2883759z" fill-rule="nonzero"/><path fill="#252522" stroke="#252522" stroke-width="1.0" stroke-linecap="butt" d="m101.22742 105.89032l-4.672783 -1.2196884l2.7955627 3.9379425z" fill-rule="evenodd"/><path fill="#000000" fill-opacity="0.0" d="m90.19423 134.77165l-9.574806 -21.196846" fill-rule="evenodd"/><path stroke="#252522" stroke-width="1.0" stroke-linejoin="round" stroke-linecap="butt" d="m88.63403 131.31769l-5.544655 -12.274864" fill-rule="evenodd"/><path fill="#252522" stroke="#252522" stroke-width="1.0" stroke-linecap="butt" d="m89.988396 134.31598c-0.82795715 0.37400818 -1.8023376 0.005996704 -2.1763306 -0.82196045c-0.37399292 -0.82795715 -0.0059890747 -1.8023376 0.8219757 -2.1763306c0.82795715 -0.37400818 1.80233 -0.005996704 2.176323 0.82196045c0.37400055 0.82795715 0.0059890747 1.8023376 -0.8219681 2.1763306z" fill-rule="nonzero"/><path fill="#252522" stroke="#252522" stroke-width="1.0" stroke-linecap="butt" d="m84.594666 118.36288l-3.373436 -3.4557877l0.36286163 4.815689z" fill-rule="evenodd"/><path fill="#000000" fill-opacity="0.0" d="m129.69029 94.02362l-23.40158 -7.370079" fill-rule="evenodd"/><path stroke="#252522" stroke-width="1.0" stroke-linejoin="round" stroke-linecap="butt" d="m126.075325 92.88513l-14.063721 -4.4292297" fill-rule="evenodd"/><path fill="#252522" stroke="#252522" stroke-width="1.0" stroke-linecap="butt" d="m129.21338 93.87343c-0.27290344 0.86654663 -1.1966248 1.347786 -2.0631714 1.0748749c-0.86654663 -0.27291107 -1.347786 -1.1966248 -1.0748749 -2.0631714c0.27290344 -0.86655426 1.1966248 -1.3477936 2.0631714 -1.0748825c0.86654663 0.27291107 1.3477936 1.1966248 1.0748749 2.063179z" fill-rule="nonzero"/><path fill="#252522" stroke="#252522" stroke-width="1.0" stroke-linecap="butt" d="m112.507774 86.88046l-4.8246765 0.21222687l3.8323364 2.9386673z" fill-rule="evenodd"/></g></svg>